<svg id="Layer_1" data-name="Layer 1" xmlns="http://www.w3.org/2000/svg" viewBox="0 0 1366 768"><defs><style>.cls-1{fill:#ff6510;}.cls-2{fill:#efb718;}.cls-3{fill:#003eed;}.cls-4{fill:#f7a02d;}.cls-5{fill:#5ed6fc;}.cls-6{fill:#0c1df2;}.cls-7{fill:#1e08f4;}.cls-8{fill:#ed1515;}.cls-10,.cls-11,.cls-12,.cls-9{fill:none;stroke-miterlimit:10;}.cls-10,.cls-9{stroke:#000;stroke-linecap:round;}.cls-10{stroke-dasharray:11.9 11.9;}.cls-11{stroke:#898989;}.cls-12{stroke:#006b84;}.cls-13{fill:#1f8ea0;}.cls-14{fill:#fff;}</style></defs><circle class="cls-1" cx="43.5" cy="392.5" r="3.5"/><circle class="cls-2" cx="57.5" cy="392.5" r="3.5"/><circle class="cls-3" cx="70.5" cy="392.5" r="3.5"/><circle class="cls-4" cx="210" cy="389" r="23"/><circle class="cls-5" cx="380" cy="389" r="16"/><circle class="cls-6" cx="665.5" cy="390.5" r="11.5"/><circle class="cls-7" cx="1025.5" cy="390.5" r="11.5"/><circle cx="1319.5" cy="389.5" r="3.5"/><circle cx="1319.5" cy="360.5" r="3.5"/><circle class="cls-8" cx="86" cy="393" r="2"/><line class="cls-9" x1="153.5" y1="360.5" x2="159.5" y2="360.5"/><line class="cls-10" x1="171.4" y1="360.5" x2="1307.55" y2="360.5"/><line class="cls-9" x1="1313.5" y1="360.5" x2="1319.5" y2="360.5"/><path d="M46.51,420.19h9.8v3H50v3.14h5.33v3H50v3.6h6.51v3h-10Z"/><path d="M58.82,432.53c0-2.51,2-3.87,6.71-4.36a1.66,1.66,0,0,0-1.88-1.72,6.49,6.49,0,0,0-3.15,1.08l-1.25-2.32a9.75,9.75,0,0,1,5.09-1.57c3,0,4.73,1.74,4.73,5.39v6.81H66.19l-.25-1.22h-.09a5.24,5.24,0,0,1-3.46,1.51A3.45,3.45,0,0,1,58.82,432.53Zm6.7-.16v-2.08c-2.51.34-3.33,1.06-3.33,2s.53,1.14,1.37,1.14A2.68,2.68,0,0,0,65.52,432.37Z"/><path d="M72,423.92h2.88l.25,2.08h.09a4,4,0,0,1,3.38-2.37,3.33,3.33,0,0,1,1.42.24l-.59,3a5,5,0,0,0-1.29-.19,3,3,0,0,0-2.62,2.2v6.9H72v-11.9Z"/><path d="M82,431.5v-4.81H80.41v-2.63l1.82-.14.41-3.16h2.92v3.16h2.85v2.77H85.56v4.77c0,1.35.61,1.89,1.54,1.89a3.34,3.34,0,0,0,1.13-.23l.56,2.56a8.4,8.4,0,0,1-2.65.43C83.21,436.12,82,434.26,82,431.5Z"/><path d="M90.76,419h3.53v4.11l-.16,2.16a5.38,5.38,0,0,1,3.68-1.65c2.59,0,3.69,1.83,3.69,4.8v7.39H98v-6.94c0-1.71-.46-2.25-1.48-2.25a3,3,0,0,0-2.2,1.16v8H90.76Z"/><line class="cls-11" x1="1319.27" y1="396.73" x2="1319.27" y2="413.67"/><line class="cls-12" x1="347.55" y1="388.96" x2="411.99" y2="388.96"/><path d="M1278.58,419.61H1284c3.44,0,6.22,1.23,6.22,5s-2.81,5.31-6.13,5.31h-1.93v5.31h-3.54Zm5.27,7.53c1.94,0,2.86-.87,2.86-2.5s-1-2.22-3-2.22h-1.63v4.72Z"/><path d="M1292.59,431.56V418.44h3.53V431.7c0,.76.35,1,.64,1a1.45,1.45,0,0,0,.43-.05l.42,2.6a4.51,4.51,0,0,1-1.77.29C1293.42,435.54,1292.59,434,1292.59,431.56Z"/><path d="M1299.34,430.74v-7.39h3.53v6.94c0,1.71.46,2.25,1.48,2.25a2.44,2.44,0,0,0,2.12-1.31v-7.88H1310v11.91h-2.88l-.25-1.66h-.09a4.66,4.66,0,0,1-3.74,1.94C1300.45,435.54,1299.34,433.72,1299.34,430.74Z"/><path d="M1313.57,430.93v-4.81h-1.63v-2.64l1.82-.13.42-3.16h2.92v3.16H1320v2.77h-2.85v4.76c0,1.35.61,1.9,1.54,1.9a3.6,3.6,0,0,0,1.13-.23l.56,2.56a8.51,8.51,0,0,1-2.65.43C1314.74,435.54,1313.57,433.69,1313.57,430.93Z"/><path d="M1321.16,429.31c0-4,2.79-6.25,5.8-6.25s5.8,2.29,5.8,6.25-2.79,6.23-5.8,6.23S1321.16,433.26,1321.16,429.31Zm8,0c0-2.06-.72-3.4-2.18-3.4s-2.19,1.34-2.19,3.4.73,3.39,2.19,3.39S1329.14,431.37,1329.14,429.31Z"/><g id="Qv2f88.tif"><path class="cls-13" d="M79.35,318.92H90.79c3.45.41,7.08.27,10.31,1.33,7.87,2.58,15.58,5.66,23.3,8.65,2.5,1,4.73,2.82,7.28,3.35,4.64,1,9.43,1.21,14.14,1.83a59.88,59.88,0,0,1,21.6,6.84c1.25.69,2,2.26,3,3.41,2.28,2.65.42,5.32-.6,7.45-.86,1.81-.66,2.51,1.16,3.65-2.75.42-5,.8-7.23,1.1-2.83.37-5.74,1.2-8.47.82-1.87-.26-3.09-.24-4.19,1.11-3.66,4.5-13.06,3.55-16,.09a4.6,4.6,0,0,0-4.43-1.56c-1,.1-2.05.21-3.08.21-20.48,0-40.95-.07-61.43,0a6.4,6.4,0,0,0-3.7,1.48c-3.66,3-11.14,4.21-14.49,1.44-2.71-2.24-5.55-2.57-8.69-2.77a50.48,50.48,0,0,1-6.15-.66c-3.94-.76-8.09-1.23-10.48-5.15v-6.62A17.3,17.3,0,0,0,24,342.86c1.51-3.22,1.25-6.64.93-10-.1-1.18.12-1.78,1.51-2.08a100.81,100.81,0,0,0,12.11-3.08c9.94-3.47,19.9-6.7,30.49-7.6C72.48,319.77,75.92,319.3,79.35,318.92Z"/><path class="cls-14" d="M22.66,351.54c2.39,3.92,6.54,4.39,10.48,5.15a50.48,50.48,0,0,0,6.15.66c3.14.2,6,.53,8.69,2.77,3.35,2.77,10.83,1.54,14.49-1.44a6.4,6.4,0,0,1,3.7-1.48c20.48-.07,41,0,61.43,0,1,0,2.05-.11,3.08-.21a4.6,4.6,0,0,1,4.43,1.56c2.9,3.46,12.3,4.41,16-.09,1.1-1.35,2.32-1.37,4.19-1.11,2.73.38,5.64-.45,8.47-.82,2.25-.3,4.48-.68,7.23-1.1-1.82-1.14-2-1.84-1.16-3.65,1-2.13,2.88-4.8.6-7.45-1-1.15-1.73-2.72-3-3.41a59.88,59.88,0,0,0-21.6-6.84c-4.71-.62-9.5-.86-14.14-1.83-2.55-.53-4.78-2.38-7.28-3.35-7.72-3-15.43-6.07-23.3-8.65-3.23-1.06-6.86-.92-10.31-1.33h81.47v43H22.66Z"/><path class="cls-14" d="M79.35,318.92c-3.43.38-6.87.85-10.31,1.14-10.59.9-20.55,4.13-30.49,7.6a100.81,100.81,0,0,1-12.11,3.08c-1.39.3-1.61.9-1.51,2.08.32,3.4.58,6.82-.93,10a17.3,17.3,0,0,1-1.34,2.06v-26Z"/></g><line class="cls-11" x1="70.33" y1="399.1" x2="70.33" y2="416.04"/></svg>