<?xml version="1.0" encoding="utf-8"?>
<!-- Generator: Adobe Illustrator 24.2.3, SVG Export Plug-In . SVG Version: 6.00 Build 0)  -->
<svg version="1.1" id="Layer_1" xmlns="http://www.w3.org/2000/svg" xmlns:xlink="http://www.w3.org/1999/xlink" x="0px" y="0px"
	 viewBox="0 0 1366 768" style="enable-background:new 0 0 1366 768;" xml:space="preserve">
<style type="text/css">
	.st0{fill:#FFFFFF;stroke:#FFFFFF;stroke-width:0.5;stroke-miterlimit:10;}
	.st1{fill:#FFFFFF;}
</style>
<g>
	<path d="M27.23,122.71l39.08,0.08c3.46,0,6.27,3.21,6.25,7.16l-0.15,95.92c0,3.95-2.82,7.14-6.28,7.13l-39.08-0.08
		c-3.46,0-6.27-3.21-6.25-7.16l0.15-95.92C20.97,125.91,23.77,122.71,27.23,122.71z"/>
	<path class="st0" d="M39.52,130.68l13.4,0.02c0.33,0,0.6,0.27,0.6,0.6l0,0c0,0.33-0.27,0.6-0.6,0.6l-13.4-0.02
		c-0.33,0-0.6-0.27-0.6-0.6l0,0C38.92,130.94,39.19,130.68,39.52,130.68z"/>
	<circle class="st1" cx="46.73" cy="221.67" r="4.53"/>
</g>
<g>
	<path d="M94.23,122.71l39.08,0.08c3.46,0,6.27,3.21,6.25,7.16l-0.15,95.92c0,3.95-2.82,7.14-6.28,7.13l-39.08-0.08
		c-3.46,0-6.27-3.21-6.25-7.16l0.15-95.92C87.97,125.91,90.77,122.71,94.23,122.71z"/>
	<path class="st0" d="M106.52,130.68l13.4,0.02c0.33,0,0.6,0.27,0.6,0.6l0,0c0,0.33-0.27,0.6-0.6,0.6l-13.4-0.02
		c-0.33,0-0.6-0.27-0.6-0.6l0,0C105.92,130.94,106.19,130.68,106.52,130.68z"/>
	<circle class="st1" cx="113.73" cy="221.67" r="4.53"/>
</g>
<g>
	<path d="M161.23,122.71l39.08,0.08c3.46,0,6.27,3.21,6.25,7.16l-0.15,95.92c0,3.95-2.82,7.14-6.28,7.13l-39.08-0.08
		c-3.46,0-6.27-3.21-6.25-7.16l0.15-95.92C154.97,125.91,157.77,122.71,161.23,122.71z"/>
	<path class="st0" d="M173.52,130.68l13.4,0.02c0.33,0,0.6,0.27,0.6,0.6l0,0c0,0.33-0.27,0.6-0.6,0.6l-13.4-0.02
		c-0.33,0-0.6-0.27-0.6-0.6l0,0C172.92,130.94,173.19,130.68,173.52,130.68z"/>
	<circle class="st1" cx="180.73" cy="221.67" r="4.53"/>
</g>
<g>
	<path d="M228.23,122.71l39.08,0.08c3.46,0,6.27,3.21,6.25,7.16l-0.15,95.92c0,3.95-2.82,7.14-6.28,7.13l-39.08-0.08
		c-3.46,0-6.27-3.21-6.25-7.16l0.15-95.92C221.97,125.91,224.77,122.71,228.23,122.71z"/>
	<path class="st0" d="M240.52,130.68l13.4,0.02c0.33,0,0.6,0.27,0.6,0.6l0,0c0,0.33-0.27,0.6-0.6,0.6l-13.4-0.02
		c-0.33,0-0.6-0.27-0.6-0.6l0,0C239.92,130.94,240.19,130.68,240.52,130.68z"/>
	<circle class="st1" cx="247.73" cy="221.67" r="4.53"/>
</g>
<g>
	<path d="M295.23,122.71l39.08,0.08c3.46,0,6.27,3.21,6.25,7.16l-0.15,95.92c0,3.95-2.82,7.14-6.28,7.13l-39.08-0.08
		c-3.46,0-6.27-3.21-6.25-7.16l0.15-95.92C288.97,125.91,291.77,122.71,295.23,122.71z"/>
	<path class="st0" d="M307.52,130.68l13.4,0.02c0.33,0,0.6,0.27,0.6,0.6l0,0c0,0.33-0.27,0.6-0.6,0.6l-13.4-0.02
		c-0.33,0-0.6-0.27-0.6-0.6l0,0C306.92,130.94,307.19,130.68,307.52,130.68z"/>
	<circle class="st1" cx="314.73" cy="221.67" r="4.53"/>
</g>
<g>
	<path d="M362.23,122.71l39.08,0.08c3.46,0,6.27,3.21,6.25,7.16l-0.15,95.92c0,3.95-2.82,7.14-6.28,7.13l-39.08-0.08
		c-3.46,0-6.27-3.21-6.25-7.16l0.15-95.92C355.97,125.91,358.77,122.71,362.23,122.71z"/>
	<path class="st0" d="M374.52,130.68l13.4,0.02c0.33,0,0.6,0.27,0.6,0.6l0,0c0,0.33-0.27,0.6-0.6,0.6l-13.4-0.02
		c-0.33,0-0.6-0.27-0.6-0.6l0,0C373.92,130.94,374.19,130.68,374.52,130.68z"/>
	<circle class="st1" cx="381.73" cy="221.67" r="4.53"/>
</g>
<g>
	<path d="M429.23,122.71l39.08,0.08c3.46,0,6.27,3.21,6.25,7.16l-0.15,95.92c0,3.95-2.82,7.14-6.28,7.13l-39.08-0.08
		c-3.46,0-6.27-3.21-6.25-7.16l0.15-95.92C422.97,125.91,425.77,122.71,429.23,122.71z"/>
	<path class="st0" d="M441.52,130.68l13.4,0.02c0.33,0,0.6,0.27,0.6,0.6l0,0c0,0.33-0.27,0.6-0.6,0.6l-13.4-0.02
		c-0.33,0-0.6-0.27-0.6-0.6l0,0C440.92,130.94,441.19,130.68,441.52,130.68z"/>
	<circle class="st1" cx="448.73" cy="221.67" r="4.53"/>
</g>
<g>
	<path d="M496.23,122.71l39.08,0.08c3.46,0,6.27,3.21,6.25,7.16l-0.15,95.92c0,3.95-2.82,7.14-6.28,7.13l-39.08-0.08
		c-3.46,0-6.27-3.21-6.25-7.16l0.15-95.92C489.97,125.91,492.77,122.71,496.23,122.71z"/>
	<path class="st0" d="M508.52,130.68l13.4,0.02c0.33,0,0.6,0.27,0.6,0.6l0,0c0,0.33-0.27,0.6-0.6,0.6l-13.4-0.02
		c-0.33,0-0.6-0.27-0.6-0.6l0,0C507.92,130.94,508.19,130.68,508.52,130.68z"/>
	<circle class="st1" cx="515.73" cy="221.67" r="4.53"/>
</g>
<g>
	<path d="M563.23,122.71l39.08,0.08c3.46,0,6.27,3.21,6.25,7.16l-0.15,95.92c0,3.95-2.82,7.14-6.28,7.13l-39.08-0.08
		c-3.46,0-6.27-3.21-6.25-7.16l0.15-95.92C556.97,125.91,559.77,122.71,563.23,122.71z"/>
	<path class="st0" d="M575.52,130.68l13.4,0.02c0.33,0,0.6,0.27,0.6,0.6l0,0c0,0.33-0.27,0.6-0.6,0.6l-13.4-0.02
		c-0.33,0-0.6-0.27-0.6-0.6l0,0C574.92,130.94,575.19,130.68,575.52,130.68z"/>
	<circle class="st1" cx="582.73" cy="221.67" r="4.53"/>
</g>
<g>
	<path d="M630.23,122.71l39.08,0.08c3.46,0,6.27,3.21,6.25,7.16l-0.15,95.92c0,3.95-2.82,7.14-6.28,7.13l-39.08-0.08
		c-3.46,0-6.27-3.21-6.25-7.16l0.15-95.92C623.97,125.91,626.77,122.71,630.23,122.71z"/>
	<path class="st0" d="M642.52,130.68l13.4,0.02c0.33,0,0.6,0.27,0.6,0.6l0,0c0,0.33-0.27,0.6-0.6,0.6l-13.4-0.02
		c-0.33,0-0.6-0.27-0.6-0.6l0,0C641.92,130.94,642.19,130.68,642.52,130.68z"/>
	<circle class="st1" cx="649.73" cy="221.67" r="4.53"/>
</g>
<g>
	<path d="M697.23,122.71l39.08,0.08c3.46,0,6.27,3.21,6.25,7.16l-0.15,95.92c0,3.95-2.82,7.14-6.28,7.13l-39.08-0.08
		c-3.46,0-6.27-3.21-6.25-7.16l0.15-95.92C690.97,125.91,693.77,122.71,697.23,122.71z"/>
	<path class="st0" d="M709.52,130.68l13.4,0.02c0.33,0,0.6,0.27,0.6,0.6l0,0c0,0.33-0.27,0.6-0.6,0.6l-13.4-0.02
		c-0.33,0-0.6-0.27-0.6-0.6l0,0C708.92,130.94,709.19,130.68,709.52,130.68z"/>
	<circle class="st1" cx="716.73" cy="221.67" r="4.53"/>
</g>
<g>
	<path d="M764.23,122.71l39.08,0.08c3.46,0,6.27,3.21,6.25,7.16l-0.15,95.92c0,3.95-2.82,7.14-6.28,7.13l-39.08-0.08
		c-3.46,0-6.27-3.21-6.25-7.16l0.15-95.92C757.97,125.91,760.77,122.71,764.23,122.71z"/>
	<path class="st0" d="M776.52,130.68l13.4,0.02c0.33,0,0.6,0.27,0.6,0.6l0,0c0,0.33-0.27,0.6-0.6,0.6l-13.4-0.02
		c-0.33,0-0.6-0.27-0.6-0.6l0,0C775.92,130.94,776.19,130.68,776.52,130.68z"/>
	<circle class="st1" cx="783.73" cy="221.67" r="4.53"/>
</g>
<g>
	<path d="M831.23,122.71l39.08,0.08c3.46,0,6.27,3.21,6.25,7.16l-0.15,95.92c0,3.95-2.82,7.14-6.28,7.13l-39.08-0.08
		c-3.46,0-6.27-3.21-6.25-7.16l0.15-95.92C824.97,125.91,827.77,122.71,831.23,122.71z"/>
	<path class="st0" d="M843.52,130.68l13.4,0.02c0.33,0,0.6,0.27,0.6,0.6l0,0c0,0.33-0.27,0.6-0.6,0.6l-13.4-0.02
		c-0.33,0-0.6-0.27-0.6-0.6l0,0C842.92,130.94,843.19,130.68,843.52,130.68z"/>
	<circle class="st1" cx="850.73" cy="221.67" r="4.53"/>
</g>
<g>
	<path d="M898.23,122.71l39.08,0.08c3.46,0,6.27,3.21,6.25,7.16l-0.15,95.92c0,3.95-2.82,7.14-6.28,7.13l-39.08-0.08
		c-3.46,0-6.27-3.21-6.25-7.16l0.15-95.92C891.97,125.91,894.77,122.71,898.23,122.71z"/>
	<path class="st0" d="M910.52,130.68l13.4,0.02c0.33,0,0.6,0.27,0.6,0.6l0,0c0,0.33-0.27,0.6-0.6,0.6l-13.4-0.02
		c-0.33,0-0.6-0.27-0.6-0.6l0,0C909.92,130.94,910.19,130.68,910.52,130.68z"/>
	<circle class="st1" cx="917.73" cy="221.67" r="4.53"/>
</g>
<g>
	<path d="M965.23,122.71l39.08,0.08c3.46,0,6.27,3.21,6.25,7.16l-0.15,95.92c0,3.95-2.82,7.14-6.28,7.13l-39.08-0.08
		c-3.46,0-6.27-3.21-6.25-7.16l0.15-95.92C958.97,125.91,961.77,122.71,965.23,122.71z"/>
	<path class="st0" d="M977.52,130.68l13.4,0.02c0.33,0,0.6,0.27,0.6,0.6l0,0c0,0.33-0.27,0.6-0.6,0.6l-13.4-0.02
		c-0.33,0-0.6-0.27-0.6-0.6l0,0C976.92,130.94,977.19,130.68,977.52,130.68z"/>
	<circle class="st1" cx="984.73" cy="221.67" r="4.53"/>
</g>
<g>
	<path d="M1032.23,122.71l39.08,0.08c3.46,0,6.27,3.21,6.25,7.16l-0.15,95.92c0,3.95-2.82,7.14-6.28,7.13l-39.08-0.08
		c-3.46,0-6.27-3.21-6.25-7.16l0.15-95.92C1025.97,125.91,1028.77,122.71,1032.23,122.71z"/>
	<path class="st0" d="M1044.52,130.68l13.4,0.02c0.33,0,0.6,0.27,0.6,0.6l0,0c0,0.33-0.27,0.6-0.6,0.6l-13.4-0.02
		c-0.33,0-0.6-0.27-0.6-0.6l0,0C1043.92,130.94,1044.19,130.68,1044.52,130.68z"/>
	<circle class="st1" cx="1051.73" cy="221.67" r="4.53"/>
</g>
<g>
	<path d="M1099.23,122.71l39.08,0.08c3.46,0,6.27,3.21,6.25,7.16l-0.15,95.92c0,3.95-2.82,7.14-6.28,7.13l-39.08-0.08
		c-3.46,0-6.27-3.21-6.25-7.16l0.15-95.92C1092.97,125.91,1095.77,122.71,1099.23,122.71z"/>
	<path class="st0" d="M1111.52,130.68l13.4,0.02c0.33,0,0.6,0.27,0.6,0.6l0,0c0,0.33-0.27,0.6-0.6,0.6l-13.4-0.02
		c-0.33,0-0.6-0.27-0.6-0.6l0,0C1110.92,130.94,1111.19,130.68,1111.52,130.68z"/>
	<circle class="st1" cx="1118.73" cy="221.67" r="4.53"/>
</g>
<g>
	<path d="M1166.23,122.71l39.08,0.08c3.46,0,6.27,3.21,6.25,7.16l-0.15,95.92c0,3.95-2.82,7.14-6.28,7.13l-39.08-0.08
		c-3.46,0-6.27-3.21-6.25-7.16l0.15-95.92C1159.97,125.91,1162.77,122.71,1166.23,122.71z"/>
	<path class="st0" d="M1178.52,130.68l13.4,0.02c0.33,0,0.6,0.27,0.6,0.6l0,0c0,0.33-0.27,0.6-0.6,0.6l-13.4-0.02
		c-0.33,0-0.6-0.27-0.6-0.6l0,0C1177.92,130.94,1178.19,130.68,1178.52,130.68z"/>
	<circle class="st1" cx="1185.73" cy="221.67" r="4.53"/>
</g>
<g>
	<path d="M1233.23,122.71l39.08,0.08c3.46,0,6.27,3.21,6.25,7.16l-0.15,95.92c0,3.95-2.82,7.14-6.28,7.13l-39.08-0.08
		c-3.46,0-6.27-3.21-6.25-7.16l0.15-95.92C1226.97,125.91,1229.77,122.71,1233.23,122.71z"/>
	<path class="st0" d="M1245.52,130.68l13.4,0.02c0.33,0,0.6,0.27,0.6,0.6l0,0c0,0.33-0.27,0.6-0.6,0.6l-13.4-0.02
		c-0.33,0-0.6-0.27-0.6-0.6l0,0C1244.92,130.94,1245.19,130.68,1245.52,130.68z"/>
	<circle class="st1" cx="1252.73" cy="221.67" r="4.53"/>
</g>
<g>
	<path d="M1300.23,122.71l39.08,0.08c3.46,0,6.27,3.21,6.25,7.16l-0.15,95.92c0,3.95-2.82,7.14-6.28,7.13l-39.08-0.08
		c-3.46,0-6.27-3.21-6.25-7.16l0.15-95.92C1293.97,125.91,1296.77,122.71,1300.23,122.71z"/>
	<path class="st0" d="M1312.52,130.68l13.4,0.02c0.33,0,0.6,0.27,0.6,0.6l0,0c0,0.33-0.27,0.6-0.6,0.6l-13.4-0.02
		c-0.33,0-0.6-0.27-0.6-0.6l0,0C1311.92,130.94,1312.19,130.68,1312.52,130.68z"/>
	<circle class="st1" cx="1319.73" cy="221.67" r="4.53"/>
</g>
<g>
	<path d="M27.23,242.71l39.08,0.08c3.46,0,6.27,3.21,6.25,7.16l-0.15,95.92c0,3.95-2.82,7.14-6.28,7.13l-39.08-0.08
		c-3.46,0-6.27-3.21-6.25-7.16l0.15-95.92C20.97,245.91,23.77,242.71,27.23,242.71z"/>
	<path class="st0" d="M39.52,250.68l13.4,0.02c0.33,0,0.6,0.27,0.6,0.6l0,0c0,0.33-0.27,0.6-0.6,0.6l-13.4-0.02
		c-0.33,0-0.6-0.27-0.6-0.6l0,0C38.92,250.94,39.19,250.68,39.52,250.68z"/>
	<circle class="st1" cx="46.73" cy="341.67" r="4.53"/>
</g>
<g>
	<path d="M94.23,242.71l39.08,0.08c3.46,0,6.27,3.21,6.25,7.16l-0.15,95.92c0,3.95-2.82,7.14-6.28,7.13l-39.08-0.08
		c-3.46,0-6.27-3.21-6.25-7.16l0.15-95.92C87.97,245.91,90.77,242.71,94.23,242.71z"/>
	<path class="st0" d="M106.52,250.68l13.4,0.02c0.33,0,0.6,0.27,0.6,0.6l0,0c0,0.33-0.27,0.6-0.6,0.6l-13.4-0.02
		c-0.33,0-0.6-0.27-0.6-0.6l0,0C105.92,250.94,106.19,250.68,106.52,250.68z"/>
	<circle class="st1" cx="113.73" cy="341.67" r="4.53"/>
</g>
<g>
	<path d="M161.23,242.71l39.08,0.08c3.46,0,6.27,3.21,6.25,7.16l-0.15,95.92c0,3.95-2.82,7.14-6.28,7.13l-39.08-0.08
		c-3.46,0-6.27-3.21-6.25-7.16l0.15-95.92C154.97,245.91,157.77,242.71,161.23,242.71z"/>
	<path class="st0" d="M173.52,250.68l13.4,0.02c0.33,0,0.6,0.27,0.6,0.6l0,0c0,0.33-0.27,0.6-0.6,0.6l-13.4-0.02
		c-0.33,0-0.6-0.27-0.6-0.6l0,0C172.92,250.94,173.19,250.68,173.52,250.68z"/>
	<circle class="st1" cx="180.73" cy="341.67" r="4.53"/>
</g>
<g>
	<path d="M228.23,242.71l39.08,0.08c3.46,0,6.27,3.21,6.25,7.16l-0.15,95.92c0,3.95-2.82,7.14-6.28,7.13l-39.08-0.08
		c-3.46,0-6.27-3.21-6.25-7.16l0.15-95.92C221.97,245.91,224.77,242.71,228.23,242.71z"/>
	<path class="st0" d="M240.52,250.68l13.4,0.02c0.33,0,0.6,0.27,0.6,0.6l0,0c0,0.33-0.27,0.6-0.6,0.6l-13.4-0.02
		c-0.33,0-0.6-0.27-0.6-0.6l0,0C239.92,250.94,240.19,250.68,240.52,250.68z"/>
	<circle class="st1" cx="247.73" cy="341.67" r="4.53"/>
</g>
<g>
	<path d="M295.23,242.71l39.08,0.08c3.46,0,6.27,3.21,6.25,7.16l-0.15,95.92c0,3.95-2.82,7.14-6.28,7.13l-39.08-0.08
		c-3.46,0-6.27-3.21-6.25-7.16l0.15-95.92C288.97,245.91,291.77,242.71,295.23,242.71z"/>
	<path class="st0" d="M307.52,250.68l13.4,0.02c0.33,0,0.6,0.27,0.6,0.6l0,0c0,0.33-0.27,0.6-0.6,0.6l-13.4-0.02
		c-0.33,0-0.6-0.27-0.6-0.6l0,0C306.92,250.94,307.19,250.68,307.52,250.68z"/>
	<circle class="st1" cx="314.73" cy="341.67" r="4.53"/>
</g>
<g>
	<path d="M362.23,242.71l39.08,0.08c3.46,0,6.27,3.21,6.25,7.16l-0.15,95.92c0,3.95-2.82,7.14-6.28,7.13l-39.08-0.08
		c-3.46,0-6.27-3.21-6.25-7.16l0.15-95.92C355.97,245.91,358.77,242.71,362.23,242.71z"/>
	<path class="st0" d="M374.52,250.68l13.4,0.02c0.33,0,0.6,0.27,0.6,0.6l0,0c0,0.33-0.27,0.6-0.6,0.6l-13.4-0.02
		c-0.33,0-0.6-0.27-0.6-0.6l0,0C373.92,250.94,374.19,250.68,374.52,250.68z"/>
	<circle class="st1" cx="381.73" cy="341.67" r="4.53"/>
</g>
<g>
	<path d="M429.23,242.71l39.08,0.08c3.46,0,6.27,3.21,6.25,7.16l-0.15,95.92c0,3.95-2.82,7.14-6.28,7.13l-39.08-0.08
		c-3.46,0-6.27-3.21-6.25-7.16l0.15-95.92C422.97,245.91,425.77,242.71,429.23,242.71z"/>
	<path class="st0" d="M441.52,250.68l13.4,0.02c0.33,0,0.6,0.27,0.6,0.6l0,0c0,0.33-0.27,0.6-0.6,0.6l-13.4-0.02
		c-0.33,0-0.6-0.27-0.6-0.6l0,0C440.92,250.94,441.19,250.68,441.52,250.68z"/>
	<circle class="st1" cx="448.73" cy="341.67" r="4.53"/>
</g>
<g>
	<path d="M496.23,242.71l39.08,0.08c3.46,0,6.27,3.21,6.25,7.16l-0.15,95.92c0,3.95-2.82,7.14-6.28,7.13l-39.08-0.08
		c-3.46,0-6.27-3.21-6.25-7.16l0.15-95.92C489.97,245.91,492.77,242.71,496.23,242.71z"/>
	<path class="st0" d="M508.52,250.68l13.4,0.02c0.33,0,0.6,0.27,0.6,0.6l0,0c0,0.33-0.27,0.6-0.6,0.6l-13.4-0.02
		c-0.33,0-0.6-0.27-0.6-0.6l0,0C507.92,250.94,508.19,250.68,508.52,250.68z"/>
	<circle class="st1" cx="515.73" cy="341.67" r="4.53"/>
</g>
<g>
	<path d="M563.23,242.71l39.08,0.08c3.46,0,6.27,3.21,6.25,7.16l-0.15,95.92c0,3.95-2.82,7.14-6.28,7.13l-39.08-0.08
		c-3.46,0-6.27-3.21-6.25-7.16l0.15-95.92C556.97,245.91,559.77,242.71,563.23,242.71z"/>
	<path class="st0" d="M575.52,250.68l13.4,0.02c0.33,0,0.6,0.27,0.6,0.6l0,0c0,0.33-0.27,0.6-0.6,0.6l-13.4-0.02
		c-0.33,0-0.6-0.27-0.6-0.6l0,0C574.92,250.94,575.19,250.68,575.52,250.68z"/>
	<circle class="st1" cx="582.73" cy="341.67" r="4.53"/>
</g>
<g>
	<path d="M630.23,242.71l39.08,0.08c3.46,0,6.27,3.21,6.25,7.16l-0.15,95.92c0,3.95-2.82,7.14-6.28,7.13l-39.08-0.08
		c-3.46,0-6.27-3.21-6.25-7.16l0.15-95.92C623.97,245.91,626.77,242.71,630.23,242.71z"/>
	<path class="st0" d="M642.52,250.68l13.4,0.02c0.33,0,0.6,0.27,0.6,0.6l0,0c0,0.33-0.27,0.6-0.6,0.6l-13.4-0.02
		c-0.33,0-0.6-0.27-0.6-0.6l0,0C641.92,250.94,642.19,250.68,642.52,250.68z"/>
	<circle class="st1" cx="649.73" cy="341.67" r="4.53"/>
</g>
<g>
	<path d="M697.23,242.71l39.08,0.08c3.46,0,6.27,3.21,6.25,7.16l-0.15,95.92c0,3.95-2.82,7.14-6.28,7.13l-39.08-0.08
		c-3.46,0-6.27-3.21-6.25-7.16l0.15-95.92C690.97,245.91,693.77,242.71,697.23,242.71z"/>
	<path class="st0" d="M709.52,250.68l13.4,0.02c0.33,0,0.6,0.27,0.6,0.6l0,0c0,0.33-0.27,0.6-0.6,0.6l-13.4-0.02
		c-0.33,0-0.6-0.27-0.6-0.6l0,0C708.92,250.94,709.19,250.68,709.52,250.68z"/>
	<circle class="st1" cx="716.73" cy="341.67" r="4.53"/>
</g>
<g>
	<path d="M764.23,242.71l39.08,0.08c3.46,0,6.27,3.21,6.25,7.16l-0.15,95.92c0,3.95-2.82,7.14-6.28,7.13l-39.08-0.08
		c-3.46,0-6.27-3.21-6.25-7.16l0.15-95.92C757.97,245.91,760.77,242.71,764.23,242.71z"/>
	<path class="st0" d="M776.52,250.68l13.4,0.02c0.33,0,0.6,0.27,0.6,0.6l0,0c0,0.33-0.27,0.6-0.6,0.6l-13.4-0.02
		c-0.33,0-0.6-0.27-0.6-0.6l0,0C775.92,250.94,776.19,250.68,776.52,250.68z"/>
	<circle class="st1" cx="783.73" cy="341.67" r="4.53"/>
</g>
<g>
	<path d="M831.23,242.71l39.08,0.08c3.46,0,6.27,3.21,6.25,7.16l-0.15,95.92c0,3.95-2.82,7.14-6.28,7.13l-39.08-0.08
		c-3.46,0-6.27-3.21-6.25-7.16l0.15-95.92C824.97,245.91,827.77,242.71,831.23,242.71z"/>
	<path class="st0" d="M843.52,250.68l13.4,0.02c0.33,0,0.6,0.27,0.6,0.6l0,0c0,0.33-0.27,0.6-0.6,0.6l-13.4-0.02
		c-0.33,0-0.6-0.27-0.6-0.6l0,0C842.92,250.94,843.19,250.68,843.52,250.68z"/>
	<circle class="st1" cx="850.73" cy="341.67" r="4.53"/>
</g>
<g>
	<path d="M898.23,242.71l39.08,0.08c3.46,0,6.27,3.21,6.25,7.16l-0.15,95.92c0,3.95-2.82,7.14-6.28,7.13l-39.08-0.08
		c-3.46,0-6.27-3.21-6.25-7.16l0.15-95.92C891.97,245.91,894.77,242.71,898.23,242.71z"/>
	<path class="st0" d="M910.52,250.68l13.4,0.02c0.33,0,0.6,0.27,0.6,0.6l0,0c0,0.33-0.27,0.6-0.6,0.6l-13.4-0.02
		c-0.33,0-0.6-0.27-0.6-0.6l0,0C909.92,250.94,910.19,250.68,910.52,250.68z"/>
	<circle class="st1" cx="917.73" cy="341.67" r="4.53"/>
</g>
<g>
	<path d="M965.23,242.71l39.08,0.08c3.46,0,6.27,3.21,6.25,7.16l-0.15,95.92c0,3.95-2.82,7.14-6.28,7.13l-39.08-0.08
		c-3.46,0-6.27-3.21-6.25-7.16l0.15-95.92C958.97,245.91,961.77,242.71,965.23,242.71z"/>
	<path class="st0" d="M977.52,250.68l13.4,0.02c0.33,0,0.6,0.27,0.6,0.6l0,0c0,0.33-0.27,0.6-0.6,0.6l-13.4-0.02
		c-0.33,0-0.6-0.27-0.6-0.6l0,0C976.92,250.94,977.19,250.68,977.52,250.68z"/>
	<circle class="st1" cx="984.73" cy="341.67" r="4.53"/>
</g>
<g>
	<path d="M1032.23,242.71l39.08,0.08c3.46,0,6.27,3.21,6.25,7.16l-0.15,95.92c0,3.95-2.82,7.14-6.28,7.13l-39.08-0.08
		c-3.46,0-6.27-3.21-6.25-7.16l0.15-95.92C1025.97,245.91,1028.77,242.71,1032.23,242.71z"/>
	<path class="st0" d="M1044.52,250.68l13.4,0.02c0.33,0,0.6,0.27,0.6,0.6l0,0c0,0.33-0.27,0.6-0.6,0.6l-13.4-0.02
		c-0.33,0-0.6-0.27-0.6-0.6l0,0C1043.92,250.94,1044.19,250.68,1044.52,250.68z"/>
	<circle class="st1" cx="1051.73" cy="341.67" r="4.53"/>
</g>
<g>
	<path d="M1099.23,242.71l39.08,0.08c3.46,0,6.27,3.21,6.25,7.16l-0.15,95.92c0,3.95-2.82,7.14-6.28,7.13l-39.08-0.08
		c-3.46,0-6.27-3.21-6.25-7.16l0.15-95.92C1092.97,245.91,1095.77,242.71,1099.23,242.71z"/>
	<path class="st0" d="M1111.52,250.68l13.4,0.02c0.33,0,0.6,0.27,0.6,0.6l0,0c0,0.33-0.27,0.6-0.6,0.6l-13.4-0.02
		c-0.33,0-0.6-0.27-0.6-0.6l0,0C1110.92,250.94,1111.19,250.68,1111.52,250.68z"/>
	<circle class="st1" cx="1118.73" cy="341.67" r="4.53"/>
</g>
<g>
	<path d="M1166.23,242.71l39.08,0.08c3.46,0,6.27,3.21,6.25,7.16l-0.15,95.92c0,3.95-2.82,7.14-6.28,7.13l-39.08-0.08
		c-3.46,0-6.27-3.21-6.25-7.16l0.15-95.92C1159.97,245.91,1162.77,242.71,1166.23,242.71z"/>
	<path class="st0" d="M1178.52,250.68l13.4,0.02c0.33,0,0.6,0.27,0.6,0.6l0,0c0,0.33-0.27,0.6-0.6,0.6l-13.4-0.02
		c-0.33,0-0.6-0.27-0.6-0.6l0,0C1177.92,250.94,1178.19,250.68,1178.52,250.68z"/>
	<circle class="st1" cx="1185.73" cy="341.67" r="4.53"/>
</g>
<g>
	<path d="M1233.23,242.71l39.08,0.08c3.46,0,6.27,3.21,6.25,7.16l-0.15,95.92c0,3.95-2.82,7.14-6.28,7.13l-39.08-0.08
		c-3.46,0-6.27-3.21-6.25-7.16l0.15-95.92C1226.97,245.91,1229.77,242.71,1233.23,242.71z"/>
	<path class="st0" d="M1245.52,250.68l13.4,0.02c0.33,0,0.6,0.27,0.6,0.6l0,0c0,0.33-0.27,0.6-0.6,0.6l-13.4-0.02
		c-0.33,0-0.6-0.27-0.6-0.6l0,0C1244.92,250.94,1245.19,250.68,1245.52,250.68z"/>
	<circle class="st1" cx="1252.73" cy="341.67" r="4.53"/>
</g>
<g>
	<path d="M1300.23,242.71l39.08,0.08c3.46,0,6.27,3.21,6.25,7.16l-0.15,95.92c0,3.95-2.82,7.14-6.28,7.13l-39.08-0.08
		c-3.46,0-6.27-3.21-6.25-7.16l0.15-95.92C1293.97,245.91,1296.77,242.71,1300.23,242.71z"/>
	<path class="st0" d="M1312.52,250.68l13.4,0.02c0.33,0,0.6,0.27,0.6,0.6l0,0c0,0.33-0.27,0.6-0.6,0.6l-13.4-0.02
		c-0.33,0-0.6-0.27-0.6-0.6l0,0C1311.92,250.94,1312.19,250.68,1312.52,250.68z"/>
	<circle class="st1" cx="1319.73" cy="341.67" r="4.53"/>
</g>
<g>
	<path d="M27.23,362.71l39.08,0.08c3.46,0,6.27,3.21,6.25,7.16l-0.15,95.92c0,3.95-2.82,7.14-6.28,7.13l-39.08-0.08
		c-3.46,0-6.27-3.21-6.25-7.16l0.15-95.92C20.97,365.91,23.77,362.71,27.23,362.71z"/>
	<path class="st0" d="M39.52,370.68l13.4,0.02c0.33,0,0.6,0.27,0.6,0.6l0,0c0,0.33-0.27,0.6-0.6,0.6l-13.4-0.02
		c-0.33,0-0.6-0.27-0.6-0.6l0,0C38.92,370.94,39.19,370.68,39.52,370.68z"/>
	<circle class="st1" cx="46.73" cy="461.67" r="4.53"/>
</g>
<g>
	<path d="M94.23,362.71l39.08,0.08c3.46,0,6.27,3.21,6.25,7.16l-0.15,95.92c0,3.95-2.82,7.14-6.28,7.13l-39.08-0.08
		c-3.46,0-6.27-3.21-6.25-7.16l0.15-95.92C87.97,365.91,90.77,362.71,94.23,362.71z"/>
	<path class="st0" d="M106.52,370.68l13.4,0.02c0.33,0,0.6,0.27,0.6,0.6l0,0c0,0.33-0.27,0.6-0.6,0.6l-13.4-0.02
		c-0.33,0-0.6-0.27-0.6-0.6l0,0C105.92,370.94,106.19,370.68,106.52,370.68z"/>
	<circle class="st1" cx="113.73" cy="461.67" r="4.53"/>
</g>
<g>
	<path d="M161.23,362.71l39.08,0.08c3.46,0,6.27,3.21,6.25,7.16l-0.15,95.92c0,3.95-2.82,7.14-6.28,7.13l-39.08-0.08
		c-3.46,0-6.27-3.21-6.25-7.16l0.15-95.92C154.97,365.91,157.77,362.71,161.23,362.71z"/>
	<path class="st0" d="M173.52,370.68l13.4,0.02c0.33,0,0.6,0.27,0.6,0.6l0,0c0,0.33-0.27,0.6-0.6,0.6l-13.4-0.02
		c-0.33,0-0.6-0.27-0.6-0.6l0,0C172.92,370.94,173.19,370.68,173.52,370.68z"/>
	<circle class="st1" cx="180.73" cy="461.67" r="4.53"/>
</g>
<g>
	<path d="M228.23,362.71l39.08,0.08c3.46,0,6.27,3.21,6.25,7.16l-0.15,95.92c0,3.95-2.82,7.14-6.28,7.13l-39.08-0.08
		c-3.46,0-6.27-3.21-6.25-7.16l0.15-95.92C221.97,365.91,224.77,362.71,228.23,362.71z"/>
	<path class="st0" d="M240.52,370.68l13.4,0.02c0.33,0,0.6,0.27,0.6,0.6l0,0c0,0.33-0.27,0.6-0.6,0.6l-13.4-0.02
		c-0.33,0-0.6-0.27-0.6-0.6l0,0C239.92,370.94,240.19,370.68,240.52,370.68z"/>
	<circle class="st1" cx="247.73" cy="461.67" r="4.53"/>
</g>
<g>
	<path d="M295.23,362.71l39.08,0.08c3.46,0,6.27,3.21,6.25,7.16l-0.15,95.92c0,3.95-2.82,7.14-6.28,7.13l-39.08-0.08
		c-3.46,0-6.27-3.21-6.25-7.16l0.15-95.92C288.97,365.91,291.77,362.71,295.23,362.71z"/>
	<path class="st0" d="M307.52,370.68l13.4,0.02c0.33,0,0.6,0.27,0.6,0.6l0,0c0,0.33-0.27,0.6-0.6,0.6l-13.4-0.02
		c-0.33,0-0.6-0.27-0.6-0.6l0,0C306.92,370.94,307.19,370.68,307.52,370.68z"/>
	<circle class="st1" cx="314.73" cy="461.67" r="4.53"/>
</g>
<g>
	<path d="M362.23,362.71l39.08,0.08c3.46,0,6.27,3.21,6.25,7.16l-0.15,95.92c0,3.95-2.82,7.14-6.28,7.13l-39.08-0.08
		c-3.46,0-6.27-3.21-6.25-7.16l0.15-95.92C355.97,365.91,358.77,362.71,362.23,362.71z"/>
	<path class="st0" d="M374.52,370.68l13.4,0.02c0.33,0,0.6,0.27,0.6,0.6l0,0c0,0.33-0.27,0.6-0.6,0.6l-13.4-0.02
		c-0.33,0-0.6-0.27-0.6-0.6l0,0C373.92,370.94,374.19,370.68,374.52,370.68z"/>
	<circle class="st1" cx="381.73" cy="461.67" r="4.53"/>
</g>
<g>
	<path d="M429.23,362.71l39.08,0.08c3.46,0,6.27,3.21,6.25,7.16l-0.15,95.92c0,3.95-2.82,7.14-6.28,7.13l-39.08-0.08
		c-3.46,0-6.27-3.21-6.25-7.16l0.15-95.92C422.97,365.91,425.77,362.71,429.23,362.71z"/>
	<path class="st0" d="M441.52,370.68l13.4,0.02c0.33,0,0.6,0.27,0.6,0.6l0,0c0,0.33-0.27,0.6-0.6,0.6l-13.4-0.02
		c-0.33,0-0.6-0.27-0.6-0.6l0,0C440.92,370.94,441.19,370.68,441.52,370.68z"/>
	<circle class="st1" cx="448.73" cy="461.67" r="4.53"/>
</g>
<g>
	<path d="M496.23,362.71l39.08,0.08c3.46,0,6.27,3.21,6.25,7.16l-0.15,95.92c0,3.95-2.82,7.14-6.28,7.13l-39.08-0.08
		c-3.46,0-6.27-3.21-6.25-7.16l0.15-95.92C489.97,365.91,492.77,362.71,496.23,362.71z"/>
	<path class="st0" d="M508.52,370.68l13.4,0.02c0.33,0,0.6,0.27,0.6,0.6l0,0c0,0.33-0.27,0.6-0.6,0.6l-13.4-0.02
		c-0.33,0-0.6-0.27-0.6-0.6l0,0C507.92,370.94,508.19,370.68,508.52,370.68z"/>
	<circle class="st1" cx="515.73" cy="461.67" r="4.53"/>
</g>
<g>
	<path d="M563.23,362.71l39.08,0.08c3.46,0,6.27,3.21,6.25,7.16l-0.15,95.92c0,3.95-2.82,7.14-6.28,7.13l-39.08-0.08
		c-3.46,0-6.27-3.21-6.25-7.16l0.15-95.92C556.97,365.91,559.77,362.71,563.23,362.71z"/>
	<path class="st0" d="M575.52,370.68l13.4,0.02c0.33,0,0.6,0.27,0.6,0.6l0,0c0,0.33-0.27,0.6-0.6,0.6l-13.4-0.02
		c-0.33,0-0.6-0.27-0.6-0.6l0,0C574.92,370.94,575.19,370.68,575.52,370.68z"/>
	<circle class="st1" cx="582.73" cy="461.67" r="4.53"/>
</g>
<g>
	<path d="M630.23,362.71l39.08,0.08c3.46,0,6.27,3.21,6.25,7.16l-0.15,95.92c0,3.95-2.82,7.14-6.28,7.13l-39.08-0.08
		c-3.46,0-6.27-3.21-6.25-7.16l0.15-95.92C623.97,365.91,626.77,362.71,630.23,362.71z"/>
	<path class="st0" d="M642.52,370.68l13.4,0.02c0.33,0,0.6,0.27,0.6,0.6l0,0c0,0.33-0.27,0.6-0.6,0.6l-13.4-0.02
		c-0.33,0-0.6-0.27-0.6-0.6l0,0C641.92,370.94,642.19,370.68,642.52,370.68z"/>
	<circle class="st1" cx="649.73" cy="461.67" r="4.53"/>
</g>
<g>
	<path d="M697.23,362.71l39.08,0.08c3.46,0,6.27,3.21,6.25,7.16l-0.15,95.92c0,3.95-2.82,7.14-6.28,7.13l-39.08-0.08
		c-3.46,0-6.27-3.21-6.25-7.16l0.15-95.92C690.97,365.91,693.77,362.71,697.23,362.71z"/>
	<path class="st0" d="M709.52,370.68l13.4,0.02c0.33,0,0.6,0.27,0.6,0.6l0,0c0,0.33-0.27,0.6-0.6,0.6l-13.4-0.02
		c-0.33,0-0.6-0.27-0.6-0.6l0,0C708.92,370.94,709.19,370.68,709.52,370.68z"/>
	<circle class="st1" cx="716.73" cy="461.67" r="4.53"/>
</g>
<g>
	<path d="M764.23,362.71l39.08,0.08c3.46,0,6.27,3.21,6.25,7.16l-0.15,95.92c0,3.95-2.82,7.14-6.28,7.13l-39.08-0.08
		c-3.46,0-6.27-3.21-6.25-7.16l0.15-95.92C757.97,365.91,760.77,362.71,764.23,362.71z"/>
	<path class="st0" d="M776.52,370.68l13.4,0.02c0.33,0,0.6,0.27,0.6,0.6l0,0c0,0.33-0.27,0.6-0.6,0.6l-13.4-0.02
		c-0.33,0-0.6-0.27-0.6-0.6l0,0C775.92,370.94,776.19,370.68,776.52,370.68z"/>
	<circle class="st1" cx="783.73" cy="461.67" r="4.53"/>
</g>
<g>
	<path d="M831.23,362.71l39.08,0.08c3.46,0,6.27,3.21,6.25,7.16l-0.15,95.92c0,3.95-2.82,7.14-6.28,7.13l-39.08-0.08
		c-3.46,0-6.27-3.21-6.25-7.16l0.15-95.92C824.97,365.91,827.77,362.71,831.23,362.71z"/>
	<path class="st0" d="M843.52,370.68l13.4,0.02c0.33,0,0.6,0.27,0.6,0.6l0,0c0,0.33-0.27,0.6-0.6,0.6l-13.4-0.02
		c-0.33,0-0.6-0.27-0.6-0.6l0,0C842.92,370.94,843.19,370.68,843.52,370.68z"/>
	<circle class="st1" cx="850.73" cy="461.67" r="4.53"/>
</g>
<g>
	<path d="M898.23,362.71l39.08,0.08c3.46,0,6.27,3.21,6.25,7.16l-0.15,95.92c0,3.95-2.82,7.14-6.28,7.13l-39.08-0.08
		c-3.46,0-6.27-3.21-6.25-7.16l0.15-95.92C891.97,365.91,894.77,362.71,898.23,362.71z"/>
	<path class="st0" d="M910.52,370.68l13.4,0.02c0.33,0,0.6,0.27,0.6,0.6l0,0c0,0.33-0.27,0.6-0.6,0.6l-13.4-0.02
		c-0.33,0-0.6-0.27-0.6-0.6l0,0C909.92,370.94,910.19,370.68,910.52,370.68z"/>
	<circle class="st1" cx="917.73" cy="461.67" r="4.53"/>
</g>
<g>
	<path d="M965.23,362.71l39.08,0.08c3.46,0,6.27,3.21,6.25,7.16l-0.15,95.92c0,3.95-2.82,7.14-6.28,7.13l-39.08-0.08
		c-3.46,0-6.27-3.21-6.25-7.16l0.15-95.92C958.97,365.91,961.77,362.71,965.23,362.71z"/>
	<path class="st0" d="M977.52,370.68l13.4,0.02c0.33,0,0.6,0.27,0.6,0.6l0,0c0,0.33-0.27,0.6-0.6,0.6l-13.4-0.02
		c-0.33,0-0.6-0.27-0.6-0.6l0,0C976.92,370.94,977.19,370.68,977.52,370.68z"/>
	<circle class="st1" cx="984.73" cy="461.67" r="4.53"/>
</g>
<g>
	<path d="M1032.23,362.71l39.08,0.08c3.46,0,6.27,3.21,6.25,7.16l-0.15,95.92c0,3.95-2.82,7.14-6.28,7.13l-39.08-0.08
		c-3.46,0-6.27-3.21-6.25-7.16l0.15-95.92C1025.97,365.91,1028.77,362.71,1032.23,362.71z"/>
	<path class="st0" d="M1044.52,370.68l13.4,0.02c0.33,0,0.6,0.27,0.6,0.6l0,0c0,0.33-0.27,0.6-0.6,0.6l-13.4-0.02
		c-0.33,0-0.6-0.27-0.6-0.6l0,0C1043.92,370.94,1044.19,370.68,1044.52,370.68z"/>
	<circle class="st1" cx="1051.73" cy="461.67" r="4.53"/>
</g>
<g>
	<path d="M1099.23,362.71l39.08,0.08c3.46,0,6.27,3.21,6.25,7.16l-0.15,95.92c0,3.95-2.82,7.14-6.28,7.13l-39.08-0.08
		c-3.46,0-6.27-3.21-6.25-7.16l0.15-95.92C1092.97,365.91,1095.77,362.71,1099.23,362.71z"/>
	<path class="st0" d="M1111.52,370.68l13.4,0.02c0.33,0,0.6,0.27,0.6,0.6l0,0c0,0.33-0.27,0.6-0.6,0.6l-13.4-0.02
		c-0.33,0-0.6-0.27-0.6-0.6l0,0C1110.92,370.94,1111.19,370.68,1111.52,370.68z"/>
	<circle class="st1" cx="1118.73" cy="461.67" r="4.53"/>
</g>
<g>
	<path d="M1166.23,362.71l39.08,0.08c3.46,0,6.27,3.21,6.25,7.16l-0.15,95.92c0,3.95-2.82,7.14-6.28,7.13l-39.08-0.08
		c-3.46,0-6.27-3.21-6.25-7.16l0.15-95.92C1159.97,365.91,1162.77,362.71,1166.23,362.71z"/>
	<path class="st0" d="M1178.52,370.68l13.4,0.02c0.33,0,0.6,0.27,0.6,0.6l0,0c0,0.33-0.27,0.6-0.6,0.6l-13.4-0.02
		c-0.33,0-0.6-0.27-0.6-0.6l0,0C1177.92,370.94,1178.19,370.68,1178.52,370.68z"/>
	<circle class="st1" cx="1185.73" cy="461.67" r="4.53"/>
</g>
<g>
	<path d="M1233.23,362.71l39.08,0.08c3.46,0,6.27,3.21,6.25,7.16l-0.15,95.92c0,3.95-2.82,7.14-6.28,7.13l-39.08-0.08
		c-3.46,0-6.27-3.21-6.25-7.16l0.15-95.92C1226.97,365.91,1229.77,362.71,1233.23,362.71z"/>
	<path class="st0" d="M1245.52,370.68l13.4,0.02c0.33,0,0.6,0.27,0.6,0.6l0,0c0,0.33-0.27,0.6-0.6,0.6l-13.4-0.02
		c-0.33,0-0.6-0.27-0.6-0.6l0,0C1244.92,370.94,1245.19,370.68,1245.52,370.68z"/>
	<circle class="st1" cx="1252.73" cy="461.67" r="4.53"/>
</g>
<g>
	<path d="M1300.23,362.71l39.08,0.08c3.46,0,6.27,3.21,6.25,7.16l-0.15,95.92c0,3.95-2.82,7.14-6.28,7.13l-39.08-0.08
		c-3.46,0-6.27-3.21-6.25-7.16l0.15-95.92C1293.97,365.91,1296.77,362.71,1300.23,362.71z"/>
	<path class="st0" d="M1312.52,370.68l13.4,0.02c0.33,0,0.6,0.27,0.6,0.6l0,0c0,0.33-0.27,0.6-0.6,0.6l-13.4-0.02
		c-0.33,0-0.6-0.27-0.6-0.6l0,0C1311.92,370.94,1312.19,370.68,1312.52,370.68z"/>
	<circle class="st1" cx="1319.73" cy="461.67" r="4.53"/>
</g>
<g>
	<path d="M27.23,482.71l39.08,0.08c3.46,0,6.27,3.21,6.25,7.16l-0.15,95.92c0,3.95-2.82,7.14-6.28,7.13l-39.08-0.08
		c-3.46,0-6.27-3.21-6.25-7.16l0.15-95.92C20.97,485.91,23.77,482.71,27.23,482.71z"/>
	<path class="st0" d="M39.52,490.68l13.4,0.02c0.33,0,0.6,0.27,0.6,0.6l0,0c0,0.33-0.27,0.6-0.6,0.6l-13.4-0.02
		c-0.33,0-0.6-0.27-0.6-0.6l0,0C38.92,490.94,39.19,490.68,39.52,490.68z"/>
	<circle class="st1" cx="46.73" cy="581.67" r="4.53"/>
</g>
<g>
	<path d="M94.23,482.71l39.08,0.08c3.46,0,6.27,3.21,6.25,7.16l-0.15,95.92c0,3.95-2.82,7.14-6.28,7.13l-39.08-0.08
		c-3.46,0-6.27-3.21-6.25-7.16l0.15-95.92C87.97,485.91,90.77,482.71,94.23,482.71z"/>
	<path class="st0" d="M106.52,490.68l13.4,0.02c0.33,0,0.6,0.27,0.6,0.6l0,0c0,0.33-0.27,0.6-0.6,0.6l-13.4-0.02
		c-0.33,0-0.6-0.27-0.6-0.6l0,0C105.92,490.94,106.19,490.68,106.52,490.68z"/>
	<circle class="st1" cx="113.73" cy="581.67" r="4.53"/>
</g>
<g>
	<path d="M161.23,482.71l39.08,0.08c3.46,0,6.27,3.21,6.25,7.16l-0.15,95.92c0,3.95-2.82,7.14-6.28,7.13l-39.08-0.08
		c-3.46,0-6.27-3.21-6.25-7.16l0.15-95.92C154.97,485.91,157.77,482.71,161.23,482.71z"/>
	<path class="st0" d="M173.52,490.68l13.4,0.02c0.33,0,0.6,0.27,0.6,0.6l0,0c0,0.33-0.27,0.6-0.6,0.6l-13.4-0.02
		c-0.33,0-0.6-0.27-0.6-0.6l0,0C172.92,490.94,173.19,490.68,173.52,490.68z"/>
	<circle class="st1" cx="180.73" cy="581.67" r="4.53"/>
</g>
<g>
	<path d="M228.23,482.71l39.08,0.08c3.46,0,6.27,3.21,6.25,7.16l-0.15,95.92c0,3.95-2.82,7.14-6.28,7.13l-39.08-0.08
		c-3.46,0-6.27-3.21-6.25-7.16l0.15-95.92C221.97,485.91,224.77,482.71,228.23,482.71z"/>
	<path class="st0" d="M240.52,490.68l13.4,0.02c0.33,0,0.6,0.27,0.6,0.6l0,0c0,0.33-0.27,0.6-0.6,0.6l-13.4-0.02
		c-0.33,0-0.6-0.27-0.6-0.6l0,0C239.92,490.94,240.19,490.68,240.52,490.68z"/>
	<circle class="st1" cx="247.73" cy="581.67" r="4.53"/>
</g>
<g>
	<path d="M295.23,482.71l39.08,0.08c3.46,0,6.27,3.21,6.25,7.16l-0.15,95.92c0,3.95-2.82,7.14-6.28,7.13l-39.08-0.08
		c-3.46,0-6.27-3.21-6.25-7.16l0.15-95.92C288.97,485.91,291.77,482.71,295.23,482.71z"/>
	<path class="st0" d="M307.52,490.68l13.4,0.02c0.33,0,0.6,0.27,0.6,0.6l0,0c0,0.33-0.27,0.6-0.6,0.6l-13.4-0.02
		c-0.33,0-0.6-0.27-0.6-0.6l0,0C306.92,490.94,307.19,490.68,307.52,490.68z"/>
	<circle class="st1" cx="314.73" cy="581.67" r="4.53"/>
</g>
<g>
	<path d="M362.23,482.71l39.08,0.08c3.46,0,6.27,3.21,6.25,7.16l-0.15,95.92c0,3.95-2.82,7.14-6.28,7.13l-39.08-0.08
		c-3.46,0-6.27-3.21-6.25-7.16l0.15-95.92C355.97,485.91,358.77,482.71,362.23,482.71z"/>
	<path class="st0" d="M374.52,490.68l13.4,0.02c0.33,0,0.6,0.27,0.6,0.6l0,0c0,0.33-0.27,0.6-0.6,0.6l-13.4-0.02
		c-0.33,0-0.6-0.27-0.6-0.6l0,0C373.92,490.94,374.19,490.68,374.52,490.68z"/>
	<circle class="st1" cx="381.73" cy="581.67" r="4.53"/>
</g>
<g>
	<path d="M429.23,482.71l39.08,0.08c3.46,0,6.27,3.21,6.25,7.16l-0.15,95.92c0,3.95-2.82,7.14-6.28,7.13l-39.08-0.08
		c-3.46,0-6.27-3.21-6.25-7.16l0.15-95.92C422.97,485.91,425.77,482.71,429.23,482.71z"/>
	<path class="st0" d="M441.52,490.68l13.4,0.02c0.33,0,0.6,0.27,0.6,0.6l0,0c0,0.33-0.27,0.6-0.6,0.6l-13.4-0.02
		c-0.33,0-0.6-0.27-0.6-0.6l0,0C440.92,490.94,441.19,490.68,441.52,490.68z"/>
	<circle class="st1" cx="448.73" cy="581.67" r="4.53"/>
</g>
<g>
	<path d="M496.23,482.71l39.08,0.08c3.46,0,6.27,3.21,6.25,7.16l-0.15,95.92c0,3.95-2.82,7.14-6.28,7.13l-39.08-0.08
		c-3.46,0-6.27-3.21-6.25-7.16l0.15-95.92C489.97,485.91,492.77,482.71,496.23,482.71z"/>
	<path class="st0" d="M508.52,490.68l13.4,0.02c0.33,0,0.6,0.27,0.6,0.6l0,0c0,0.33-0.27,0.6-0.6,0.6l-13.4-0.02
		c-0.33,0-0.6-0.27-0.6-0.6l0,0C507.92,490.94,508.19,490.68,508.52,490.68z"/>
	<circle class="st1" cx="515.73" cy="581.67" r="4.53"/>
</g>
<g>
	<path d="M563.23,482.71l39.08,0.08c3.46,0,6.27,3.21,6.25,7.16l-0.15,95.92c0,3.95-2.82,7.14-6.28,7.13l-39.08-0.08
		c-3.46,0-6.27-3.21-6.25-7.16l0.15-95.92C556.97,485.91,559.77,482.71,563.23,482.71z"/>
	<path class="st0" d="M575.52,490.68l13.4,0.02c0.33,0,0.6,0.27,0.6,0.6l0,0c0,0.33-0.27,0.6-0.6,0.6l-13.4-0.02
		c-0.33,0-0.6-0.27-0.6-0.6l0,0C574.92,490.94,575.19,490.68,575.52,490.68z"/>
	<circle class="st1" cx="582.73" cy="581.67" r="4.53"/>
</g>
<g>
	<path d="M630.23,482.71l39.08,0.08c3.46,0,6.27,3.21,6.25,7.16l-0.15,95.92c0,3.95-2.82,7.14-6.28,7.13l-39.08-0.08
		c-3.46,0-6.27-3.21-6.25-7.16l0.15-95.92C623.97,485.91,626.77,482.71,630.23,482.71z"/>
	<path class="st0" d="M642.52,490.68l13.4,0.02c0.33,0,0.6,0.27,0.6,0.6l0,0c0,0.33-0.27,0.6-0.6,0.6l-13.4-0.02
		c-0.33,0-0.6-0.27-0.6-0.6l0,0C641.92,490.94,642.19,490.68,642.52,490.68z"/>
	<circle class="st1" cx="649.73" cy="581.67" r="4.53"/>
</g>
<g>
	<path d="M697.23,482.71l39.08,0.08c3.46,0,6.27,3.21,6.25,7.16l-0.15,95.92c0,3.95-2.82,7.14-6.28,7.13l-39.08-0.08
		c-3.46,0-6.27-3.21-6.25-7.16l0.15-95.92C690.97,485.91,693.77,482.71,697.23,482.71z"/>
	<path class="st0" d="M709.52,490.68l13.4,0.02c0.33,0,0.6,0.27,0.6,0.6l0,0c0,0.33-0.27,0.6-0.6,0.6l-13.4-0.02
		c-0.33,0-0.6-0.27-0.6-0.6l0,0C708.92,490.94,709.19,490.68,709.52,490.68z"/>
	<circle class="st1" cx="716.73" cy="581.67" r="4.53"/>
</g>
<g>
	<path d="M764.23,482.71l39.08,0.08c3.46,0,6.27,3.21,6.25,7.16l-0.15,95.92c0,3.95-2.82,7.14-6.28,7.13l-39.08-0.08
		c-3.46,0-6.27-3.21-6.25-7.16l0.15-95.92C757.97,485.91,760.77,482.71,764.23,482.71z"/>
	<path class="st0" d="M776.52,490.68l13.4,0.02c0.33,0,0.6,0.27,0.6,0.6l0,0c0,0.33-0.27,0.6-0.6,0.6l-13.4-0.02
		c-0.33,0-0.6-0.27-0.6-0.6l0,0C775.92,490.94,776.19,490.68,776.52,490.68z"/>
	<circle class="st1" cx="783.73" cy="581.67" r="4.53"/>
</g>
<g>
	<path d="M831.23,482.71l39.08,0.08c3.46,0,6.27,3.21,6.25,7.16l-0.15,95.92c0,3.95-2.82,7.14-6.28,7.13l-39.08-0.08
		c-3.46,0-6.27-3.21-6.25-7.16l0.15-95.92C824.97,485.91,827.77,482.71,831.23,482.71z"/>
	<path class="st0" d="M843.52,490.68l13.4,0.02c0.33,0,0.6,0.27,0.6,0.6l0,0c0,0.33-0.27,0.6-0.6,0.6l-13.4-0.02
		c-0.33,0-0.6-0.27-0.6-0.6l0,0C842.92,490.94,843.19,490.68,843.52,490.68z"/>
	<circle class="st1" cx="850.73" cy="581.67" r="4.53"/>
</g>
<g>
	<path d="M898.23,482.71l39.08,0.08c3.46,0,6.27,3.21,6.25,7.16l-0.15,95.92c0,3.95-2.82,7.14-6.28,7.13l-39.08-0.08
		c-3.46,0-6.27-3.21-6.25-7.16l0.15-95.92C891.97,485.91,894.77,482.71,898.23,482.71z"/>
	<path class="st0" d="M910.52,490.68l13.4,0.02c0.33,0,0.6,0.27,0.6,0.6l0,0c0,0.33-0.27,0.6-0.6,0.6l-13.4-0.02
		c-0.33,0-0.6-0.27-0.6-0.6l0,0C909.92,490.94,910.19,490.68,910.52,490.68z"/>
	<circle class="st1" cx="917.73" cy="581.67" r="4.53"/>
</g>
<g>
	<path d="M965.23,482.71l39.08,0.08c3.46,0,6.27,3.21,6.25,7.16l-0.15,95.92c0,3.95-2.82,7.14-6.28,7.13l-39.08-0.08
		c-3.46,0-6.27-3.21-6.25-7.16l0.15-95.92C958.97,485.91,961.77,482.71,965.23,482.71z"/>
	<path class="st0" d="M977.52,490.68l13.4,0.02c0.33,0,0.6,0.27,0.6,0.6l0,0c0,0.33-0.27,0.6-0.6,0.6l-13.4-0.02
		c-0.33,0-0.6-0.27-0.6-0.6l0,0C976.92,490.94,977.19,490.68,977.52,490.68z"/>
	<circle class="st1" cx="984.73" cy="581.67" r="4.53"/>
</g>
<g>
	<path d="M1032.23,482.71l39.08,0.08c3.46,0,6.27,3.21,6.25,7.16l-0.15,95.92c0,3.95-2.82,7.14-6.28,7.13l-39.08-0.08
		c-3.46,0-6.27-3.21-6.25-7.16l0.15-95.92C1025.97,485.91,1028.77,482.71,1032.23,482.71z"/>
	<path class="st0" d="M1044.52,490.68l13.4,0.02c0.33,0,0.6,0.27,0.6,0.6l0,0c0,0.33-0.27,0.6-0.6,0.6l-13.4-0.02
		c-0.33,0-0.6-0.27-0.6-0.6l0,0C1043.92,490.94,1044.19,490.68,1044.52,490.68z"/>
	<circle class="st1" cx="1051.73" cy="581.67" r="4.53"/>
</g>
<g>
	<path d="M1099.23,482.71l39.08,0.08c3.46,0,6.27,3.21,6.25,7.16l-0.15,95.92c0,3.95-2.82,7.14-6.28,7.13l-39.08-0.08
		c-3.46,0-6.27-3.21-6.25-7.16l0.15-95.92C1092.97,485.91,1095.77,482.71,1099.23,482.71z"/>
	<path class="st0" d="M1111.52,490.68l13.4,0.02c0.33,0,0.6,0.27,0.6,0.6l0,0c0,0.33-0.27,0.6-0.6,0.6l-13.4-0.02
		c-0.33,0-0.6-0.27-0.6-0.6l0,0C1110.92,490.94,1111.19,490.68,1111.52,490.68z"/>
	<circle class="st1" cx="1118.73" cy="581.67" r="4.53"/>
</g>
<g>
	<path d="M1166.23,482.71l39.08,0.08c3.46,0,6.27,3.21,6.25,7.16l-0.15,95.92c0,3.95-2.82,7.14-6.28,7.13l-39.08-0.08
		c-3.46,0-6.27-3.21-6.25-7.16l0.15-95.92C1159.97,485.91,1162.77,482.71,1166.23,482.71z"/>
	<path class="st0" d="M1178.52,490.68l13.4,0.02c0.33,0,0.6,0.27,0.6,0.6l0,0c0,0.33-0.27,0.6-0.6,0.6l-13.4-0.02
		c-0.33,0-0.6-0.27-0.6-0.6l0,0C1177.92,490.94,1178.19,490.68,1178.52,490.68z"/>
	<circle class="st1" cx="1185.73" cy="581.67" r="4.53"/>
</g>
<g>
	<path d="M1233.23,482.71l39.08,0.08c3.46,0,6.27,3.21,6.25,7.16l-0.15,95.92c0,3.95-2.82,7.14-6.28,7.13l-39.08-0.08
		c-3.46,0-6.27-3.21-6.25-7.16l0.15-95.92C1226.97,485.91,1229.77,482.71,1233.23,482.71z"/>
	<path class="st0" d="M1245.52,490.68l13.4,0.02c0.33,0,0.6,0.27,0.6,0.6l0,0c0,0.33-0.27,0.6-0.6,0.6l-13.4-0.02
		c-0.33,0-0.6-0.27-0.6-0.6l0,0C1244.92,490.94,1245.19,490.68,1245.52,490.68z"/>
	<circle class="st1" cx="1252.73" cy="581.67" r="4.53"/>
</g>
<g>
	<path d="M1300.23,482.71l39.08,0.08c3.46,0,6.27,3.21,6.25,7.16l-0.15,95.92c0,3.95-2.82,7.14-6.28,7.13l-39.08-0.08
		c-3.46,0-6.27-3.21-6.25-7.16l0.15-95.92C1293.97,485.91,1296.77,482.71,1300.23,482.71z"/>
	<path class="st0" d="M1312.52,490.68l13.4,0.02c0.33,0,0.6,0.27,0.6,0.6l0,0c0,0.33-0.27,0.6-0.6,0.6l-13.4-0.02
		c-0.33,0-0.6-0.27-0.6-0.6l0,0C1311.92,490.94,1312.19,490.68,1312.52,490.68z"/>
	<circle class="st1" cx="1319.73" cy="581.67" r="4.53"/>
</g>
<g>
	<path d="M27.23,602.71l39.08,0.08c3.46,0,6.27,3.21,6.25,7.16l-0.15,95.92c0,3.95-2.82,7.14-6.28,7.13l-39.08-0.08
		c-3.46,0-6.27-3.21-6.25-7.16l0.15-95.92C20.97,605.91,23.77,602.71,27.23,602.71z"/>
	<path class="st0" d="M39.52,610.68l13.4,0.02c0.33,0,0.6,0.27,0.6,0.6l0,0c0,0.33-0.27,0.6-0.6,0.6l-13.4-0.02
		c-0.33,0-0.6-0.27-0.6-0.6l0,0C38.92,610.94,39.19,610.68,39.52,610.68z"/>
	<circle class="st1" cx="46.73" cy="701.67" r="4.53"/>
</g>
<g>
	<path d="M94.23,602.71l39.08,0.08c3.46,0,6.27,3.21,6.25,7.16l-0.15,95.92c0,3.95-2.82,7.14-6.28,7.13l-39.08-0.08
		c-3.46,0-6.27-3.21-6.25-7.16l0.15-95.92C87.97,605.91,90.77,602.71,94.23,602.71z"/>
	<path class="st0" d="M106.52,610.68l13.4,0.02c0.33,0,0.6,0.27,0.6,0.6l0,0c0,0.33-0.27,0.6-0.6,0.6l-13.4-0.02
		c-0.33,0-0.6-0.27-0.6-0.6l0,0C105.92,610.94,106.19,610.68,106.52,610.68z"/>
	<circle class="st1" cx="113.73" cy="701.67" r="4.53"/>
</g>
<g>
	<path d="M161.23,602.71l39.08,0.08c3.46,0,6.27,3.21,6.25,7.16l-0.15,95.92c0,3.95-2.82,7.14-6.28,7.13l-39.08-0.08
		c-3.46,0-6.27-3.21-6.25-7.16l0.15-95.92C154.97,605.91,157.77,602.71,161.23,602.71z"/>
	<path class="st0" d="M173.52,610.68l13.4,0.02c0.33,0,0.6,0.27,0.6,0.6l0,0c0,0.33-0.27,0.6-0.6,0.6l-13.4-0.02
		c-0.33,0-0.6-0.27-0.6-0.6l0,0C172.92,610.94,173.19,610.68,173.52,610.68z"/>
	<circle class="st1" cx="180.73" cy="701.67" r="4.53"/>
</g>
<g>
	<path d="M228.23,602.71l39.08,0.08c3.46,0,6.27,3.21,6.25,7.16l-0.15,95.92c0,3.95-2.82,7.14-6.28,7.13l-39.08-0.08
		c-3.46,0-6.27-3.21-6.25-7.16l0.15-95.92C221.97,605.91,224.77,602.71,228.23,602.71z"/>
	<path class="st0" d="M240.52,610.68l13.4,0.02c0.33,0,0.6,0.27,0.6,0.6l0,0c0,0.33-0.27,0.6-0.6,0.6l-13.4-0.02
		c-0.33,0-0.6-0.27-0.6-0.6l0,0C239.92,610.94,240.19,610.68,240.52,610.68z"/>
	<circle class="st1" cx="247.73" cy="701.67" r="4.53"/>
</g>
<g>
	<path d="M295.23,602.71l39.08,0.08c3.46,0,6.27,3.21,6.25,7.16l-0.15,95.92c0,3.95-2.82,7.14-6.28,7.13l-39.08-0.08
		c-3.46,0-6.27-3.21-6.25-7.16l0.15-95.92C288.97,605.91,291.77,602.71,295.23,602.71z"/>
	<path class="st0" d="M307.52,610.68l13.4,0.02c0.33,0,0.6,0.27,0.6,0.6l0,0c0,0.33-0.27,0.6-0.6,0.6l-13.4-0.02
		c-0.33,0-0.6-0.27-0.6-0.6l0,0C306.92,610.94,307.19,610.68,307.52,610.68z"/>
	<circle class="st1" cx="314.73" cy="701.67" r="4.53"/>
</g>
<g>
	<path d="M362.23,602.71l39.08,0.08c3.46,0,6.27,3.21,6.25,7.16l-0.15,95.92c0,3.95-2.82,7.14-6.28,7.13l-39.08-0.08
		c-3.46,0-6.27-3.21-6.25-7.16l0.15-95.92C355.97,605.91,358.77,602.71,362.23,602.71z"/>
	<path class="st0" d="M374.52,610.68l13.4,0.02c0.33,0,0.6,0.27,0.6,0.6l0,0c0,0.33-0.27,0.6-0.6,0.6l-13.4-0.02
		c-0.33,0-0.6-0.27-0.6-0.6l0,0C373.92,610.94,374.19,610.68,374.52,610.68z"/>
	<circle class="st1" cx="381.73" cy="701.67" r="4.53"/>
</g>
<g>
	<path d="M429.23,602.71l39.08,0.08c3.46,0,6.27,3.21,6.25,7.16l-0.15,95.92c0,3.95-2.82,7.14-6.28,7.13l-39.08-0.08
		c-3.46,0-6.27-3.21-6.25-7.16l0.15-95.92C422.97,605.91,425.77,602.71,429.23,602.71z"/>
	<path class="st0" d="M441.52,610.68l13.4,0.02c0.33,0,0.6,0.27,0.6,0.6l0,0c0,0.33-0.27,0.6-0.6,0.6l-13.4-0.02
		c-0.33,0-0.6-0.27-0.6-0.6l0,0C440.92,610.94,441.19,610.68,441.52,610.68z"/>
	<circle class="st1" cx="448.73" cy="701.67" r="4.53"/>
</g>
<g>
	<path d="M496.23,602.71l39.08,0.08c3.46,0,6.27,3.21,6.25,7.16l-0.15,95.92c0,3.95-2.82,7.14-6.28,7.13l-39.08-0.08
		c-3.46,0-6.27-3.21-6.25-7.16l0.15-95.92C489.97,605.91,492.77,602.71,496.23,602.71z"/>
	<path class="st0" d="M508.52,610.68l13.4,0.02c0.33,0,0.6,0.27,0.6,0.6l0,0c0,0.33-0.27,0.6-0.6,0.6l-13.4-0.02
		c-0.33,0-0.6-0.27-0.6-0.6l0,0C507.92,610.94,508.19,610.68,508.52,610.68z"/>
	<circle class="st1" cx="515.73" cy="701.67" r="4.53"/>
</g>
<g>
	<path d="M563.23,602.71l39.08,0.08c3.46,0,6.27,3.21,6.25,7.16l-0.15,95.92c0,3.95-2.82,7.14-6.28,7.13l-39.08-0.08
		c-3.46,0-6.27-3.21-6.25-7.16l0.15-95.92C556.97,605.91,559.77,602.71,563.23,602.71z"/>
	<path class="st0" d="M575.52,610.68l13.4,0.02c0.33,0,0.6,0.27,0.6,0.6l0,0c0,0.33-0.27,0.6-0.6,0.6l-13.4-0.02
		c-0.33,0-0.6-0.27-0.6-0.6l0,0C574.92,610.94,575.19,610.68,575.52,610.68z"/>
	<circle class="st1" cx="582.73" cy="701.67" r="4.53"/>
</g>
<g>
	<path d="M630.23,602.71l39.08,0.08c3.46,0,6.27,3.21,6.25,7.16l-0.15,95.92c0,3.95-2.82,7.14-6.28,7.13l-39.08-0.08
		c-3.46,0-6.27-3.21-6.25-7.16l0.15-95.92C623.97,605.91,626.77,602.71,630.23,602.71z"/>
	<path class="st0" d="M642.52,610.68l13.4,0.02c0.33,0,0.6,0.27,0.6,0.6l0,0c0,0.33-0.27,0.6-0.6,0.6l-13.4-0.02
		c-0.33,0-0.6-0.27-0.6-0.6l0,0C641.92,610.94,642.19,610.68,642.52,610.68z"/>
	<circle class="st1" cx="649.73" cy="701.67" r="4.53"/>
</g>
<g>
	<path d="M697.23,602.71l39.08,0.08c3.46,0,6.27,3.21,6.25,7.16l-0.15,95.92c0,3.95-2.82,7.14-6.28,7.13l-39.08-0.08
		c-3.46,0-6.27-3.21-6.25-7.16l0.15-95.92C690.97,605.91,693.77,602.71,697.23,602.71z"/>
	<path class="st0" d="M709.52,610.68l13.4,0.02c0.33,0,0.6,0.27,0.6,0.6l0,0c0,0.33-0.27,0.6-0.6,0.6l-13.4-0.02
		c-0.33,0-0.6-0.27-0.6-0.6l0,0C708.92,610.94,709.19,610.68,709.52,610.68z"/>
	<circle class="st1" cx="716.73" cy="701.67" r="4.53"/>
</g>
<g>
	<path d="M764.23,602.71l39.08,0.08c3.46,0,6.27,3.21,6.25,7.16l-0.15,95.92c0,3.95-2.82,7.14-6.28,7.13l-39.08-0.08
		c-3.46,0-6.27-3.21-6.25-7.16l0.15-95.92C757.97,605.91,760.77,602.71,764.23,602.71z"/>
	<path class="st0" d="M776.52,610.68l13.4,0.02c0.33,0,0.6,0.27,0.6,0.6l0,0c0,0.33-0.27,0.6-0.6,0.6l-13.4-0.02
		c-0.33,0-0.6-0.27-0.6-0.6l0,0C775.92,610.94,776.19,610.68,776.52,610.68z"/>
	<circle class="st1" cx="783.73" cy="701.67" r="4.53"/>
</g>
<g>
	<path d="M831.23,602.71l39.08,0.08c3.46,0,6.27,3.21,6.25,7.16l-0.15,95.92c0,3.95-2.82,7.14-6.28,7.13l-39.08-0.08
		c-3.46,0-6.27-3.21-6.25-7.16l0.15-95.92C824.97,605.91,827.77,602.71,831.23,602.71z"/>
	<path class="st0" d="M843.52,610.68l13.4,0.02c0.33,0,0.6,0.27,0.6,0.6l0,0c0,0.33-0.27,0.6-0.6,0.6l-13.4-0.02
		c-0.33,0-0.6-0.27-0.6-0.6l0,0C842.92,610.94,843.19,610.68,843.52,610.68z"/>
	<circle class="st1" cx="850.73" cy="701.67" r="4.53"/>
</g>
<g>
	<path d="M898.23,602.71l39.08,0.08c3.46,0,6.27,3.21,6.25,7.16l-0.15,95.92c0,3.95-2.82,7.14-6.28,7.13l-39.08-0.08
		c-3.46,0-6.27-3.21-6.25-7.16l0.15-95.92C891.97,605.91,894.77,602.71,898.23,602.71z"/>
	<path class="st0" d="M910.52,610.68l13.4,0.02c0.33,0,0.6,0.27,0.6,0.6l0,0c0,0.33-0.27,0.6-0.6,0.6l-13.4-0.02
		c-0.33,0-0.6-0.27-0.6-0.6l0,0C909.92,610.94,910.19,610.68,910.52,610.68z"/>
	<circle class="st1" cx="917.73" cy="701.67" r="4.53"/>
</g>
<g>
	<path d="M965.23,602.71l39.08,0.08c3.46,0,6.27,3.21,6.25,7.16l-0.15,95.92c0,3.95-2.82,7.14-6.28,7.13l-39.08-0.08
		c-3.46,0-6.27-3.21-6.25-7.16l0.15-95.92C958.97,605.91,961.77,602.71,965.23,602.71z"/>
	<path class="st0" d="M977.52,610.68l13.4,0.02c0.33,0,0.6,0.27,0.6,0.6l0,0c0,0.33-0.27,0.6-0.6,0.6l-13.4-0.02
		c-0.33,0-0.6-0.27-0.6-0.6l0,0C976.92,610.94,977.19,610.68,977.52,610.68z"/>
	<circle class="st1" cx="984.73" cy="701.67" r="4.53"/>
</g>
<g>
	<path d="M1032.23,602.71l39.08,0.08c3.46,0,6.27,3.21,6.25,7.16l-0.15,95.92c0,3.95-2.82,7.14-6.28,7.13l-39.08-0.08
		c-3.46,0-6.27-3.21-6.25-7.16l0.15-95.92C1025.97,605.91,1028.77,602.71,1032.23,602.71z"/>
	<path class="st0" d="M1044.52,610.68l13.4,0.02c0.33,0,0.6,0.27,0.6,0.6l0,0c0,0.33-0.27,0.6-0.6,0.6l-13.4-0.02
		c-0.33,0-0.6-0.27-0.6-0.6l0,0C1043.92,610.94,1044.19,610.68,1044.52,610.68z"/>
	<circle class="st1" cx="1051.73" cy="701.67" r="4.53"/>
</g>
<g>
	<path d="M1099.23,602.71l39.08,0.08c3.46,0,6.27,3.21,6.25,7.16l-0.15,95.92c0,3.95-2.82,7.14-6.28,7.13l-39.08-0.08
		c-3.46,0-6.27-3.21-6.25-7.16l0.15-95.92C1092.97,605.91,1095.77,602.71,1099.23,602.71z"/>
	<path class="st0" d="M1111.52,610.68l13.4,0.02c0.33,0,0.6,0.27,0.6,0.6l0,0c0,0.33-0.27,0.6-0.6,0.6l-13.4-0.02
		c-0.33,0-0.6-0.27-0.6-0.6l0,0C1110.92,610.94,1111.19,610.68,1111.52,610.68z"/>
	<circle class="st1" cx="1118.73" cy="701.67" r="4.53"/>
</g>
<g>
	<path d="M1166.23,602.71l39.08,0.08c3.46,0,6.27,3.21,6.25,7.16l-0.15,95.92c0,3.95-2.82,7.14-6.28,7.13l-39.08-0.08
		c-3.46,0-6.27-3.21-6.25-7.16l0.15-95.92C1159.97,605.91,1162.77,602.71,1166.23,602.71z"/>
	<path class="st0" d="M1178.52,610.68l13.4,0.02c0.33,0,0.6,0.27,0.6,0.6l0,0c0,0.33-0.27,0.6-0.6,0.6l-13.4-0.02
		c-0.33,0-0.6-0.27-0.6-0.6l0,0C1177.92,610.94,1178.19,610.68,1178.52,610.68z"/>
	<circle class="st1" cx="1185.73" cy="701.67" r="4.53"/>
</g>
<g>
	<path d="M1233.23,602.71l39.08,0.08c3.46,0,6.27,3.21,6.25,7.16l-0.15,95.92c0,3.95-2.82,7.14-6.28,7.13l-39.08-0.08
		c-3.46,0-6.27-3.21-6.25-7.16l0.15-95.92C1226.97,605.91,1229.77,602.71,1233.23,602.71z"/>
	<path class="st0" d="M1245.52,610.68l13.4,0.02c0.33,0,0.6,0.27,0.6,0.6l0,0c0,0.33-0.27,0.6-0.6,0.6l-13.4-0.02
		c-0.33,0-0.6-0.27-0.6-0.6l0,0C1244.92,610.94,1245.19,610.68,1245.52,610.68z"/>
	<circle class="st1" cx="1252.73" cy="701.67" r="4.53"/>
</g>
<g>
	<path d="M1300.23,602.71l39.08,0.08c3.46,0,6.27,3.21,6.25,7.16l-0.15,95.92c0,3.95-2.82,7.14-6.28,7.13l-39.08-0.08
		c-3.46,0-6.27-3.21-6.25-7.16l0.15-95.92C1293.97,605.91,1296.77,602.71,1300.23,602.71z"/>
	<path class="st0" d="M1312.52,610.68l13.4,0.02c0.33,0,0.6,0.27,0.6,0.6l0,0c0,0.33-0.27,0.6-0.6,0.6l-13.4-0.02
		c-0.33,0-0.6-0.27-0.6-0.6l0,0C1311.92,610.94,1312.19,610.68,1312.52,610.68z"/>
	<circle class="st1" cx="1319.73" cy="701.67" r="4.53"/>
</g>
<g>
	<path d="M1112.27,27l26.58,0.06c2.35,0,4.26,2.19,4.25,4.87l-0.1,65.23c0,2.68-1.92,4.86-4.27,4.85l-26.58-0.06
		c-2.35,0-4.26-2.19-4.25-4.87l0.1-65.23C1108.01,29.17,1109.92,27,1112.27,27z"/>
	<path class="st0" d="M1120.63,32.41l9.12,0.01c0.23,0,0.41,0.18,0.41,0.41l0,0c0,0.23-0.18,0.41-0.41,0.41l-9.12-0.01
		c-0.23,0-0.41-0.18-0.41-0.41l0,0C1120.22,32.6,1120.4,32.41,1120.63,32.41z"/>
	<circle class="st1" cx="1125.53" cy="94.29" r="3.08"/>
</g>
<g>
	<g>
		<path d="M24.38,69.95h5V56.72h-4.28v-3.28c2.45-0.47,4.07-1.09,5.67-2.08h3.9v18.59h4.28v4.27H24.38V69.95z"/>
		<path d="M42.21,62.69c0-7.78,3.27-11.76,8.18-11.76s8.18,4.01,8.18,11.76c0,7.78-3.27,11.96-8.18,11.96S42.21,70.47,42.21,62.69z
			 M53.56,62.69c0-6.24-1.39-7.67-3.17-7.67c-1.78,0-3.17,1.43-3.17,7.67s1.39,7.87,3.17,7.87C52.17,70.56,53.56,68.93,53.56,62.69z
			"/>
		<path d="M61.22,62.69c0-7.78,3.27-11.76,8.18-11.76s8.18,4.01,8.18,11.76c0,7.78-3.27,11.96-8.18,11.96S61.22,70.47,61.22,62.69z
			 M72.56,62.69c0-6.24-1.39-7.67-3.17-7.67c-1.78,0-3.17,1.43-3.17,7.67s1.39,7.87,3.17,7.87C71.18,70.56,72.56,68.93,72.56,62.69z
			"/>
		<path d="M93.14,72.31h-0.13l-0.44,1.91h-4.14V49h5.29v6.16l-0.13,2.74c1.35-1.22,3.04-1.98,4.73-1.98c4.32,0,7,3.57,7,9.05
			c0,6.16-3.65,9.67-7.51,9.67C96.2,74.65,94.56,73.85,93.14,72.31z M99.89,65.07c0-3.21-0.99-4.81-3.1-4.81
			c-1.09,0-2.04,0.49-3.07,1.6v7.33c0.95,0.84,1.96,1.13,2.85,1.13C98.41,70.32,99.89,68.77,99.89,65.07z"/>
		<path d="M108.64,50.98c0-1.62,1.29-2.77,3.06-2.77s3.06,1.14,3.06,2.77c0,1.61-1.29,2.77-3.06,2.77S108.64,52.59,108.64,50.98z
			 M109.05,56.36h5.29v17.86h-5.29V56.36z"/>
		<path d="M118.99,68.67V49h5.29v19.88c0,1.14,0.52,1.5,0.96,1.5c0.2,0,0.35,0,0.65-0.07l0.63,3.9c-0.58,0.25-1.45,0.44-2.66,0.44
			C120.23,74.65,118.99,72.28,118.99,68.67z"/>
		<path d="M129.29,68.67V49h5.29v19.88c0,1.14,0.52,1.5,0.96,1.5c0.2,0,0.35,0,0.65-0.07l0.63,3.9c-0.58,0.25-1.45,0.44-2.66,0.44
			C130.53,74.65,129.29,72.28,129.29,68.67z"/>
		<path d="M139.17,50.98c0-1.62,1.29-2.77,3.06-2.77s3.06,1.14,3.06,2.77c0,1.61-1.29,2.77-3.06,2.77S139.17,52.59,139.17,50.98z
			 M139.58,56.36h5.29v17.86h-5.29V56.36z"/>
		<path d="M148.48,65.3c0-5.94,4.18-9.37,8.7-9.37c4.52,0,8.7,3.43,8.7,9.37c0,5.92-4.18,9.35-8.7,9.35
			C152.66,74.65,148.48,71.22,148.48,65.3z M160.46,65.3c0-3.09-1.09-5.1-3.28-5.1c-2.19,0-3.28,2.01-3.28,5.1s1.09,5.08,3.28,5.08
			C159.37,70.38,160.46,68.39,160.46,65.3z"/>
		<path d="M169.5,56.36h4.32l0.38,2.26h0.13c1.5-1.44,3.3-2.69,5.74-2.69c3.88,0,5.54,2.74,5.54,7.2v11.09h-5.29V63.81
			c0-2.57-0.69-3.37-2.22-3.37c-1.33,0-2.14,0.62-3.31,1.74v12.05h-5.29V56.36z"/>
		<path d="M196.88,50.98c0-1.62,1.29-2.77,3.06-2.77s3.06,1.14,3.06,2.77c0,1.61-1.29,2.77-3.06,2.77S196.88,52.59,196.88,50.98z
			 M197.29,56.36h5.29v17.86h-5.29V56.36z"/>
		<path d="M207.67,50.76h8.06c5.16,0,9.33,1.85,9.33,7.55c0,5.51-4.21,7.95-9.18,7.95h-2.9v7.96h-5.3V50.76z M215.56,62.05
			c2.92,0,4.3-1.3,4.3-3.74c0-2.46-1.57-3.34-4.44-3.34h-2.44v7.08H215.56z"/>
		<path d="M228.68,49h5.29v6.16l-0.24,3.23c1.34-1.22,3.08-2.47,5.51-2.47c3.88,0,5.54,2.74,5.54,7.2v11.09h-5.29V63.81
			c0-2.57-0.69-3.37-2.22-3.37c-1.33,0-2.14,0.62-3.31,1.74v12.05h-5.29V49z"/>
		<path d="M248.2,65.3c0-5.94,4.18-9.37,8.7-9.37c4.52,0,8.7,3.43,8.7,9.37c0,5.92-4.18,9.35-8.7,9.35
			C252.38,74.65,248.2,71.22,248.2,65.3z M260.17,65.3c0-3.09-1.09-5.1-3.28-5.1c-2.19,0-3.28,2.01-3.28,5.1s1.09,5.08,3.28,5.08
			C259.09,70.38,260.17,68.39,260.17,65.3z"/>
		<path d="M269.22,56.36h4.32l0.38,2.26h0.13c1.5-1.44,3.3-2.69,5.74-2.69c3.88,0,5.54,2.74,5.54,7.2v11.09h-5.29V63.81
			c0-2.57-0.69-3.37-2.22-3.37c-1.33,0-2.14,0.62-3.31,1.74v12.05h-5.29V56.36z"/>
		<path d="M288.77,65.3c0-5.79,4.13-9.37,8.42-9.37c5.09,0,7.61,3.7,7.61,8.57c0,0.95-0.12,1.91-0.22,2.34H293.9
			c0.47,2.59,2.25,3.78,4.63,3.78c1.35,0,2.57-0.41,3.86-1.17l1.75,3.19c-1.83,1.27-4.22,2.01-6.34,2.01
			C292.71,74.65,288.77,71.21,288.77,65.3z M300.28,63.34c0-1.96-0.85-3.38-2.97-3.38c-1.67,0-3.12,1.12-3.48,3.38H300.28z"/>
		<path d="M306.88,72.16l2.38-3.3c1.62,1.22,3.11,1.88,4.61,1.88c1.57,0,2.26-0.6,2.26-1.54c0-1.18-1.77-1.71-3.61-2.43
			c-2.19-0.85-4.73-2.3-4.73-5.25c0-3.32,2.7-5.59,6.82-5.59c2.74,0,4.77,1.11,6.29,2.26l-2.37,3.18c-1.27-0.92-2.52-1.52-3.76-1.52
			c-1.37,0-2.04,0.54-2.04,1.43c0,1.14,1.67,1.57,3.52,2.25c2.26,0.84,4.81,2.11,4.81,5.37c0,3.23-2.55,5.76-7.34,5.76
			C311.38,74.65,308.68,73.63,306.88,72.16z"/>
	</g>
</g>
<g>
	<g>
		<path d="M1155.99,63.98h11.04v2.49h-11.04V63.98z M1155.99,69.57h11.04v2.49h-11.04V69.57z"/>
		<path d="M1174.32,73.1h3.33v-8.82h-2.85v-2.19c1.63-0.31,2.71-0.73,3.78-1.39h2.6v12.4h2.85v2.85h-9.71V73.1z"/>
		<path d="M1194.82,74.67h-0.09l-0.29,1.27h-2.76V59.13h3.53v4.11l-0.09,1.83c0.9-0.81,2.03-1.32,3.15-1.32
			c2.88,0,4.67,2.38,4.67,6.03c0,4.11-2.43,6.45-5.01,6.45C1196.86,76.23,1195.76,75.7,1194.82,74.67z M1199.32,69.84
			c0-2.14-0.66-3.21-2.07-3.21c-0.73,0-1.36,0.32-2.05,1.07v4.89c0.63,0.56,1.3,0.75,1.9,0.75
			C1198.33,73.35,1199.32,72.31,1199.32,69.84z"/>
		<path d="M1205.15,60.45c0-1.08,0.86-1.84,2.04-1.84c1.18,0,2.04,0.76,2.04,1.84c0,1.07-0.86,1.84-2.04,1.84
			C1206.01,62.3,1205.15,61.52,1205.15,60.45z M1205.43,64.04h3.53v11.91h-3.53V64.04z"/>
		<path d="M1212.05,72.25V59.13h3.53v13.26c0,0.76,0.35,1,0.64,1c0.14,0,0.23,0,0.43-0.05l0.42,2.6c-0.39,0.17-0.97,0.29-1.77,0.29
			C1212.88,76.23,1212.05,74.65,1212.05,72.25z"/>
		<path d="M1218.91,72.25V59.13h3.53v13.26c0,0.76,0.35,1,0.64,1c0.14,0,0.23,0,0.43-0.05l0.42,2.6c-0.39,0.17-0.97,0.29-1.77,0.29
			C1219.74,76.23,1218.91,74.65,1218.91,72.25z"/>
		<path d="M1225.5,60.45c0-1.08,0.86-1.84,2.04-1.84s2.04,0.76,2.04,1.84c0,1.07-0.86,1.84-2.04,1.84S1225.5,61.52,1225.5,60.45z
			 M1225.78,64.04h3.53v11.91h-3.53V64.04z"/>
		<path d="M1231.71,70c0-3.96,2.79-6.25,5.8-6.25s5.8,2.29,5.8,6.25c0,3.95-2.79,6.24-5.8,6.24S1231.71,73.95,1231.71,70z
			 M1239.69,70c0-2.06-0.73-3.4-2.18-3.4s-2.18,1.34-2.18,3.4c0,2.06,0.73,3.39,2.18,3.39S1239.69,72.06,1239.69,70z"/>
		<path d="M1245.72,64.04h2.88l0.25,1.51h0.09c1-0.96,2.2-1.8,3.83-1.8c2.59,0,3.69,1.83,3.69,4.8v7.39h-3.53V69
			c0-1.71-0.46-2.25-1.48-2.25c-0.89,0-1.43,0.41-2.21,1.16v8.03h-3.53V64.04z"/>
		<path d="M1264.25,64.04h2.88l0.25,1.17h0.09c0.93-0.83,2.15-1.46,3.39-1.46c2.88,0,4.65,2.38,4.65,6.05
			c0,4.09-2.43,6.43-5.01,6.43c-1.03,0-1.99-0.45-2.84-1.24l0.12,1.88v3.49h-3.53V64.04z M1271.89,69.84c0-2.14-0.66-3.21-2.07-3.21
			c-0.73,0-1.35,0.32-2.05,1.07v4.89c0.64,0.56,1.3,0.75,1.9,0.75C1270.91,73.35,1271.89,72.31,1271.89,69.84z"/>
		<path d="M1278,59.13h3.53v4.11l-0.16,2.16c0.89-0.81,2.05-1.65,3.68-1.65c2.59,0,3.69,1.83,3.69,4.8v7.39h-3.53V69
			c0-1.71-0.46-2.25-1.48-2.25c-0.89,0-1.43,0.41-2.2,1.16v8.03H1278V59.13z"/>
		<path d="M1291.01,70c0-3.96,2.79-6.25,5.8-6.25s5.8,2.29,5.8,6.25c0,3.95-2.79,6.24-5.8,6.24S1291.01,73.95,1291.01,70z M1299,70
			c0-2.06-0.73-3.4-2.18-3.4s-2.18,1.34-2.18,3.4c0,2.06,0.73,3.39,2.18,3.39S1299,72.06,1299,70z"/>
		<path d="M1305.02,64.04h2.88l0.25,1.51h0.09c1-0.96,2.2-1.8,3.83-1.8c2.59,0,3.69,1.83,3.69,4.8v7.39h-3.53V69
			c0-1.71-0.46-2.25-1.48-2.25c-0.89,0-1.43,0.41-2.21,1.16v8.03h-3.53V64.04z"/>
		<path d="M1318.06,70c0-3.86,2.76-6.25,5.62-6.25c3.39,0,5.07,2.47,5.07,5.72c0,0.64-0.08,1.27-0.15,1.56h-7.12
			c0.32,1.73,1.5,2.52,3.09,2.52c0.9,0,1.71-0.27,2.58-0.78l1.17,2.13c-1.22,0.84-2.81,1.34-4.22,1.34
			C1320.69,76.23,1318.06,73.94,1318.06,70z M1325.74,68.69c0-1.31-0.57-2.25-1.98-2.25c-1.12,0-2.08,0.75-2.32,2.25H1325.74z"/>
		<path d="M1330.13,74.57l1.59-2.2c1.08,0.82,2.08,1.25,3.07,1.25c1.05,0,1.5-0.4,1.5-1.02c0-0.78-1.18-1.14-2.41-1.62
			c-1.46-0.56-3.15-1.53-3.15-3.5c0-2.22,1.8-3.73,4.55-3.73c1.82,0,3.18,0.74,4.2,1.51l-1.58,2.12c-0.85-0.62-1.68-1.02-2.51-1.02
			c-0.91,0-1.36,0.36-1.36,0.95c0,0.76,1.12,1.05,2.35,1.5c1.51,0.56,3.21,1.41,3.21,3.58c0,2.15-1.7,3.84-4.89,3.84
			C1333.13,76.23,1331.34,75.55,1330.13,74.57z"/>
	</g>
</g>
</svg>
