<svg id="Layer_1" data-name="Layer 1" xmlns="http://www.w3.org/2000/svg" viewBox="0 0 1366 768"><defs><style>.cls-1{fill:#1f8ea0;}.cls-2{fill:#fff;}</style></defs><path d="M47.45,61c0-1.45.13-3.67.2-5.12h-.14c-.58,1.29-1.22,2.56-1.87,3.86l-3,5H55v4H37.57V65.1l8.35-13.75h6.47V74.21H47.45Z"/><path d="M57.21,62.69c0-7.78,3.27-11.76,8.18-11.76s8.18,4,8.18,11.76-3.27,12-8.18,12S57.21,70.47,57.21,62.69Zm11.35,0c0-6.24-1.39-7.67-3.17-7.67s-3.17,1.43-3.17,7.67,1.39,7.87,3.17,7.87S68.56,68.93,68.56,62.69Z"/><path d="M84.86,50.76h5.79l3.81,10.42c.47,1.38.88,2.89,1.35,4.33H96c.47-1.44.87-3,1.34-4.33L101,50.76h5.79V74.22h-4.83V65.61c0-2.29.43-5.7.68-8h-.14l-1.92,5.55-3.32,9H94.3l-3.32-9-1.87-5.55H89c.25,2.27.68,5.68.68,8v8.61H84.89V50.76Z"/><path d="M111.44,51a3.08,3.08,0,1,1,3.06,2.77A2.82,2.82,0,0,1,111.44,51Zm.41,5.38h5.29V74.22h-5.29Z"/><path d="M121.79,68.67V49h5.29V68.88c0,1.14.52,1.5,1,1.5a2.39,2.39,0,0,0,.65-.07l.63,3.9a6.82,6.82,0,0,1-2.66.44C123,74.65,121.79,72.28,121.79,68.67Z"/><path d="M132.08,68.67V49h5.29V68.88c0,1.14.52,1.5,1,1.5a2.39,2.39,0,0,0,.65-.07l.63,3.9a6.82,6.82,0,0,1-2.66.44C133.32,74.65,132.08,72.28,132.08,68.67Z"/><path d="M142,51A3.08,3.08,0,1,1,145,53.75,2.82,2.82,0,0,1,142,51Zm.41,5.38h5.29V74.22h-5.29Z"/><path d="M151.28,65.3c0-5.94,4.18-9.37,8.7-9.37s8.7,3.43,8.7,9.37-4.18,9.35-8.7,9.35S151.28,71.22,151.28,65.3Zm12,0c0-3.09-1.09-5.1-3.28-5.1s-3.28,2-3.28,5.1,1.09,5.08,3.28,5.08S163.25,68.39,163.25,65.3Z"/><path d="M172.29,56.36h4.32l.38,2.26h.13a8.18,8.18,0,0,1,5.74-2.69c3.88,0,5.54,2.74,5.54,7.2V74.22h-5.29V63.81c0-2.57-.69-3.37-2.22-3.37-1.33,0-2.14.62-3.31,1.74V74.23h-5.29V56.36Z"/><path d="M205.12,55.21h-6.46V50.76h18.22v4.45h-6.46v19h-5.3v-19Z"/><path d="M219.06,65.3c0-5.79,4.13-9.37,8.42-9.37,5.09,0,7.61,3.7,7.61,8.57a12.12,12.12,0,0,1-.22,2.34H224.19a4.31,4.31,0,0,0,4.63,3.78,7.41,7.41,0,0,0,3.86-1.17l1.75,3.19a11.6,11.6,0,0,1-6.34,2C223,74.65,219.06,71.21,219.06,65.3Zm11.51-2c0-2-.85-3.38-3-3.38-1.67,0-3.12,1.12-3.48,3.38Z"/><path d="M237.17,72.16l2.38-3.3a7.77,7.77,0,0,0,4.61,1.88c1.57,0,2.26-.6,2.26-1.54,0-1.18-1.77-1.71-3.61-2.43-2.19-.85-4.73-2.3-4.73-5.25,0-3.32,2.7-5.59,6.82-5.59a10.17,10.17,0,0,1,6.29,2.26l-2.37,3.18a6.64,6.64,0,0,0-3.76-1.52c-1.37,0-2,.54-2,1.43,0,1.14,1.67,1.57,3.52,2.25,2.26.84,4.81,2.11,4.81,5.37s-2.55,5.76-7.34,5.76A11.67,11.67,0,0,1,237.17,72.16Z"/><path d="M254.7,68.67V49H260V68.88c0,1.14.52,1.5,1,1.5a2.39,2.39,0,0,0,.65-.07l.63,3.9a6.82,6.82,0,0,1-2.66.44C255.94,74.65,254.7,72.28,254.7,68.67Z"/><path d="M264.17,69.27c0-3.76,3-5.8,10.06-6.54a2.48,2.48,0,0,0-2.82-2.58,9.88,9.88,0,0,0-4.73,1.61l-1.88-3.47a14.56,14.56,0,0,1,7.63-2.35c4.57,0,7.09,2.61,7.09,8.08V74.23H275.2l-.38-1.83h-.13a7.84,7.84,0,0,1-5.2,2.26A5.15,5.15,0,0,1,264.17,69.27ZM274.23,69V65.91c-3.76.51-5,1.58-5,2.93,0,1.15.79,1.71,2.05,1.71A4,4,0,0,0,274.23,69Z"/><path d="M291.6,50.76h5.79l3.81,10.42c.47,1.38.88,2.89,1.35,4.33h.14c.47-1.44.87-3,1.34-4.33l3.69-10.42h5.79V74.22h-4.83V65.61c0-2.29.43-5.7.68-8h-.14l-1.92,5.55-3.32,9H301l-3.32-9-1.87-5.55h-.14c.25,2.27.68,5.68.68,8v8.61h-4.76V50.76Z"/><path d="M317.56,65.3c0-5.94,4.18-9.37,8.7-9.37s8.7,3.43,8.7,9.37-4.18,9.35-8.7,9.35S317.56,71.22,317.56,65.3Zm12,0c0-3.09-1.09-5.1-3.28-5.1s-3.28,2-3.28,5.1,1.09,5.08,3.28,5.08S329.53,68.39,329.53,65.3Z"/><path d="M337.66,65.3c0-5.84,3.65-9.37,7.41-9.37a5.89,5.89,0,0,1,4.38,1.86l-.19-2.71V49h5.29V74.22h-4.32l-.38-1.77h-.13a7.08,7.08,0,0,1-4.75,2.2C340.52,74.65,337.66,71.13,337.66,65.3Zm11.59,3.42V61.39a4.33,4.33,0,0,0-2.95-1.13c-1.71,0-3.22,1.58-3.22,5s1.21,5.08,3.26,5.08A3.39,3.39,0,0,0,349.25,68.72Z"/><path d="M358.17,65.3c0-5.79,4.13-9.37,8.42-9.37,5.09,0,7.61,3.7,7.61,8.57a12.12,12.12,0,0,1-.22,2.34H363.3a4.31,4.31,0,0,0,4.63,3.78,7.41,7.41,0,0,0,3.86-1.17l1.75,3.19a11.6,11.6,0,0,1-6.34,2C362.11,74.65,358.17,71.21,358.17,65.3Zm11.5-2c0-2-.85-3.38-3-3.38-1.67,0-3.12,1.12-3.48,3.38Z"/><path d="M377.85,68.67V49h5.29V68.88c0,1.14.52,1.5,1,1.5a2.39,2.39,0,0,0,.65-.07l.63,3.9a6.82,6.82,0,0,1-2.66.44C379.09,74.65,377.85,72.28,377.85,68.67Z"/><path d="M393.8,71.41l2.44-3.34a7.38,7.38,0,0,0,5,2.31c2.23,0,3.72-1,3.72-2.73,0-2-1.17-3.24-6.14-3.24V60.66c4.11,0,5.4-1.25,5.4-3.06,0-1.61-1-2.52-2.82-2.52a6.22,6.22,0,0,0-4.27,2l-2.68-3.22a10.74,10.74,0,0,1,7.19-2.93c4.75,0,7.89,2.25,7.89,6.27,0,2.35-1.35,4-3.81,5.08v.14c2.64.75,4.56,2.62,4.56,5.57,0,4.26-3.9,6.66-8.5,6.66C398.07,74.65,395.48,73.34,393.8,71.41Z"/><path d="M412.77,72.16l2.38-3.3a7.77,7.77,0,0,0,4.61,1.88c1.57,0,2.26-.6,2.26-1.54,0-1.18-1.77-1.71-3.61-2.43-2.19-.85-4.73-2.3-4.73-5.25,0-3.32,2.7-5.59,6.82-5.59a10.17,10.17,0,0,1,6.29,2.26l-2.37,3.18a6.64,6.64,0,0,0-3.76-1.52c-1.37,0-2,.54-2,1.43,0,1.14,1.67,1.57,3.52,2.25,2.26.84,4.81,2.11,4.81,5.37s-2.55,5.76-7.34,5.76A11.7,11.7,0,0,1,412.77,72.16Z"/><g id="b2gxEa"><path class="cls-1" d="M173.24,177.94c-.28-2.87-.73-6.26-2.32-8.35-3.26-4.27-7.35-7.82-11.08-11.68a3.78,3.78,0,0,1-.55-1,5.05,5.05,0,0,1,1-.4c3.39-.66,6.78-1.23,10.15-2a2.39,2.39,0,0,0,1.47-1.64c.15-4.46-5.72-8.44-9.49-6.51a1.67,1.67,0,0,0-.82.94c-.45,1.85-.75,3.75-1.22,5.61a6.4,6.4,0,0,1-1,1.65c-.54-.42-1.37-.71-1.59-1.27-2.79-7-5.27-14.13-8.3-21-1.81-4.12-4.52-8.26-9.08-8.82a235,235,0,0,0-28.11-2.2c-11.1-.05-22.22.91-33.32,1.6-3.85.25-8,.57-10.45,4.33a85.86,85.86,0,0,0-7,12.28c-2.06,4.6-3.37,9.56-5.09,14.34a2,2,0,0,1-1.45,1,1.44,1.44,0,0,1-1.21-.82c-.49-2.08-.8-4.21-1.24-6.3a1.43,1.43,0,0,0-.65-.92c-2.94-1.4-8.49,1.56-9.47,4.93-.59,2,0,3.12,1.88,3.44,3.21.57,6.43,1,9.64,1.56a4.72,4.72,0,0,1,1,.43,4.15,4.15,0,0,1-.55,1c-2.66,2.81-5.44,5.49-8,8.41-1.82,2.1-4.41,4.33-4.78,6.81A171.43,171.43,0,0,0,40,195.54c-.14,7.6.42,15.19.66,22.26l-2.31,2c.68.87,1.34,1.76,2,2.61.4.48,1,.83,1.21,1.37.09.26-.47.89-.82,1.25-1.07,1.08-1.93,2.32-.12,3.28a12.19,12.19,0,0,0,4.89,1.59c10.6.54,21.19,1,31.8,1.27,10.18.24,20.38.19,30.57.29,3.27,0,6.56.28,9.83.16,13.43-.49,26.87-1,40.29-1.69a92.15,92.15,0,0,0,13.48-2C174.1,227.35,174.66,192.49,173.24,177.94Zm-109-33.47,4.45-10.14,3.7-6.11,9.89-1.4,8.09-1h33.87l10,.81,6.2,1,3.1,2,1.75,4.7,1.71,5.33,2.55,7.42,2.91,8.62H61.13Z"/></g><path class="cls-2" d="M50.46,168.3c-.28.09-.82.44-1.35,5.06-.48,4.26-.72,6.39,0,7.58s2.78,1.84,6.76,2.88c3.23.86,5.14,1.35,7.77,1.08,1-.1,4.89-.49,5.06-1.8.29-2.15-9.45-5.78-9.45-5.78h0s-2.73-2.71-5.4-5.78C51.61,169,51.09,168.11,50.46,168.3Z"/><path class="cls-2" d="M165.25,168.55c.28.09.82.44,1.35,5.06.48,4.26.72,6.39,0,7.58s-2.78,1.84-6.76,2.88c-3.23.86-5.14,1.35-7.77,1.08-1-.1-4.89-.49-5.06-1.8-.29-2.15,9.45-5.78,9.45-5.78s2.73-2.71,5.4-5.78C164.11,169.25,164.62,168.36,165.25,168.55Z"/><polygon class="cls-2" points="58.67 208.6 59.96 207.15 62.37 206.32 65.57 205.6 108.56 206.63 130.92 206.53 147.58 205.6 150.2 205.6 153.1 206.63 155.81 208.6 156.81 209.53 119.5 211.81 102.46 211.81 78.74 211.19 66.63 210.16 60.15 209.53 58.67 208.6"/><path class="cls-2" d="M149.57,147.08,147,139.66l-1.71-5.33-1.75-4.7-3.1-2-6.2-1-10-.81H90.37l-8.09,1-9.89,1.4-3.7,6.11-4.45,10.14-3.11,11.22h91.35Z"/><g id="b2gxEa-2" data-name="b2gxEa"><path class="cls-1" d="M336.24,177.94c-.28-2.87-.73-6.26-2.32-8.35-3.26-4.27-7.35-7.82-11.08-11.68a3.78,3.78,0,0,1-.55-1,5.05,5.05,0,0,1,1-.4c3.39-.66,6.78-1.23,10.15-2a2.39,2.39,0,0,0,1.47-1.64c.15-4.46-5.72-8.44-9.49-6.51a1.67,1.67,0,0,0-.82.94c-.45,1.85-.75,3.75-1.22,5.61a6.4,6.4,0,0,1-1,1.65c-.54-.42-1.37-.71-1.59-1.27-2.79-7-5.27-14.13-8.3-21-1.81-4.12-4.52-8.26-9.08-8.82a235,235,0,0,0-28.11-2.2c-11.1-.05-22.22.91-33.32,1.6-3.85.25-8,.57-10.45,4.33a85.86,85.86,0,0,0-7,12.28c-2.06,4.6-3.37,9.56-5.09,14.34a2,2,0,0,1-1.45,1,1.44,1.44,0,0,1-1.21-.82c-.49-2.08-.8-4.21-1.24-6.3a1.43,1.43,0,0,0-.65-.92c-2.94-1.4-8.49,1.56-9.47,4.93-.59,2,0,3.12,1.88,3.44,3.21.57,6.43,1,9.64,1.56a4.72,4.72,0,0,1,1,.43,4.15,4.15,0,0,1-.55,1c-2.66,2.81-5.44,5.49-8,8.41-1.82,2.1-4.41,4.33-4.78,6.81a171.43,171.43,0,0,0-1.68,22.2c-.14,7.6.42,15.19.66,22.26l-2.31,2c.68.87,1.34,1.76,2.05,2.61.4.48,1,.83,1.21,1.37.09.26-.47.89-.82,1.25-1.07,1.08-1.93,2.32-.12,3.28a12.19,12.19,0,0,0,4.89,1.59c10.6.54,21.19,1,31.8,1.27,10.18.24,20.38.19,30.57.29,3.27,0,6.56.28,9.83.16,13.43-.49,26.87-1,40.29-1.69a92.15,92.15,0,0,0,13.48-2C337.1,227.35,337.66,192.49,336.24,177.94Zm-109-33.47,4.45-10.14,3.7-6.11,9.89-1.4,8.09-1h33.87l10,.81,6.2,1,3.1,2,1.75,4.7,1.71,5.33,2.55,7.42,2.91,8.62H224.13Z"/></g><path class="cls-2" d="M213.46,168.3c-.28.09-.82.44-1.35,5.06-.48,4.26-.72,6.39,0,7.58s2.78,1.84,6.76,2.88c3.23.86,5.14,1.35,7.77,1.08,1-.1,4.89-.49,5.06-1.8.29-2.15-9.45-5.78-9.45-5.78h0s-2.73-2.71-5.4-5.78C214.61,169,214.09,168.11,213.46,168.3Z"/><path class="cls-2" d="M328.25,168.55c.28.09.82.44,1.35,5.06.48,4.26.72,6.39,0,7.58s-2.78,1.84-6.76,2.88c-3.23.86-5.14,1.35-7.77,1.08-1-.1-4.89-.49-5.06-1.8-.29-2.15,9.45-5.78,9.45-5.78s2.73-2.71,5.4-5.78C327.11,169.25,327.62,168.36,328.25,168.55Z"/><polygon class="cls-2" points="221.67 208.6 222.96 207.15 225.37 206.32 228.57 205.6 271.56 206.63 293.92 206.53 310.58 205.6 313.2 205.6 316.1 206.63 318.81 208.6 319.81 209.53 282.5 211.81 265.46 211.81 241.74 211.19 229.63 210.16 223.15 209.53 221.67 208.6"/><path class="cls-2" d="M312.57,147.08,310,139.66l-1.71-5.33-1.75-4.7-3.1-2-6.2-1-10-.81H253.37l-8.09,1-9.89,1.4-3.7,6.11-4.45,10.14-3.11,11.22h91.35Z"/><g id="b2gxEa-3" data-name="b2gxEa"><path class="cls-1" d="M499.24,177.94c-.28-2.87-.73-6.26-2.32-8.35-3.26-4.27-7.35-7.82-11.08-11.68a3.78,3.78,0,0,1-.55-1,5.05,5.05,0,0,1,1-.4c3.39-.66,6.78-1.23,10.15-2a2.39,2.39,0,0,0,1.47-1.64c.15-4.46-5.72-8.44-9.49-6.51a1.67,1.67,0,0,0-.82.94c-.45,1.85-.75,3.75-1.22,5.61a6.4,6.4,0,0,1-1,1.65c-.54-.42-1.37-.71-1.59-1.27-2.79-7-5.27-14.13-8.3-21-1.81-4.12-4.52-8.26-9.08-8.82a235,235,0,0,0-28.11-2.2c-11.1-.05-22.22.91-33.32,1.6-3.85.25-8,.57-10.45,4.33a85.86,85.86,0,0,0-7,12.28c-2.06,4.6-3.37,9.56-5.09,14.34a2,2,0,0,1-1.45,1,1.44,1.44,0,0,1-1.21-.82c-.49-2.08-.8-4.21-1.24-6.3a1.43,1.43,0,0,0-.65-.92c-2.94-1.4-8.49,1.56-9.47,4.93-.59,2,0,3.12,1.88,3.44,3.21.57,6.43,1,9.64,1.56a4.72,4.72,0,0,1,1,.43,4.15,4.15,0,0,1-.55,1c-2.66,2.81-5.44,5.49-8,8.41-1.82,2.1-4.41,4.33-4.78,6.81a171.43,171.43,0,0,0-1.68,22.2c-.14,7.6.42,15.19.66,22.26l-2.31,2c.68.87,1.34,1.76,2,2.61.4.48,1,.83,1.21,1.37.09.26-.47.89-.82,1.25-1.07,1.08-1.93,2.32-.12,3.28a12.19,12.19,0,0,0,4.89,1.59c10.6.54,21.19,1,31.8,1.27,10.18.24,20.38.19,30.57.29,3.27,0,6.56.28,9.83.16,13.43-.49,26.87-1,40.29-1.69a92.15,92.15,0,0,0,13.48-2C500.1,227.35,500.66,192.49,499.24,177.94Zm-109-33.47,4.45-10.14,3.7-6.11,9.89-1.4,8.09-1h33.87l10,.81,6.2,1,3.1,2,1.75,4.7,1.71,5.33,2.55,7.42,2.91,8.62H387.13Z"/></g><path class="cls-2" d="M376.46,168.3c-.28.09-.82.44-1.35,5.06-.48,4.26-.72,6.39,0,7.58s2.78,1.84,6.76,2.88c3.23.86,5.14,1.35,7.77,1.08,1-.1,4.89-.49,5.06-1.8.29-2.15-9.45-5.78-9.45-5.78h0s-2.73-2.71-5.4-5.78C377.61,169,377.09,168.11,376.46,168.3Z"/><path class="cls-2" d="M491.25,168.55c.28.09.82.44,1.35,5.06.48,4.26.72,6.39,0,7.58s-2.78,1.84-6.76,2.88c-3.23.86-5.14,1.35-7.77,1.08-1-.1-4.89-.49-5.06-1.8-.29-2.15,9.45-5.78,9.45-5.78s2.73-2.71,5.4-5.78C490.11,169.25,490.62,168.36,491.25,168.55Z"/><polygon class="cls-2" points="384.67 208.6 385.96 207.15 388.37 206.32 391.57 205.6 434.56 206.63 456.92 206.53 473.58 205.6 476.2 205.6 479.1 206.63 481.81 208.6 482.81 209.53 445.5 211.81 428.46 211.81 404.74 211.19 392.63 210.16 386.15 209.53 384.67 208.6"/><path class="cls-2" d="M475.57,147.08,473,139.66l-1.71-5.33-1.75-4.7-3.1-2-6.2-1-10-.81H416.37l-8.09,1-9.89,1.4-3.7,6.11-4.45,10.14-3.11,11.22h91.35Z"/><g id="b2gxEa-4" data-name="b2gxEa"><path class="cls-1" d="M662.24,177.94c-.28-2.87-.73-6.26-2.32-8.35-3.26-4.27-7.35-7.82-11.08-11.68a3.78,3.78,0,0,1-.55-1,5.05,5.05,0,0,1,1-.4c3.39-.66,6.78-1.23,10.15-2a2.39,2.39,0,0,0,1.47-1.64c.15-4.46-5.72-8.44-9.49-6.51a1.67,1.67,0,0,0-.82.94c-.45,1.85-.75,3.75-1.22,5.61a6.4,6.4,0,0,1-1,1.65c-.54-.42-1.37-.71-1.59-1.27-2.79-7-5.27-14.13-8.3-21-1.81-4.12-4.52-8.26-9.08-8.82a235,235,0,0,0-28.11-2.2c-11.1-.05-22.22.91-33.32,1.6-3.85.25-8,.57-10.45,4.33a85.86,85.86,0,0,0-7,12.28c-2.06,4.6-3.37,9.56-5.09,14.34a2,2,0,0,1-1.45,1,1.44,1.44,0,0,1-1.21-.82c-.49-2.08-.8-4.21-1.24-6.3a1.43,1.43,0,0,0-.65-.92c-2.94-1.4-8.49,1.56-9.47,4.93-.59,2,0,3.12,1.88,3.44,3.21.57,6.43,1,9.64,1.56a4.72,4.72,0,0,1,1,.43,4.15,4.15,0,0,1-.55,1c-2.66,2.81-5.44,5.49-8,8.41-1.82,2.1-4.41,4.33-4.78,6.81a171.43,171.43,0,0,0-1.68,22.2c-.14,7.6.42,15.19.66,22.26l-2.31,2c.68.87,1.34,1.76,2,2.61.4.48,1,.83,1.21,1.37.09.26-.47.89-.82,1.25-1.07,1.08-1.93,2.32-.12,3.28a12.19,12.19,0,0,0,4.89,1.59c10.6.54,21.19,1,31.8,1.27,10.18.24,20.38.19,30.57.29,3.27,0,6.56.28,9.83.16,13.43-.49,26.87-1,40.29-1.69a92.15,92.15,0,0,0,13.48-2C663.1,227.35,663.66,192.49,662.24,177.94Zm-109-33.47,4.45-10.14,3.7-6.11,9.89-1.4,8.09-1h33.87l10,.81,6.2,1,3.1,2,1.75,4.7,1.71,5.33,2.55,7.42,2.91,8.62H550.13Z"/></g><path class="cls-2" d="M539.46,168.3c-.28.09-.82.44-1.35,5.06-.48,4.26-.72,6.39,0,7.58s2.78,1.84,6.76,2.88c3.23.86,5.14,1.35,7.77,1.08,1-.1,4.89-.49,5.06-1.8.29-2.15-9.45-5.78-9.45-5.78h0s-2.73-2.71-5.4-5.78C540.61,169,540.09,168.11,539.46,168.3Z"/><path class="cls-2" d="M654.25,168.55c.28.09.82.44,1.35,5.06.48,4.26.72,6.39,0,7.58s-2.78,1.84-6.76,2.88c-3.23.86-5.14,1.35-7.77,1.08-1-.1-4.89-.49-5.06-1.8-.29-2.15,9.45-5.78,9.45-5.78s2.73-2.71,5.4-5.78C653.11,169.25,653.62,168.36,654.25,168.55Z"/><polygon class="cls-2" points="547.67 208.6 548.96 207.15 551.37 206.32 554.57 205.6 597.56 206.63 619.92 206.53 636.58 205.6 639.2 205.6 642.1 206.63 644.81 208.6 645.81 209.53 608.5 211.81 591.46 211.81 567.74 211.19 555.63 210.16 549.15 209.53 547.67 208.6"/><path class="cls-2" d="M638.57,147.08,636,139.66l-1.71-5.33-1.75-4.7-3.1-2-6.2-1-10-.81H579.37l-8.09,1-9.89,1.4-3.7,6.11-4.45,10.14-3.11,11.22h91.35Z"/><g id="b2gxEa-5" data-name="b2gxEa"><path class="cls-1" d="M825.24,177.94c-.28-2.87-.73-6.26-2.32-8.35-3.26-4.27-7.35-7.82-11.08-11.68a3.78,3.78,0,0,1-.55-1,5.05,5.05,0,0,1,1-.4c3.39-.66,6.78-1.23,10.15-2a2.39,2.39,0,0,0,1.47-1.64c.15-4.46-5.72-8.44-9.49-6.51a1.67,1.67,0,0,0-.82.94c-.45,1.85-.75,3.75-1.22,5.61a6.4,6.4,0,0,1-1,1.65c-.54-.42-1.37-.71-1.59-1.27-2.79-7-5.27-14.13-8.3-21-1.81-4.12-4.52-8.26-9.08-8.82a235,235,0,0,0-28.11-2.2c-11.1-.05-22.22.91-33.32,1.6-3.85.25-8,.57-10.45,4.33a85.86,85.86,0,0,0-7,12.28c-2.06,4.6-3.37,9.56-5.09,14.34a2,2,0,0,1-1.45,1,1.44,1.44,0,0,1-1.21-.82c-.49-2.08-.8-4.21-1.24-6.3a1.43,1.43,0,0,0-.65-.92c-2.94-1.4-8.49,1.56-9.47,4.93-.59,2,0,3.12,1.88,3.44,3.21.57,6.43,1,9.64,1.56a4.72,4.72,0,0,1,1,.43,4.15,4.15,0,0,1-.55,1c-2.66,2.81-5.44,5.49-8,8.41-1.82,2.1-4.41,4.33-4.78,6.81a171.43,171.43,0,0,0-1.68,22.2c-.14,7.6.42,15.19.66,22.26l-2.31,2c.68.87,1.34,1.76,2,2.61.4.48,1,.83,1.21,1.37.09.26-.47.89-.82,1.25-1.07,1.08-1.93,2.32-.12,3.28a12.19,12.19,0,0,0,4.89,1.59c10.6.54,21.19,1,31.8,1.27,10.18.24,20.38.19,30.57.29,3.27,0,6.56.28,9.83.16,13.43-.49,26.87-1,40.29-1.69a92.15,92.15,0,0,0,13.48-2C826.1,227.35,826.66,192.49,825.24,177.94Zm-109-33.47,4.45-10.14,3.7-6.11,9.89-1.4,8.09-1h33.87l10,.81,6.2,1,3.1,2,1.75,4.7,1.71,5.33,2.55,7.42,2.91,8.62H713.13Z"/></g><path class="cls-2" d="M702.46,168.3c-.28.09-.82.44-1.35,5.06-.48,4.26-.72,6.39,0,7.58s2.78,1.84,6.76,2.88c3.23.86,5.14,1.35,7.77,1.08,1-.1,4.89-.49,5.06-1.8.29-2.15-9.45-5.78-9.45-5.78h0s-2.73-2.71-5.4-5.78C703.61,169,703.09,168.11,702.46,168.3Z"/><path class="cls-2" d="M817.25,168.55c.28.09.82.44,1.35,5.06.48,4.26.72,6.39,0,7.58s-2.78,1.84-6.76,2.88c-3.23.86-5.14,1.35-7.77,1.08-1-.1-4.89-.49-5.06-1.8-.29-2.15,9.45-5.78,9.45-5.78s2.73-2.71,5.4-5.78C816.11,169.25,816.62,168.36,817.25,168.55Z"/><polygon class="cls-2" points="710.67 208.6 711.96 207.15 714.37 206.32 717.57 205.6 760.56 206.63 782.92 206.53 799.58 205.6 802.2 205.6 805.1 206.63 807.81 208.6 808.81 209.53 771.5 211.81 754.46 211.81 730.74 211.19 718.63 210.16 712.15 209.53 710.67 208.6"/><path class="cls-2" d="M801.57,147.08,799,139.66l-1.71-5.33-1.75-4.7-3.1-2-6.2-1-10-.81H742.37l-8.09,1-9.89,1.4-3.7,6.11-4.45,10.14-3.11,11.22h91.35Z"/><g id="b2gxEa-6" data-name="b2gxEa"><path class="cls-1" d="M988.24,177.94c-.28-2.87-.73-6.26-2.32-8.35-3.26-4.27-7.35-7.82-11.08-11.68a3.78,3.78,0,0,1-.55-1,5.05,5.05,0,0,1,1-.4c3.39-.66,6.78-1.23,10.15-2a2.39,2.39,0,0,0,1.47-1.64c.15-4.46-5.72-8.44-9.49-6.51a1.67,1.67,0,0,0-.82.94c-.45,1.85-.75,3.75-1.22,5.61a6.4,6.4,0,0,1-1,1.65c-.54-.42-1.37-.71-1.59-1.27-2.79-7-5.27-14.13-8.3-21-1.81-4.12-4.52-8.26-9.08-8.82a235,235,0,0,0-28.11-2.2c-11.1-.05-22.22.91-33.32,1.6-3.85.25-8,.57-10.45,4.33a85.86,85.86,0,0,0-7,12.28c-2.06,4.6-3.37,9.56-5.09,14.34a2,2,0,0,1-1.45,1,1.44,1.44,0,0,1-1.21-.82c-.49-2.08-.8-4.21-1.24-6.3a1.43,1.43,0,0,0-.65-.92c-2.94-1.4-8.49,1.56-9.47,4.93-.59,2,0,3.12,1.88,3.44,3.21.57,6.43,1,9.64,1.56a4.72,4.72,0,0,1,1,.43,4.15,4.15,0,0,1-.55,1c-2.66,2.81-5.44,5.49-8,8.41-1.82,2.1-4.41,4.33-4.78,6.81a171.43,171.43,0,0,0-1.68,22.2c-.14,7.6.42,15.19.66,22.26l-2.31,2c.68.87,1.34,1.76,2,2.61.4.48,1,.83,1.21,1.37.09.26-.47.89-.82,1.25-1.07,1.08-1.93,2.32-.12,3.28a12.19,12.19,0,0,0,4.89,1.59c10.6.54,21.19,1,31.8,1.27,10.18.24,20.38.19,30.57.29,3.27,0,6.56.28,9.83.16,13.43-.49,26.87-1,40.29-1.69a92.15,92.15,0,0,0,13.48-2C989.1,227.35,989.66,192.49,988.24,177.94Zm-109-33.47,4.45-10.14,3.7-6.11,9.89-1.4,8.09-1h33.87l10,.81,6.2,1,3.1,2,1.75,4.7,1.71,5.33,2.55,7.42,2.91,8.62H876.13Z"/></g><path class="cls-2" d="M865.46,168.3c-.28.09-.82.44-1.35,5.06-.48,4.26-.72,6.39,0,7.58s2.78,1.84,6.76,2.88c3.23.86,5.14,1.35,7.77,1.08,1-.1,4.89-.49,5.06-1.8.29-2.15-9.45-5.78-9.45-5.78h0s-2.73-2.71-5.4-5.78C866.61,169,866.09,168.11,865.46,168.3Z"/><path class="cls-2" d="M980.25,168.55c.28.09.82.44,1.35,5.06.48,4.26.72,6.39,0,7.58s-2.78,1.84-6.76,2.88c-3.23.86-5.14,1.35-7.77,1.08-1-.1-4.89-.49-5.06-1.8-.29-2.15,9.45-5.78,9.45-5.78s2.73-2.71,5.4-5.78C979.11,169.25,979.62,168.36,980.25,168.55Z"/><polygon class="cls-2" points="873.67 208.6 874.96 207.15 877.37 206.32 880.57 205.6 923.56 206.63 945.92 206.53 962.58 205.6 965.2 205.6 968.1 206.63 970.81 208.6 971.81 209.53 934.5 211.81 917.46 211.81 893.74 211.19 881.63 210.16 875.15 209.53 873.67 208.6"/><path class="cls-2" d="M964.57,147.08,962,139.66l-1.71-5.33-1.75-4.7-3.1-2-6.2-1-10-.81H905.37l-8.09,1-9.89,1.4-3.7,6.11-4.45,10.14-3.11,11.22h91.35Z"/><g id="b2gxEa-7" data-name="b2gxEa"><path class="cls-1" d="M1151.24,177.94c-.28-2.87-.73-6.26-2.32-8.35-3.26-4.27-7.35-7.82-11.08-11.68a3.78,3.78,0,0,1-.55-1,5.05,5.05,0,0,1,1-.4c3.39-.66,6.78-1.23,10.15-2a2.39,2.39,0,0,0,1.47-1.64c.15-4.46-5.72-8.44-9.49-6.51a1.67,1.67,0,0,0-.82.94c-.45,1.85-.75,3.75-1.22,5.61a6.4,6.4,0,0,1-1,1.65c-.54-.42-1.37-.71-1.59-1.27-2.79-7-5.27-14.13-8.3-21-1.81-4.12-4.52-8.26-9.08-8.82a235,235,0,0,0-28.11-2.2c-11.1-.05-22.22.91-33.32,1.6-3.85.25-8,.57-10.45,4.33a85.86,85.86,0,0,0-7,12.28c-2.06,4.6-3.37,9.56-5.09,14.34a2,2,0,0,1-1.45,1,1.44,1.44,0,0,1-1.21-.82c-.49-2.08-.8-4.21-1.24-6.3a1.43,1.43,0,0,0-.65-.92c-2.94-1.4-8.49,1.56-9.47,4.93-.59,2,0,3.12,1.88,3.44,3.21.57,6.43,1,9.64,1.56a4.72,4.72,0,0,1,1,.43,4.15,4.15,0,0,1-.55,1c-2.66,2.81-5.44,5.49-8,8.41-1.82,2.1-4.41,4.33-4.78,6.81a171.43,171.43,0,0,0-1.68,22.2c-.14,7.6.42,15.19.66,22.26l-2.31,2c.68.87,1.34,1.76,2,2.61.4.48,1,.83,1.21,1.37.09.26-.47.89-.82,1.25-1.07,1.08-1.93,2.32-.12,3.28a12.19,12.19,0,0,0,4.89,1.59c10.6.54,21.19,1,31.8,1.27,10.18.24,20.38.19,30.57.29,3.27,0,6.56.28,9.83.16,13.43-.49,26.87-1,40.29-1.69a92.15,92.15,0,0,0,13.48-2C1152.09,227.35,1152.66,192.49,1151.24,177.94Zm-109-33.47,4.45-10.14,3.7-6.11,9.89-1.4,8.09-1h33.87l10,.81,6.2,1,3.1,2,1.75,4.7,1.71,5.33,2.55,7.42,2.91,8.62h-91.35Z"/></g><path class="cls-2" d="M1028.46,168.3c-.28.09-.82.44-1.35,5.06-.48,4.26-.72,6.39,0,7.58s2.78,1.84,6.76,2.88c3.23.86,5.14,1.35,7.77,1.08,1-.1,4.89-.49,5.06-1.8.29-2.15-9.45-5.78-9.45-5.78h0s-2.73-2.71-5.4-5.78C1029.61,169,1029.09,168.11,1028.46,168.3Z"/><path class="cls-2" d="M1143.25,168.55c.28.09.82.44,1.35,5.06.48,4.26.72,6.39,0,7.58s-2.78,1.84-6.76,2.88c-3.23.86-5.14,1.35-7.77,1.08-1-.1-4.89-.49-5.06-1.8-.29-2.15,9.45-5.78,9.45-5.78s2.73-2.71,5.4-5.78C1142.11,169.25,1142.62,168.36,1143.25,168.55Z"/><polygon class="cls-2" points="1036.67 208.6 1037.96 207.15 1040.37 206.32 1043.57 205.6 1086.56 206.63 1108.92 206.53 1125.58 205.6 1128.2 205.6 1131.1 206.63 1133.81 208.6 1134.81 209.53 1097.5 211.81 1080.46 211.81 1056.74 211.19 1044.63 210.16 1038.15 209.53 1036.67 208.6"/><path class="cls-2" d="M1127.57,147.08l-2.55-7.42-1.71-5.33-1.75-4.7-3.1-2-6.2-1-10-.81h-33.87l-8.09,1-9.89,1.4-3.7,6.11-4.45,10.14-3.11,11.22h91.35Z"/><g id="b2gxEa-8" data-name="b2gxEa"><path class="cls-1" d="M1314.24,177.94c-.28-2.87-.73-6.26-2.32-8.35-3.26-4.27-7.35-7.82-11.08-11.68a3.78,3.78,0,0,1-.55-1,5.05,5.05,0,0,1,1-.4c3.39-.66,6.78-1.23,10.15-2a2.39,2.39,0,0,0,1.47-1.64c.15-4.46-5.72-8.44-9.49-6.51a1.67,1.67,0,0,0-.82.94c-.45,1.85-.75,3.75-1.22,5.61a6.4,6.4,0,0,1-1,1.65c-.54-.42-1.37-.71-1.59-1.27-2.79-7-5.27-14.13-8.3-21-1.81-4.12-4.52-8.26-9.08-8.82a235,235,0,0,0-28.11-2.2c-11.1-.05-22.22.91-33.32,1.6-3.85.25-8,.57-10.45,4.33a85.86,85.86,0,0,0-7,12.28c-2.06,4.6-3.37,9.56-5.09,14.34a2,2,0,0,1-1.45,1,1.44,1.44,0,0,1-1.21-.82c-.49-2.08-.8-4.21-1.24-6.3a1.43,1.43,0,0,0-.65-.92c-2.94-1.4-8.49,1.56-9.47,4.93-.59,2,0,3.12,1.88,3.44,3.21.57,6.43,1,9.64,1.56a4.72,4.72,0,0,1,1,.43,4.15,4.15,0,0,1-.55,1c-2.66,2.81-5.44,5.49-8,8.41-1.82,2.1-4.41,4.33-4.78,6.81a171.43,171.43,0,0,0-1.68,22.2c-.14,7.6.42,15.19.66,22.26l-2.31,2c.68.87,1.34,1.76,2.05,2.61.4.48,1,.83,1.21,1.37.09.26-.47.89-.82,1.25-1.07,1.08-1.93,2.32-.12,3.28a12.19,12.19,0,0,0,4.89,1.59c10.6.54,21.19,1,31.8,1.27,10.18.24,20.38.19,30.57.29,3.27,0,6.56.28,9.83.16,13.43-.49,26.87-1,40.29-1.69a92.15,92.15,0,0,0,13.48-2C1315.09,227.35,1315.66,192.49,1314.24,177.94Zm-109-33.47,4.45-10.14,3.7-6.11,9.89-1.4,8.09-1h33.87l10,.81,6.2,1,3.1,2,1.75,4.7,1.71,5.33,2.55,7.42,2.91,8.62h-91.35Z"/></g><path class="cls-2" d="M1191.46,168.3c-.28.09-.82.44-1.35,5.06-.48,4.26-.72,6.39,0,7.58s2.78,1.84,6.76,2.88c3.23.86,5.14,1.35,7.77,1.08,1-.1,4.89-.49,5.06-1.8.29-2.15-9.45-5.78-9.45-5.78h0s-2.73-2.71-5.4-5.78C1192.61,169,1192.09,168.11,1191.46,168.3Z"/><path class="cls-2" d="M1306.25,168.55c.28.09.82.44,1.35,5.06.48,4.26.72,6.39,0,7.58s-2.78,1.84-6.76,2.88c-3.23.86-5.14,1.35-7.77,1.08-1-.1-4.89-.49-5.06-1.8-.29-2.15,9.45-5.78,9.45-5.78s2.73-2.71,5.4-5.78C1305.11,169.25,1305.62,168.36,1306.25,168.55Z"/><polygon class="cls-2" points="1199.67 208.6 1200.96 207.15 1203.37 206.32 1206.57 205.6 1249.56 206.63 1271.92 206.53 1288.58 205.6 1291.2 205.6 1294.1 206.63 1296.81 208.6 1297.81 209.53 1260.5 211.81 1243.46 211.81 1219.74 211.19 1207.63 210.16 1201.15 209.53 1199.67 208.6"/><path class="cls-2" d="M1290.57,147.08l-2.55-7.42-1.71-5.33-1.75-4.7-3.1-2-6.2-1-10-.81h-33.87l-8.09,1-9.89,1.4-3.7,6.11-4.45,10.14-3.11,11.22h91.35Z"/><g id="b2gxEa-9" data-name="b2gxEa"><path class="cls-1" d="M173.24,302.58c-.28-2.87-.73-6.26-2.32-8.35-3.26-4.27-7.35-7.82-11.08-11.68a3.78,3.78,0,0,1-.55-1,5.05,5.05,0,0,1,1-.4c3.39-.66,6.78-1.23,10.15-2a2.39,2.39,0,0,0,1.47-1.64c.15-4.46-5.72-8.44-9.49-6.51a1.67,1.67,0,0,0-.82.94c-.45,1.85-.75,3.75-1.22,5.61a6.4,6.4,0,0,1-1,1.65c-.54-.42-1.37-.71-1.59-1.27-2.79-7-5.27-14.13-8.3-21-1.81-4.12-4.52-8.26-9.08-8.82a235,235,0,0,0-28.11-2.2c-11.1-.05-22.22.91-33.32,1.6-3.85.25-8,.57-10.45,4.33a85.86,85.86,0,0,0-7,12.28c-2.06,4.6-3.37,9.56-5.09,14.34a2,2,0,0,1-1.45,1,1.44,1.44,0,0,1-1.21-.82c-.49-2.08-.8-4.21-1.24-6.3a1.43,1.43,0,0,0-.65-.92c-2.94-1.4-8.49,1.56-9.47,4.93-.59,2,0,3.12,1.88,3.44,3.21.57,6.43,1,9.64,1.56a4.72,4.72,0,0,1,1,.43,4.15,4.15,0,0,1-.55,1c-2.66,2.81-5.44,5.49-8,8.41-1.82,2.1-4.41,4.33-4.78,6.81A171.43,171.43,0,0,0,40,320.18c-.14,7.6.42,15.19.66,22.26l-2.31,2c.68.87,1.34,1.76,2,2.61.4.48,1,.83,1.21,1.37.09.26-.47.89-.82,1.25-1.07,1.08-1.93,2.32-.12,3.28a12.19,12.19,0,0,0,4.89,1.59c10.6.54,21.19,1,31.8,1.27,10.18.24,20.38.19,30.57.29,3.27,0,6.56.28,9.83.16,13.43-.49,26.87-1,40.29-1.69a92.15,92.15,0,0,0,13.48-2C174.1,352,174.66,317.13,173.24,302.58Zm-109-33.47L68.69,259l3.7-6.11,9.89-1.4,8.09-1h33.87l10,.81,6.2,1,3.1,2,1.75,4.7L147,264.3l2.55,7.42,2.91,8.62H61.13Z"/></g><path class="cls-2" d="M50.46,292.94c-.28.09-.82.44-1.35,5.06-.48,4.26-.72,6.39,0,7.58s2.78,1.84,6.76,2.88c3.23.86,5.14,1.35,7.77,1.08,1-.1,4.89-.49,5.06-1.8.29-2.15-9.45-5.78-9.45-5.78h0s-2.73-2.71-5.4-5.78C51.61,293.63,51.09,292.75,50.46,292.94Z"/><path class="cls-2" d="M165.25,293.19c.28.09.82.44,1.35,5.06.48,4.26.72,6.39,0,7.58s-2.78,1.84-6.76,2.88c-3.23.86-5.14,1.35-7.77,1.08-1-.1-4.89-.49-5.06-1.8-.29-2.15,9.45-5.78,9.45-5.78s2.73-2.71,5.4-5.78C164.11,293.89,164.62,293,165.25,293.19Z"/><polygon class="cls-2" points="58.67 333.24 59.96 331.79 62.37 330.96 65.57 330.24 108.56 331.27 130.92 331.17 147.58 330.24 150.2 330.24 153.1 331.27 155.81 333.24 156.81 334.17 119.5 336.45 102.46 336.45 78.74 335.83 66.63 334.8 60.15 334.17 58.67 333.24"/><path class="cls-2" d="M149.57,271.72,147,264.3,145.31,259l-1.75-4.7-3.1-2-6.2-1-10-.81H90.37l-8.09,1-9.89,1.4L68.69,259l-4.45,10.14-3.11,11.22h91.35Z"/><g id="b2gxEa-10" data-name="b2gxEa"><path class="cls-1" d="M336.24,302.58c-.28-2.87-.73-6.26-2.32-8.35-3.26-4.27-7.35-7.82-11.08-11.68a3.78,3.78,0,0,1-.55-1,5.05,5.05,0,0,1,1-.4c3.39-.66,6.78-1.23,10.15-2a2.39,2.39,0,0,0,1.47-1.64c.15-4.46-5.72-8.44-9.49-6.51a1.67,1.67,0,0,0-.82.94c-.45,1.85-.75,3.75-1.22,5.61a6.4,6.4,0,0,1-1,1.65c-.54-.42-1.37-.71-1.59-1.27-2.79-7-5.27-14.13-8.3-21-1.81-4.12-4.52-8.26-9.08-8.82a235,235,0,0,0-28.11-2.2c-11.1-.05-22.22.91-33.32,1.6-3.85.25-8,.57-10.45,4.33a85.86,85.86,0,0,0-7,12.28c-2.06,4.6-3.37,9.56-5.09,14.34a2,2,0,0,1-1.45,1,1.44,1.44,0,0,1-1.21-.82c-.49-2.08-.8-4.21-1.24-6.3a1.43,1.43,0,0,0-.65-.92c-2.94-1.4-8.49,1.56-9.47,4.93-.59,2,0,3.12,1.88,3.44,3.21.57,6.43,1,9.64,1.56a4.72,4.72,0,0,1,1,.43,4.15,4.15,0,0,1-.55,1c-2.66,2.81-5.44,5.49-8,8.41-1.82,2.1-4.41,4.33-4.78,6.81a171.43,171.43,0,0,0-1.68,22.2c-.14,7.6.42,15.19.66,22.26l-2.31,2c.68.87,1.34,1.76,2.05,2.61.4.48,1,.83,1.21,1.37.09.26-.47.89-.82,1.25-1.07,1.08-1.93,2.32-.12,3.28a12.19,12.19,0,0,0,4.89,1.59c10.6.54,21.19,1,31.8,1.27,10.18.24,20.38.19,30.57.29,3.27,0,6.56.28,9.83.16,13.43-.49,26.87-1,40.29-1.69a92.15,92.15,0,0,0,13.48-2C337.1,352,337.66,317.13,336.24,302.58Zm-109-33.47L231.69,259l3.7-6.11,9.89-1.4,8.09-1h33.87l10,.81,6.2,1,3.1,2,1.75,4.7L310,264.3l2.55,7.42,2.91,8.62H224.13Z"/></g><path class="cls-2" d="M213.46,292.94c-.28.09-.82.44-1.35,5.06-.48,4.26-.72,6.39,0,7.58s2.78,1.84,6.76,2.88c3.23.86,5.14,1.35,7.77,1.08,1-.1,4.89-.49,5.06-1.8.29-2.15-9.45-5.78-9.45-5.78h0s-2.73-2.71-5.4-5.78C214.61,293.63,214.09,292.75,213.46,292.94Z"/><path class="cls-2" d="M328.25,293.19c.28.09.82.44,1.35,5.06.48,4.26.72,6.39,0,7.58s-2.78,1.84-6.76,2.88c-3.23.86-5.14,1.35-7.77,1.08-1-.1-4.89-.49-5.06-1.8-.29-2.15,9.45-5.78,9.45-5.78s2.73-2.71,5.4-5.78C327.11,293.89,327.62,293,328.25,293.19Z"/><polygon class="cls-2" points="221.67 333.24 222.96 331.79 225.37 330.96 228.57 330.24 271.56 331.27 293.92 331.17 310.58 330.24 313.2 330.24 316.1 331.27 318.81 333.24 319.81 334.17 282.5 336.45 265.46 336.45 241.74 335.83 229.63 334.8 223.15 334.17 221.67 333.24"/><path class="cls-2" d="M312.57,271.72,310,264.3,308.31,259l-1.75-4.7-3.1-2-6.2-1-10-.81H253.37l-8.09,1-9.89,1.4-3.7,6.11-4.45,10.14-3.11,11.22h91.35Z"/><g id="b2gxEa-11" data-name="b2gxEa"><path class="cls-1" d="M499.24,302.58c-.28-2.87-.73-6.26-2.32-8.35-3.26-4.27-7.35-7.82-11.08-11.68a3.78,3.78,0,0,1-.55-1,5.05,5.05,0,0,1,1-.4c3.39-.66,6.78-1.23,10.15-2a2.39,2.39,0,0,0,1.47-1.64c.15-4.46-5.72-8.44-9.49-6.51a1.67,1.67,0,0,0-.82.94c-.45,1.85-.75,3.75-1.22,5.61a6.4,6.4,0,0,1-1,1.65c-.54-.42-1.37-.71-1.59-1.27-2.79-7-5.27-14.13-8.3-21-1.81-4.12-4.52-8.26-9.08-8.82a235,235,0,0,0-28.11-2.2c-11.1-.05-22.22.91-33.32,1.6-3.85.25-8,.57-10.45,4.33a85.86,85.86,0,0,0-7,12.28c-2.06,4.6-3.37,9.56-5.09,14.34a2,2,0,0,1-1.45,1,1.44,1.44,0,0,1-1.21-.82c-.49-2.08-.8-4.21-1.24-6.3a1.43,1.43,0,0,0-.65-.92c-2.94-1.4-8.49,1.56-9.47,4.93-.59,2,0,3.12,1.88,3.44,3.21.57,6.43,1,9.64,1.56a4.72,4.72,0,0,1,1,.43,4.15,4.15,0,0,1-.55,1c-2.66,2.81-5.44,5.49-8,8.41-1.82,2.1-4.41,4.33-4.78,6.81a171.43,171.43,0,0,0-1.68,22.2c-.14,7.6.42,15.19.66,22.26l-2.31,2c.68.87,1.34,1.76,2,2.61.4.48,1,.83,1.21,1.37.09.26-.47.89-.82,1.25-1.07,1.08-1.93,2.32-.12,3.28a12.19,12.19,0,0,0,4.89,1.59c10.6.54,21.19,1,31.8,1.27,10.18.24,20.38.19,30.57.29,3.27,0,6.56.28,9.83.16,13.43-.49,26.87-1,40.29-1.69a92.15,92.15,0,0,0,13.48-2C500.1,352,500.66,317.13,499.24,302.58Zm-109-33.47L394.69,259l3.7-6.11,9.89-1.4,8.09-1h33.87l10,.81,6.2,1,3.1,2,1.75,4.7L473,264.3l2.55,7.42,2.91,8.62H387.13Z"/></g><path class="cls-2" d="M376.46,292.94c-.28.09-.82.44-1.35,5.06-.48,4.26-.72,6.39,0,7.58s2.78,1.84,6.76,2.88c3.23.86,5.14,1.35,7.77,1.08,1-.1,4.89-.49,5.06-1.8.29-2.15-9.45-5.78-9.45-5.78h0s-2.73-2.71-5.4-5.78C377.61,293.63,377.09,292.75,376.46,292.94Z"/><path class="cls-2" d="M491.25,293.19c.28.09.82.44,1.35,5.06.48,4.26.72,6.39,0,7.58s-2.78,1.84-6.76,2.88c-3.23.86-5.14,1.35-7.77,1.08-1-.1-4.89-.49-5.06-1.8-.29-2.15,9.45-5.78,9.45-5.78s2.73-2.71,5.4-5.78C490.11,293.89,490.62,293,491.25,293.19Z"/><polygon class="cls-2" points="384.67 333.24 385.96 331.79 388.37 330.96 391.57 330.24 434.56 331.27 456.92 331.17 473.58 330.24 476.2 330.24 479.1 331.27 481.81 333.24 482.81 334.17 445.5 336.45 428.46 336.45 404.74 335.83 392.63 334.8 386.15 334.17 384.67 333.24"/><path class="cls-2" d="M475.57,271.72,473,264.3,471.31,259l-1.75-4.7-3.1-2-6.2-1-10-.81H416.37l-8.09,1-9.89,1.4-3.7,6.11-4.45,10.14-3.11,11.22h91.35Z"/><g id="b2gxEa-12" data-name="b2gxEa"><path class="cls-1" d="M662.24,302.58c-.28-2.87-.73-6.26-2.32-8.35-3.26-4.27-7.35-7.82-11.08-11.68a3.78,3.78,0,0,1-.55-1,5.05,5.05,0,0,1,1-.4c3.39-.66,6.78-1.23,10.15-2a2.39,2.39,0,0,0,1.47-1.64c.15-4.46-5.72-8.44-9.49-6.51a1.67,1.67,0,0,0-.82.94c-.45,1.85-.75,3.75-1.22,5.61a6.4,6.4,0,0,1-1,1.65c-.54-.42-1.37-.71-1.59-1.27-2.79-7-5.27-14.13-8.3-21-1.81-4.12-4.52-8.26-9.08-8.82a235,235,0,0,0-28.11-2.2c-11.1-.05-22.22.91-33.32,1.6-3.85.25-8,.57-10.45,4.33a85.86,85.86,0,0,0-7,12.28c-2.06,4.6-3.37,9.56-5.09,14.34a2,2,0,0,1-1.45,1,1.44,1.44,0,0,1-1.21-.82c-.49-2.08-.8-4.21-1.24-6.3a1.43,1.43,0,0,0-.65-.92c-2.94-1.4-8.49,1.56-9.47,4.93-.59,2,0,3.12,1.88,3.44,3.21.57,6.43,1,9.64,1.56a4.72,4.72,0,0,1,1,.43,4.15,4.15,0,0,1-.55,1c-2.66,2.81-5.44,5.49-8,8.41-1.82,2.1-4.41,4.33-4.78,6.81a171.43,171.43,0,0,0-1.68,22.2c-.14,7.6.42,15.19.66,22.26l-2.31,2c.68.87,1.34,1.76,2,2.61.4.48,1,.83,1.21,1.37.09.26-.47.89-.82,1.25-1.07,1.08-1.93,2.32-.12,3.28a12.19,12.19,0,0,0,4.89,1.59c10.6.54,21.19,1,31.8,1.27,10.18.24,20.38.19,30.57.29,3.27,0,6.56.28,9.83.16,13.43-.49,26.87-1,40.29-1.69a92.15,92.15,0,0,0,13.48-2C663.1,352,663.66,317.13,662.24,302.58Zm-109-33.47L557.69,259l3.7-6.11,9.89-1.4,8.09-1h33.87l10,.81,6.2,1,3.1,2,1.75,4.7L636,264.3l2.55,7.42,2.91,8.62H550.13Z"/></g><path class="cls-2" d="M539.46,292.94c-.28.09-.82.44-1.35,5.06-.48,4.26-.72,6.39,0,7.58s2.78,1.84,6.76,2.88c3.23.86,5.14,1.35,7.77,1.08,1-.1,4.89-.49,5.06-1.8.29-2.15-9.45-5.78-9.45-5.78h0s-2.73-2.71-5.4-5.78C540.61,293.63,540.09,292.75,539.46,292.94Z"/><path class="cls-2" d="M654.25,293.19c.28.09.82.44,1.35,5.06.48,4.26.72,6.39,0,7.58s-2.78,1.84-6.76,2.88c-3.23.86-5.14,1.35-7.77,1.08-1-.1-4.89-.49-5.06-1.8-.29-2.15,9.45-5.78,9.45-5.78s2.73-2.71,5.4-5.78C653.11,293.89,653.62,293,654.25,293.19Z"/><polygon class="cls-2" points="547.67 333.24 548.96 331.79 551.37 330.96 554.57 330.24 597.56 331.27 619.92 331.17 636.58 330.24 639.2 330.24 642.1 331.27 644.81 333.24 645.81 334.17 608.5 336.45 591.46 336.45 567.74 335.83 555.63 334.8 549.15 334.17 547.67 333.24"/><path class="cls-2" d="M638.57,271.72,636,264.3,634.31,259l-1.75-4.7-3.1-2-6.2-1-10-.81H579.37l-8.09,1-9.89,1.4-3.7,6.11-4.45,10.14-3.11,11.22h91.35Z"/><g id="b2gxEa-13" data-name="b2gxEa"><path class="cls-1" d="M825.24,302.58c-.28-2.87-.73-6.26-2.32-8.35-3.26-4.27-7.35-7.82-11.08-11.68a3.78,3.78,0,0,1-.55-1,5.05,5.05,0,0,1,1-.4c3.39-.66,6.78-1.23,10.15-2a2.39,2.39,0,0,0,1.47-1.64c.15-4.46-5.72-8.44-9.49-6.51a1.67,1.67,0,0,0-.82.94c-.45,1.85-.75,3.75-1.22,5.61a6.4,6.4,0,0,1-1,1.65c-.54-.42-1.37-.71-1.59-1.27-2.79-7-5.27-14.13-8.3-21-1.81-4.12-4.52-8.26-9.08-8.82a235,235,0,0,0-28.11-2.2c-11.1-.05-22.22.91-33.32,1.6-3.85.25-8,.57-10.45,4.33a85.86,85.86,0,0,0-7,12.28c-2.06,4.6-3.37,9.56-5.09,14.34a2,2,0,0,1-1.45,1,1.44,1.44,0,0,1-1.21-.82c-.49-2.08-.8-4.21-1.24-6.3a1.43,1.43,0,0,0-.65-.92c-2.94-1.4-8.49,1.56-9.47,4.93-.59,2,0,3.12,1.88,3.44,3.21.57,6.43,1,9.64,1.56a4.72,4.72,0,0,1,1,.43,4.15,4.15,0,0,1-.55,1c-2.66,2.81-5.44,5.49-8,8.41-1.82,2.1-4.41,4.33-4.78,6.81a171.43,171.43,0,0,0-1.68,22.2c-.14,7.6.42,15.19.66,22.26l-2.31,2c.68.87,1.34,1.76,2,2.61.4.48,1,.83,1.21,1.37.09.26-.47.89-.82,1.25-1.07,1.08-1.93,2.32-.12,3.28a12.19,12.19,0,0,0,4.89,1.59c10.6.54,21.19,1,31.8,1.27,10.18.24,20.38.19,30.57.29,3.27,0,6.56.28,9.83.16,13.43-.49,26.87-1,40.29-1.69a92.15,92.15,0,0,0,13.48-2C826.1,352,826.66,317.13,825.24,302.58Zm-109-33.47L720.69,259l3.7-6.11,9.89-1.4,8.09-1h33.87l10,.81,6.2,1,3.1,2,1.75,4.7L799,264.3l2.55,7.42,2.91,8.62H713.13Z"/></g><path class="cls-2" d="M702.46,292.94c-.28.09-.82.44-1.35,5.06-.48,4.26-.72,6.39,0,7.58s2.78,1.84,6.76,2.88c3.23.86,5.14,1.35,7.77,1.08,1-.1,4.89-.49,5.06-1.8.29-2.15-9.45-5.78-9.45-5.78h0s-2.73-2.71-5.4-5.78C703.61,293.63,703.09,292.75,702.46,292.94Z"/><path class="cls-2" d="M817.25,293.19c.28.09.82.44,1.35,5.06.48,4.26.72,6.39,0,7.58s-2.78,1.84-6.76,2.88c-3.23.86-5.14,1.35-7.77,1.08-1-.1-4.89-.49-5.06-1.8-.29-2.15,9.45-5.78,9.45-5.78s2.73-2.71,5.4-5.78C816.11,293.89,816.62,293,817.25,293.19Z"/><polygon class="cls-2" points="710.67 333.24 711.96 331.79 714.37 330.96 717.57 330.24 760.56 331.27 782.92 331.17 799.58 330.24 802.2 330.24 805.1 331.27 807.81 333.24 808.81 334.17 771.5 336.45 754.46 336.45 730.74 335.83 718.63 334.8 712.15 334.17 710.67 333.24"/><path class="cls-2" d="M801.57,271.72,799,264.3,797.31,259l-1.75-4.7-3.1-2-6.2-1-10-.81H742.37l-8.09,1-9.89,1.4-3.7,6.11-4.45,10.14-3.11,11.22h91.35Z"/><g id="b2gxEa-14" data-name="b2gxEa"><path class="cls-1" d="M988.24,302.58c-.28-2.87-.73-6.26-2.32-8.35-3.26-4.27-7.35-7.82-11.08-11.68a3.78,3.78,0,0,1-.55-1,5.05,5.05,0,0,1,1-.4c3.39-.66,6.78-1.23,10.15-2a2.39,2.39,0,0,0,1.47-1.64c.15-4.46-5.72-8.44-9.49-6.51a1.67,1.67,0,0,0-.82.94c-.45,1.85-.75,3.75-1.22,5.61a6.4,6.4,0,0,1-1,1.65c-.54-.42-1.37-.71-1.59-1.27-2.79-7-5.27-14.13-8.3-21-1.81-4.12-4.52-8.26-9.08-8.82a235,235,0,0,0-28.11-2.2c-11.1-.05-22.22.91-33.32,1.6-3.85.25-8,.57-10.45,4.33a85.86,85.86,0,0,0-7,12.28c-2.06,4.6-3.37,9.56-5.09,14.34a2,2,0,0,1-1.45,1,1.44,1.44,0,0,1-1.21-.82c-.49-2.08-.8-4.21-1.24-6.3a1.43,1.43,0,0,0-.65-.92c-2.94-1.4-8.49,1.56-9.47,4.93-.59,2,0,3.12,1.88,3.44,3.21.57,6.43,1,9.64,1.56a4.72,4.72,0,0,1,1,.43,4.15,4.15,0,0,1-.55,1c-2.66,2.81-5.44,5.49-8,8.41-1.82,2.1-4.41,4.33-4.78,6.81a171.43,171.43,0,0,0-1.68,22.2c-.14,7.6.42,15.19.66,22.26l-2.31,2c.68.87,1.34,1.76,2,2.61.4.48,1,.83,1.21,1.37.09.26-.47.89-.82,1.25-1.07,1.08-1.93,2.32-.12,3.28a12.19,12.19,0,0,0,4.89,1.59c10.6.54,21.19,1,31.8,1.27,10.18.24,20.38.19,30.57.29,3.27,0,6.56.28,9.83.16,13.43-.49,26.87-1,40.29-1.69a92.15,92.15,0,0,0,13.48-2C989.1,352,989.66,317.13,988.24,302.58Zm-109-33.47L883.69,259l3.7-6.11,9.89-1.4,8.09-1h33.87l10,.81,6.2,1,3.1,2,1.75,4.7L962,264.3l2.55,7.42,2.91,8.62H876.13Z"/></g><path class="cls-2" d="M865.46,292.94c-.28.09-.82.44-1.35,5.06-.48,4.26-.72,6.39,0,7.58s2.78,1.84,6.76,2.88c3.23.86,5.14,1.35,7.77,1.08,1-.1,4.89-.49,5.06-1.8.29-2.15-9.45-5.78-9.45-5.78h0s-2.73-2.71-5.4-5.78C866.61,293.63,866.09,292.75,865.46,292.94Z"/><path class="cls-2" d="M980.25,293.19c.28.09.82.44,1.35,5.06.48,4.26.72,6.39,0,7.58s-2.78,1.84-6.76,2.88c-3.23.86-5.14,1.35-7.77,1.08-1-.1-4.89-.49-5.06-1.8-.29-2.15,9.45-5.78,9.45-5.78s2.73-2.71,5.4-5.78C979.11,293.89,979.62,293,980.25,293.19Z"/><polygon class="cls-2" points="873.67 333.24 874.96 331.79 877.37 330.96 880.57 330.24 923.56 331.27 945.92 331.17 962.58 330.24 965.2 330.24 968.1 331.27 970.81 333.24 971.81 334.17 934.5 336.45 917.46 336.45 893.74 335.83 881.63 334.8 875.15 334.17 873.67 333.24"/><path class="cls-2" d="M964.57,271.72,962,264.3,960.31,259l-1.75-4.7-3.1-2-6.2-1-10-.81H905.37l-8.09,1-9.89,1.4-3.7,6.11-4.45,10.14-3.11,11.22h91.35Z"/><g id="b2gxEa-15" data-name="b2gxEa"><path class="cls-1" d="M1151.24,302.58c-.28-2.87-.73-6.26-2.32-8.35-3.26-4.27-7.35-7.82-11.08-11.68a3.78,3.78,0,0,1-.55-1,5.05,5.05,0,0,1,1-.4c3.39-.66,6.78-1.23,10.15-2a2.39,2.39,0,0,0,1.47-1.64c.15-4.46-5.72-8.44-9.49-6.51a1.67,1.67,0,0,0-.82.94c-.45,1.85-.75,3.75-1.22,5.61a6.4,6.4,0,0,1-1,1.65c-.54-.42-1.37-.71-1.59-1.27-2.79-7-5.27-14.13-8.3-21-1.81-4.12-4.52-8.26-9.08-8.82a235,235,0,0,0-28.11-2.2c-11.1-.05-22.22.91-33.32,1.6-3.85.25-8,.57-10.45,4.33a85.86,85.86,0,0,0-7,12.28c-2.06,4.6-3.37,9.56-5.09,14.34a2,2,0,0,1-1.45,1,1.44,1.44,0,0,1-1.21-.82c-.49-2.08-.8-4.21-1.24-6.3a1.43,1.43,0,0,0-.65-.92c-2.94-1.4-8.49,1.56-9.47,4.93-.59,2,0,3.12,1.88,3.44,3.21.57,6.43,1,9.64,1.56a4.72,4.72,0,0,1,1,.43,4.15,4.15,0,0,1-.55,1c-2.66,2.81-5.44,5.49-8,8.41-1.82,2.1-4.41,4.33-4.78,6.81a171.43,171.43,0,0,0-1.68,22.2c-.14,7.6.42,15.19.66,22.26l-2.31,2c.68.87,1.34,1.76,2,2.61.4.48,1,.83,1.21,1.37.09.26-.47.89-.82,1.25-1.07,1.08-1.93,2.32-.12,3.28a12.19,12.19,0,0,0,4.89,1.59c10.6.54,21.19,1,31.8,1.27,10.18.24,20.38.19,30.57.29,3.27,0,6.56.28,9.83.16,13.43-.49,26.87-1,40.29-1.69a92.15,92.15,0,0,0,13.48-2C1152.09,352,1152.66,317.13,1151.24,302.58Zm-109-33.47,4.45-10.14,3.7-6.11,9.89-1.4,8.09-1h33.87l10,.81,6.2,1,3.1,2,1.75,4.7,1.71,5.33,2.55,7.42,2.91,8.62h-91.35Z"/></g><path class="cls-2" d="M1028.46,292.94c-.28.09-.82.44-1.35,5.06-.48,4.26-.72,6.39,0,7.58s2.78,1.84,6.76,2.88c3.23.86,5.14,1.35,7.77,1.08,1-.1,4.89-.49,5.06-1.8.29-2.15-9.45-5.78-9.45-5.78h0s-2.73-2.71-5.4-5.78C1029.61,293.63,1029.09,292.75,1028.46,292.94Z"/><path class="cls-2" d="M1143.25,293.19c.28.09.82.44,1.35,5.06.48,4.26.72,6.39,0,7.58s-2.78,1.84-6.76,2.88c-3.23.86-5.14,1.35-7.77,1.08-1-.1-4.89-.49-5.06-1.8-.29-2.15,9.45-5.78,9.45-5.78s2.73-2.71,5.4-5.78C1142.11,293.89,1142.62,293,1143.25,293.19Z"/><polygon class="cls-2" points="1036.67 333.24 1037.96 331.79 1040.37 330.96 1043.57 330.24 1086.56 331.27 1108.92 331.17 1125.58 330.24 1128.2 330.24 1131.1 331.27 1133.81 333.24 1134.81 334.17 1097.5 336.45 1080.46 336.45 1056.74 335.83 1044.63 334.8 1038.15 334.17 1036.67 333.24"/><path class="cls-2" d="M1127.57,271.72,1125,264.3l-1.71-5.33-1.75-4.7-3.1-2-6.2-1-10-.81h-33.87l-8.09,1-9.89,1.4-3.7,6.11-4.45,10.14-3.11,11.22h91.35Z"/><g id="b2gxEa-16" data-name="b2gxEa"><path class="cls-1" d="M1314.24,302.58c-.28-2.87-.73-6.26-2.32-8.35-3.26-4.27-7.35-7.82-11.08-11.68a3.78,3.78,0,0,1-.55-1,5.05,5.05,0,0,1,1-.4c3.39-.66,6.78-1.23,10.15-2a2.39,2.39,0,0,0,1.47-1.64c.15-4.46-5.72-8.44-9.49-6.51a1.67,1.67,0,0,0-.82.94c-.45,1.85-.75,3.75-1.22,5.61a6.4,6.4,0,0,1-1,1.65c-.54-.42-1.37-.71-1.59-1.27-2.79-7-5.27-14.13-8.3-21-1.81-4.12-4.52-8.26-9.08-8.82a235,235,0,0,0-28.11-2.2c-11.1-.05-22.22.91-33.32,1.6-3.85.25-8,.57-10.45,4.33a85.86,85.86,0,0,0-7,12.28c-2.06,4.6-3.37,9.56-5.09,14.34a2,2,0,0,1-1.45,1,1.44,1.44,0,0,1-1.21-.82c-.49-2.08-.8-4.21-1.24-6.3a1.43,1.43,0,0,0-.65-.92c-2.94-1.4-8.49,1.56-9.47,4.93-.59,2,0,3.12,1.88,3.44,3.21.57,6.43,1,9.64,1.56a4.72,4.72,0,0,1,1,.43,4.15,4.15,0,0,1-.55,1c-2.66,2.81-5.44,5.49-8,8.41-1.82,2.1-4.41,4.33-4.78,6.81a171.43,171.43,0,0,0-1.68,22.2c-.14,7.6.42,15.19.66,22.26l-2.31,2c.68.87,1.34,1.76,2.05,2.61.4.48,1,.83,1.21,1.37.09.26-.47.89-.82,1.25-1.07,1.08-1.93,2.32-.12,3.28a12.19,12.19,0,0,0,4.89,1.59c10.6.54,21.19,1,31.8,1.27,10.18.24,20.38.19,30.57.29,3.27,0,6.56.28,9.83.16,13.43-.49,26.87-1,40.29-1.69a92.15,92.15,0,0,0,13.48-2C1315.09,352,1315.66,317.13,1314.24,302.58Zm-109-33.47,4.45-10.14,3.7-6.11,9.89-1.4,8.09-1h33.87l10,.81,6.2,1,3.1,2,1.75,4.7,1.71,5.33,2.55,7.42,2.91,8.62h-91.35Z"/></g><path class="cls-2" d="M1191.46,292.94c-.28.09-.82.44-1.35,5.06-.48,4.26-.72,6.39,0,7.58s2.78,1.84,6.76,2.88c3.23.86,5.14,1.35,7.77,1.08,1-.1,4.89-.49,5.06-1.8.29-2.15-9.45-5.78-9.45-5.78h0s-2.73-2.71-5.4-5.78C1192.61,293.63,1192.09,292.75,1191.46,292.94Z"/><path class="cls-2" d="M1306.25,293.19c.28.09.82.44,1.35,5.06.48,4.26.72,6.39,0,7.58s-2.78,1.84-6.76,2.88c-3.23.86-5.14,1.35-7.77,1.08-1-.1-4.89-.49-5.06-1.8-.29-2.15,9.45-5.78,9.45-5.78s2.73-2.71,5.4-5.78C1305.11,293.89,1305.62,293,1306.25,293.19Z"/><polygon class="cls-2" points="1199.67 333.24 1200.96 331.79 1203.37 330.96 1206.57 330.24 1249.56 331.27 1271.92 331.17 1288.58 330.24 1291.2 330.24 1294.1 331.27 1296.81 333.24 1297.81 334.17 1260.5 336.45 1243.46 336.45 1219.74 335.83 1207.63 334.8 1201.15 334.17 1199.67 333.24"/><path class="cls-2" d="M1290.57,271.72,1288,264.3l-1.71-5.33-1.75-4.7-3.1-2-6.2-1-10-.81h-33.87l-8.09,1-9.89,1.4-3.7,6.11-4.45,10.14-3.11,11.22h91.35Z"/><g id="b2gxEa-17" data-name="b2gxEa"><path class="cls-1" d="M173.24,427.22c-.28-2.87-.73-6.26-2.32-8.35-3.26-4.27-7.35-7.82-11.08-11.68a3.78,3.78,0,0,1-.55-1,5.05,5.05,0,0,1,1-.4c3.39-.66,6.78-1.23,10.15-2a2.39,2.39,0,0,0,1.47-1.64c.15-4.46-5.72-8.44-9.49-6.51a1.67,1.67,0,0,0-.82.94c-.45,1.85-.75,3.75-1.22,5.61a6.4,6.4,0,0,1-1,1.65c-.54-.42-1.37-.71-1.59-1.27-2.79-7-5.27-14.13-8.3-21-1.81-4.12-4.52-8.26-9.08-8.82a235,235,0,0,0-28.11-2.2c-11.1-.05-22.22.91-33.32,1.6-3.85.25-8,.57-10.45,4.33a85.86,85.86,0,0,0-7,12.28c-2.06,4.6-3.37,9.56-5.09,14.34a2,2,0,0,1-1.45,1,1.44,1.44,0,0,1-1.21-.82c-.49-2.08-.8-4.21-1.24-6.3a1.43,1.43,0,0,0-.65-.92c-2.94-1.4-8.49,1.56-9.47,4.93-.59,2,0,3.12,1.88,3.44,3.21.57,6.43,1,9.64,1.56a4.72,4.72,0,0,1,1,.43,4.15,4.15,0,0,1-.55,1c-2.66,2.81-5.44,5.49-8,8.41-1.82,2.1-4.41,4.33-4.78,6.81A171.43,171.43,0,0,0,40,444.82c-.14,7.6.42,15.19.66,22.26l-2.31,2c.68.87,1.34,1.76,2,2.61.4.48,1,.83,1.21,1.37.09.26-.47.89-.82,1.25-1.07,1.08-1.93,2.32-.12,3.28a12.19,12.19,0,0,0,4.89,1.59c10.6.54,21.19,1,31.8,1.27,10.18.24,20.38.19,30.57.29,3.27,0,6.56.28,9.83.16,13.43-.49,26.87-1,40.29-1.69a92.15,92.15,0,0,0,13.48-2C174.1,476.63,174.66,441.77,173.24,427.22Zm-109-33.47,4.45-10.14,3.7-6.11,9.89-1.4,8.09-1h33.87l10,.81,6.2,1,3.1,2,1.75,4.7,1.71,5.33,2.55,7.42,2.91,8.62H61.13Z"/></g><path class="cls-2" d="M50.46,417.58c-.28.09-.82.44-1.35,5.06-.48,4.26-.72,6.39,0,7.58s2.78,1.84,6.76,2.88c3.23.86,5.14,1.35,7.77,1.08,1-.1,4.89-.49,5.06-1.8.29-2.15-9.45-5.78-9.45-5.78h0s-2.73-2.71-5.4-5.78C51.61,418.27,51.09,417.39,50.46,417.58Z"/><path class="cls-2" d="M165.25,417.83c.28.09.82.44,1.35,5.06.48,4.26.72,6.39,0,7.58s-2.78,1.84-6.76,2.88c-3.23.86-5.14,1.35-7.77,1.08-1-.1-4.89-.49-5.06-1.8-.29-2.15,9.45-5.78,9.45-5.78s2.73-2.71,5.4-5.78C164.11,418.53,164.62,417.64,165.25,417.83Z"/><polygon class="cls-2" points="58.67 457.88 59.96 456.43 62.37 455.6 65.57 454.88 108.56 455.91 130.92 455.81 147.58 454.88 150.2 454.88 153.1 455.91 155.81 457.88 156.81 458.81 119.5 461.09 102.46 461.09 78.74 460.47 66.63 459.44 60.15 458.81 58.67 457.88"/><path class="cls-2" d="M149.57,396.36,147,388.94l-1.71-5.33-1.75-4.7-3.1-2-6.2-1-10-.81H90.37l-8.09,1-9.89,1.4-3.7,6.11-4.45,10.14L61.13,405h91.35Z"/><g id="b2gxEa-18" data-name="b2gxEa"><path class="cls-1" d="M336.24,427.22c-.28-2.87-.73-6.26-2.32-8.35-3.26-4.27-7.35-7.82-11.08-11.68a3.78,3.78,0,0,1-.55-1,5.05,5.05,0,0,1,1-.4c3.39-.66,6.78-1.23,10.15-2a2.39,2.39,0,0,0,1.47-1.64c.15-4.46-5.72-8.44-9.49-6.51a1.67,1.67,0,0,0-.82.94c-.45,1.85-.75,3.75-1.22,5.61a6.4,6.4,0,0,1-1,1.65c-.54-.42-1.37-.71-1.59-1.27-2.79-7-5.27-14.13-8.3-21-1.81-4.12-4.52-8.26-9.08-8.82a235,235,0,0,0-28.11-2.2c-11.1-.05-22.22.91-33.32,1.6-3.85.25-8,.57-10.45,4.33a85.86,85.86,0,0,0-7,12.28c-2.06,4.6-3.37,9.56-5.09,14.34a2,2,0,0,1-1.45,1,1.44,1.44,0,0,1-1.21-.82c-.49-2.08-.8-4.21-1.24-6.3a1.43,1.43,0,0,0-.65-.92c-2.94-1.4-8.49,1.56-9.47,4.93-.59,2,0,3.12,1.88,3.44,3.21.57,6.43,1,9.64,1.56a4.72,4.72,0,0,1,1,.43,4.15,4.15,0,0,1-.55,1c-2.66,2.81-5.44,5.49-8,8.41-1.82,2.1-4.41,4.33-4.78,6.81a171.43,171.43,0,0,0-1.68,22.2c-.14,7.6.42,15.19.66,22.26l-2.31,2c.68.87,1.34,1.76,2.05,2.61.4.48,1,.83,1.21,1.37.09.26-.47.89-.82,1.25-1.07,1.08-1.93,2.32-.12,3.28a12.19,12.19,0,0,0,4.89,1.59c10.6.54,21.19,1,31.8,1.27,10.18.24,20.38.19,30.57.29,3.27,0,6.56.28,9.83.16,13.43-.49,26.87-1,40.29-1.69a92.15,92.15,0,0,0,13.48-2C337.1,476.63,337.66,441.77,336.24,427.22Zm-109-33.47,4.45-10.14,3.7-6.11,9.89-1.4,8.09-1h33.87l10,.81,6.2,1,3.1,2,1.75,4.7,1.71,5.33,2.55,7.42,2.91,8.62H224.13Z"/></g><path class="cls-2" d="M213.46,417.58c-.28.09-.82.44-1.35,5.06-.48,4.26-.72,6.39,0,7.58s2.78,1.84,6.76,2.88c3.23.86,5.14,1.35,7.77,1.08,1-.1,4.89-.49,5.06-1.8.29-2.15-9.45-5.78-9.45-5.78h0s-2.73-2.71-5.4-5.78C214.61,418.27,214.09,417.39,213.46,417.58Z"/><path class="cls-2" d="M328.25,417.83c.28.09.82.44,1.35,5.06.48,4.26.72,6.39,0,7.58s-2.78,1.84-6.76,2.88c-3.23.86-5.14,1.35-7.77,1.08-1-.1-4.89-.49-5.06-1.8-.29-2.15,9.45-5.78,9.45-5.78s2.73-2.71,5.4-5.78C327.11,418.53,327.62,417.64,328.25,417.83Z"/><polygon class="cls-2" points="221.67 457.88 222.96 456.43 225.37 455.6 228.57 454.88 271.56 455.91 293.92 455.81 310.58 454.88 313.2 454.88 316.1 455.91 318.81 457.88 319.81 458.81 282.5 461.09 265.46 461.09 241.74 460.47 229.63 459.44 223.15 458.81 221.67 457.88"/><path class="cls-2" d="M312.57,396.36,310,388.94l-1.71-5.33-1.75-4.7-3.1-2-6.2-1-10-.81H253.37l-8.09,1-9.89,1.4-3.7,6.11-4.45,10.14L224.13,405h91.35Z"/><g id="b2gxEa-19" data-name="b2gxEa"><path class="cls-1" d="M499.24,427.22c-.28-2.87-.73-6.26-2.32-8.35-3.26-4.27-7.35-7.82-11.08-11.68a3.78,3.78,0,0,1-.55-1,5.05,5.05,0,0,1,1-.4c3.39-.66,6.78-1.23,10.15-2a2.39,2.39,0,0,0,1.47-1.64c.15-4.46-5.72-8.44-9.49-6.51a1.67,1.67,0,0,0-.82.94c-.45,1.85-.75,3.75-1.22,5.61a6.4,6.4,0,0,1-1,1.65c-.54-.42-1.37-.71-1.59-1.27-2.79-7-5.27-14.13-8.3-21-1.81-4.12-4.52-8.26-9.08-8.82a235,235,0,0,0-28.11-2.2c-11.1-.05-22.22.91-33.32,1.6-3.85.25-8,.57-10.45,4.33a85.86,85.86,0,0,0-7,12.28c-2.06,4.6-3.37,9.56-5.09,14.34a2,2,0,0,1-1.45,1,1.44,1.44,0,0,1-1.21-.82c-.49-2.08-.8-4.21-1.24-6.3a1.43,1.43,0,0,0-.65-.92c-2.94-1.4-8.49,1.56-9.47,4.93-.59,2,0,3.12,1.88,3.44,3.21.57,6.43,1,9.64,1.56a4.72,4.72,0,0,1,1,.43,4.15,4.15,0,0,1-.55,1c-2.66,2.81-5.44,5.49-8,8.41-1.82,2.1-4.41,4.33-4.78,6.81a171.43,171.43,0,0,0-1.68,22.2c-.14,7.6.42,15.19.66,22.26l-2.31,2c.68.87,1.34,1.76,2,2.61.4.48,1,.83,1.21,1.37.09.26-.47.89-.82,1.25-1.07,1.08-1.93,2.32-.12,3.28a12.19,12.19,0,0,0,4.89,1.59c10.6.54,21.19,1,31.8,1.27,10.18.24,20.38.19,30.57.29,3.27,0,6.56.28,9.83.16,13.43-.49,26.87-1,40.29-1.69a92.15,92.15,0,0,0,13.48-2C500.1,476.63,500.66,441.77,499.24,427.22Zm-109-33.47,4.45-10.14,3.7-6.11,9.89-1.4,8.09-1h33.87l10,.81,6.2,1,3.1,2,1.75,4.7,1.71,5.33,2.55,7.42,2.91,8.62H387.13Z"/></g><path class="cls-2" d="M376.46,417.58c-.28.09-.82.44-1.35,5.06-.48,4.26-.72,6.39,0,7.58s2.78,1.84,6.76,2.88c3.23.86,5.14,1.35,7.77,1.08,1-.1,4.89-.49,5.06-1.8.29-2.15-9.45-5.78-9.45-5.78h0s-2.73-2.71-5.4-5.78C377.61,418.27,377.09,417.39,376.46,417.58Z"/><path class="cls-2" d="M491.25,417.83c.28.09.82.44,1.35,5.06.48,4.26.72,6.39,0,7.58s-2.78,1.84-6.76,2.88c-3.23.86-5.14,1.35-7.77,1.08-1-.1-4.89-.49-5.06-1.8-.29-2.15,9.45-5.78,9.45-5.78s2.73-2.71,5.4-5.78C490.11,418.53,490.62,417.64,491.25,417.83Z"/><polygon class="cls-2" points="384.67 457.88 385.96 456.43 388.37 455.6 391.57 454.88 434.56 455.91 456.92 455.81 473.58 454.88 476.2 454.88 479.1 455.91 481.81 457.88 482.81 458.81 445.5 461.09 428.46 461.09 404.74 460.47 392.63 459.44 386.15 458.81 384.67 457.88"/><path class="cls-2" d="M475.57,396.36,473,388.94l-1.71-5.33-1.75-4.7-3.1-2-6.2-1-10-.81H416.37l-8.09,1-9.89,1.4-3.7,6.11-4.45,10.14L387.13,405h91.35Z"/><g id="b2gxEa-20" data-name="b2gxEa"><path class="cls-1" d="M662.24,427.22c-.28-2.87-.73-6.26-2.32-8.35-3.26-4.27-7.35-7.82-11.08-11.68a3.78,3.78,0,0,1-.55-1,5.05,5.05,0,0,1,1-.4c3.39-.66,6.78-1.23,10.15-2a2.39,2.39,0,0,0,1.47-1.64c.15-4.46-5.72-8.44-9.49-6.51a1.67,1.67,0,0,0-.82.94c-.45,1.85-.75,3.75-1.22,5.61a6.4,6.4,0,0,1-1,1.65c-.54-.42-1.37-.71-1.59-1.27-2.79-7-5.27-14.13-8.3-21-1.81-4.12-4.52-8.26-9.08-8.82a235,235,0,0,0-28.11-2.2c-11.1-.05-22.22.91-33.32,1.6-3.85.25-8,.57-10.45,4.33a85.86,85.86,0,0,0-7,12.28c-2.06,4.6-3.37,9.56-5.09,14.34a2,2,0,0,1-1.45,1,1.44,1.44,0,0,1-1.21-.82c-.49-2.08-.8-4.21-1.24-6.3a1.43,1.43,0,0,0-.65-.92c-2.94-1.4-8.49,1.56-9.47,4.93-.59,2,0,3.12,1.88,3.44,3.21.57,6.43,1,9.64,1.56a4.72,4.72,0,0,1,1,.43,4.15,4.15,0,0,1-.55,1c-2.66,2.81-5.44,5.49-8,8.41-1.82,2.1-4.41,4.33-4.78,6.81a171.43,171.43,0,0,0-1.68,22.2c-.14,7.6.42,15.19.66,22.26l-2.31,2c.68.87,1.34,1.76,2,2.61.4.48,1,.83,1.21,1.37.09.26-.47.89-.82,1.25-1.07,1.08-1.93,2.32-.12,3.28a12.19,12.19,0,0,0,4.89,1.59c10.6.54,21.19,1,31.8,1.27,10.18.24,20.38.19,30.57.29,3.27,0,6.56.28,9.83.16,13.43-.49,26.87-1,40.29-1.69a92.15,92.15,0,0,0,13.48-2C663.1,476.63,663.66,441.77,662.24,427.22Zm-109-33.47,4.45-10.14,3.7-6.11,9.89-1.4,8.09-1h33.87l10,.81,6.2,1,3.1,2,1.75,4.7,1.71,5.33,2.55,7.42,2.91,8.62H550.13Z"/></g><path class="cls-2" d="M539.46,417.58c-.28.09-.82.44-1.35,5.06-.48,4.26-.72,6.39,0,7.58s2.78,1.84,6.76,2.88c3.23.86,5.14,1.35,7.77,1.08,1-.1,4.89-.49,5.06-1.8.29-2.15-9.45-5.78-9.45-5.78h0s-2.73-2.71-5.4-5.78C540.61,418.27,540.09,417.39,539.46,417.58Z"/><path class="cls-2" d="M654.25,417.83c.28.09.82.44,1.35,5.06.48,4.26.72,6.39,0,7.58s-2.78,1.84-6.76,2.88c-3.23.86-5.14,1.35-7.77,1.08-1-.1-4.89-.49-5.06-1.8-.29-2.15,9.45-5.78,9.45-5.78s2.73-2.71,5.4-5.78C653.11,418.53,653.62,417.64,654.25,417.83Z"/><polygon class="cls-2" points="547.67 457.88 548.96 456.43 551.37 455.6 554.57 454.88 597.56 455.91 619.92 455.81 636.58 454.88 639.2 454.88 642.1 455.91 644.81 457.88 645.81 458.81 608.5 461.09 591.46 461.09 567.74 460.47 555.63 459.44 549.15 458.81 547.67 457.88"/><path class="cls-2" d="M638.57,396.36,636,388.94l-1.71-5.33-1.75-4.7-3.1-2-6.2-1-10-.81H579.37l-8.09,1-9.89,1.4-3.7,6.11-4.45,10.14L550.13,405h91.35Z"/><g id="b2gxEa-21" data-name="b2gxEa"><path class="cls-1" d="M825.24,427.22c-.28-2.87-.73-6.26-2.32-8.35-3.26-4.27-7.35-7.82-11.08-11.68a3.78,3.78,0,0,1-.55-1,5.05,5.05,0,0,1,1-.4c3.39-.66,6.78-1.23,10.15-2a2.39,2.39,0,0,0,1.47-1.64c.15-4.46-5.72-8.44-9.49-6.51a1.67,1.67,0,0,0-.82.94c-.45,1.85-.75,3.75-1.22,5.61a6.4,6.4,0,0,1-1,1.65c-.54-.42-1.37-.71-1.59-1.27-2.79-7-5.27-14.13-8.3-21-1.81-4.12-4.52-8.26-9.08-8.82a235,235,0,0,0-28.11-2.2c-11.1-.05-22.22.91-33.32,1.6-3.85.25-8,.57-10.45,4.33a85.86,85.86,0,0,0-7,12.28c-2.06,4.6-3.37,9.56-5.09,14.34a2,2,0,0,1-1.45,1,1.44,1.44,0,0,1-1.21-.82c-.49-2.08-.8-4.21-1.24-6.3a1.43,1.43,0,0,0-.65-.92c-2.94-1.4-8.49,1.56-9.47,4.93-.59,2,0,3.12,1.88,3.44,3.21.57,6.43,1,9.64,1.56a4.72,4.72,0,0,1,1,.43,4.15,4.15,0,0,1-.55,1c-2.66,2.81-5.44,5.49-8,8.41-1.82,2.1-4.41,4.33-4.78,6.81a171.43,171.43,0,0,0-1.68,22.2c-.14,7.6.42,15.19.66,22.26l-2.31,2c.68.87,1.34,1.76,2,2.61.4.48,1,.83,1.21,1.37.09.26-.47.89-.82,1.25-1.07,1.08-1.93,2.32-.12,3.28a12.19,12.19,0,0,0,4.89,1.59c10.6.54,21.19,1,31.8,1.27,10.18.24,20.38.19,30.57.29,3.27,0,6.56.28,9.83.16,13.43-.49,26.87-1,40.29-1.69a92.15,92.15,0,0,0,13.48-2C826.1,476.63,826.66,441.77,825.24,427.22Zm-109-33.47,4.45-10.14,3.7-6.11,9.89-1.4,8.09-1h33.87l10,.81,6.2,1,3.1,2,1.75,4.7,1.71,5.33,2.55,7.42,2.91,8.62H713.13Z"/></g><path class="cls-2" d="M702.46,417.58c-.28.09-.82.44-1.35,5.06-.48,4.26-.72,6.39,0,7.58s2.78,1.84,6.76,2.88c3.23.86,5.14,1.35,7.77,1.08,1-.1,4.89-.49,5.06-1.8.29-2.15-9.45-5.78-9.45-5.78h0s-2.73-2.71-5.4-5.78C703.61,418.27,703.09,417.39,702.46,417.58Z"/><path class="cls-2" d="M817.25,417.83c.28.09.82.44,1.35,5.06.48,4.26.72,6.39,0,7.58s-2.78,1.84-6.76,2.88c-3.23.86-5.14,1.35-7.77,1.08-1-.1-4.89-.49-5.06-1.8-.29-2.15,9.45-5.78,9.45-5.78s2.73-2.71,5.4-5.78C816.11,418.53,816.62,417.64,817.25,417.83Z"/><polygon class="cls-2" points="710.67 457.88 711.96 456.43 714.37 455.6 717.57 454.88 760.56 455.91 782.92 455.81 799.58 454.88 802.2 454.88 805.1 455.91 807.81 457.88 808.81 458.81 771.5 461.09 754.46 461.09 730.74 460.47 718.63 459.44 712.15 458.81 710.67 457.88"/><path class="cls-2" d="M801.57,396.36,799,388.94l-1.71-5.33-1.75-4.7-3.1-2-6.2-1-10-.81H742.37l-8.09,1-9.89,1.4-3.7,6.11-4.45,10.14L713.13,405h91.35Z"/><g id="b2gxEa-22" data-name="b2gxEa"><path class="cls-1" d="M988.24,427.22c-.28-2.87-.73-6.26-2.32-8.35-3.26-4.27-7.35-7.82-11.08-11.68a3.78,3.78,0,0,1-.55-1,5.05,5.05,0,0,1,1-.4c3.39-.66,6.78-1.23,10.15-2a2.39,2.39,0,0,0,1.47-1.64c.15-4.46-5.72-8.44-9.49-6.51a1.67,1.67,0,0,0-.82.94c-.45,1.85-.75,3.75-1.22,5.61a6.4,6.4,0,0,1-1,1.65c-.54-.42-1.37-.71-1.59-1.27-2.79-7-5.27-14.13-8.3-21-1.81-4.12-4.52-8.26-9.08-8.82a235,235,0,0,0-28.11-2.2c-11.1-.05-22.22.91-33.32,1.6-3.85.25-8,.57-10.45,4.33a85.86,85.86,0,0,0-7,12.28c-2.06,4.6-3.37,9.56-5.09,14.34a2,2,0,0,1-1.45,1,1.44,1.44,0,0,1-1.21-.82c-.49-2.08-.8-4.21-1.24-6.3a1.43,1.43,0,0,0-.65-.92c-2.94-1.4-8.49,1.56-9.47,4.93-.59,2,0,3.12,1.88,3.44,3.21.57,6.43,1,9.64,1.56a4.72,4.72,0,0,1,1,.43,4.15,4.15,0,0,1-.55,1c-2.66,2.81-5.44,5.49-8,8.41-1.82,2.1-4.41,4.33-4.78,6.81a171.43,171.43,0,0,0-1.68,22.2c-.14,7.6.42,15.19.66,22.26l-2.31,2c.68.87,1.34,1.76,2,2.61.4.48,1,.83,1.21,1.37.09.26-.47.89-.82,1.25-1.07,1.08-1.93,2.32-.12,3.28a12.19,12.19,0,0,0,4.89,1.59c10.6.54,21.19,1,31.8,1.27,10.18.24,20.38.19,30.57.29,3.27,0,6.56.28,9.83.16,13.43-.49,26.87-1,40.29-1.69a92.15,92.15,0,0,0,13.48-2C989.1,476.63,989.66,441.77,988.24,427.22Zm-109-33.47,4.45-10.14,3.7-6.11,9.89-1.4,8.09-1h33.87l10,.81,6.2,1,3.1,2,1.75,4.7,1.71,5.33,2.55,7.42,2.91,8.62H876.13Z"/></g><path class="cls-2" d="M865.46,417.58c-.28.09-.82.44-1.35,5.06-.48,4.26-.72,6.39,0,7.58s2.78,1.84,6.76,2.88c3.23.86,5.14,1.35,7.77,1.08,1-.1,4.89-.49,5.06-1.8.29-2.15-9.45-5.78-9.45-5.78h0s-2.73-2.71-5.4-5.78C866.61,418.27,866.09,417.39,865.46,417.58Z"/><path class="cls-2" d="M980.25,417.83c.28.09.82.44,1.35,5.06.48,4.26.72,6.39,0,7.58s-2.78,1.84-6.76,2.88c-3.23.86-5.14,1.35-7.77,1.08-1-.1-4.89-.49-5.06-1.8-.29-2.15,9.45-5.78,9.45-5.78s2.73-2.71,5.4-5.78C979.11,418.53,979.62,417.64,980.25,417.83Z"/><polygon class="cls-2" points="873.67 457.88 874.96 456.43 877.37 455.6 880.57 454.88 923.56 455.91 945.92 455.81 962.58 454.88 965.2 454.88 968.1 455.91 970.81 457.88 971.81 458.81 934.5 461.09 917.46 461.09 893.74 460.47 881.63 459.44 875.15 458.81 873.67 457.88"/><path class="cls-2" d="M964.57,396.36,962,388.94l-1.71-5.33-1.75-4.7-3.1-2-6.2-1-10-.81H905.37l-8.09,1-9.89,1.4-3.7,6.11-4.45,10.14L876.13,405h91.35Z"/><g id="b2gxEa-23" data-name="b2gxEa"><path class="cls-1" d="M1151.24,427.22c-.28-2.87-.73-6.26-2.32-8.35-3.26-4.27-7.35-7.82-11.08-11.68a3.78,3.78,0,0,1-.55-1,5.05,5.05,0,0,1,1-.4c3.39-.66,6.78-1.23,10.15-2a2.39,2.39,0,0,0,1.47-1.64c.15-4.46-5.72-8.44-9.49-6.51a1.67,1.67,0,0,0-.82.94c-.45,1.85-.75,3.75-1.22,5.61a6.4,6.4,0,0,1-1,1.65c-.54-.42-1.37-.71-1.59-1.27-2.79-7-5.27-14.13-8.3-21-1.81-4.12-4.52-8.26-9.08-8.82a235,235,0,0,0-28.11-2.2c-11.1-.05-22.22.91-33.32,1.6-3.85.25-8,.57-10.45,4.33a85.86,85.86,0,0,0-7,12.28c-2.06,4.6-3.37,9.56-5.09,14.34a2,2,0,0,1-1.45,1,1.44,1.44,0,0,1-1.21-.82c-.49-2.08-.8-4.21-1.24-6.3a1.43,1.43,0,0,0-.65-.92c-2.94-1.4-8.49,1.56-9.47,4.93-.59,2,0,3.12,1.88,3.44,3.21.57,6.43,1,9.64,1.56a4.72,4.72,0,0,1,1,.43,4.15,4.15,0,0,1-.55,1c-2.66,2.81-5.44,5.49-8,8.41-1.82,2.1-4.41,4.33-4.78,6.81a171.43,171.43,0,0,0-1.68,22.2c-.14,7.6.42,15.19.66,22.26l-2.31,2c.68.87,1.34,1.76,2,2.61.4.48,1,.83,1.21,1.37.09.26-.47.89-.82,1.25-1.07,1.08-1.93,2.32-.12,3.28a12.19,12.19,0,0,0,4.89,1.59c10.6.54,21.19,1,31.8,1.27,10.18.24,20.38.19,30.57.29,3.27,0,6.56.28,9.83.16,13.43-.49,26.87-1,40.29-1.69a92.15,92.15,0,0,0,13.48-2C1152.09,476.63,1152.66,441.77,1151.24,427.22Zm-109-33.47,4.45-10.14,3.7-6.11,9.89-1.4,8.09-1h33.87l10,.81,6.2,1,3.1,2,1.75,4.7,1.71,5.33,2.55,7.42,2.91,8.62h-91.35Z"/></g><path class="cls-2" d="M1028.46,417.58c-.28.09-.82.44-1.35,5.06-.48,4.26-.72,6.39,0,7.58s2.78,1.84,6.76,2.88c3.23.86,5.14,1.35,7.77,1.08,1-.1,4.89-.49,5.06-1.8.29-2.15-9.45-5.78-9.45-5.78h0s-2.73-2.71-5.4-5.78C1029.61,418.27,1029.09,417.39,1028.46,417.58Z"/><path class="cls-2" d="M1143.25,417.83c.28.09.82.44,1.35,5.06.48,4.26.72,6.39,0,7.58s-2.78,1.84-6.76,2.88c-3.23.86-5.14,1.35-7.77,1.08-1-.1-4.89-.49-5.06-1.8-.29-2.15,9.45-5.78,9.45-5.78s2.73-2.71,5.4-5.78C1142.11,418.53,1142.62,417.64,1143.25,417.83Z"/><polygon class="cls-2" points="1036.67 457.88 1037.96 456.43 1040.37 455.6 1043.57 454.88 1086.56 455.91 1108.92 455.81 1125.58 454.88 1128.2 454.88 1131.1 455.91 1133.81 457.88 1134.81 458.81 1097.5 461.09 1080.46 461.09 1056.74 460.47 1044.63 459.44 1038.15 458.81 1036.67 457.88"/><path class="cls-2" d="M1127.57,396.36l-2.55-7.42-1.71-5.33-1.75-4.7-3.1-2-6.2-1-10-.81h-33.87l-8.09,1-9.89,1.4-3.7,6.11-4.45,10.14L1039.13,405h91.35Z"/><g id="b2gxEa-24" data-name="b2gxEa"><path class="cls-1" d="M1314.24,427.22c-.28-2.87-.73-6.26-2.32-8.35-3.26-4.27-7.35-7.82-11.08-11.68a3.78,3.78,0,0,1-.55-1,5.05,5.05,0,0,1,1-.4c3.39-.66,6.78-1.23,10.15-2a2.39,2.39,0,0,0,1.47-1.64c.15-4.46-5.72-8.44-9.49-6.51a1.67,1.67,0,0,0-.82.94c-.45,1.85-.75,3.75-1.22,5.61a6.4,6.4,0,0,1-1,1.65c-.54-.42-1.37-.71-1.59-1.27-2.79-7-5.27-14.13-8.3-21-1.81-4.12-4.52-8.26-9.08-8.82a235,235,0,0,0-28.11-2.2c-11.1-.05-22.22.91-33.32,1.6-3.85.25-8,.57-10.45,4.33a85.86,85.86,0,0,0-7,12.28c-2.06,4.6-3.37,9.56-5.09,14.34a2,2,0,0,1-1.45,1,1.44,1.44,0,0,1-1.21-.82c-.49-2.08-.8-4.21-1.24-6.3a1.43,1.43,0,0,0-.65-.92c-2.94-1.4-8.49,1.56-9.47,4.93-.59,2,0,3.12,1.88,3.44,3.21.57,6.43,1,9.64,1.56a4.72,4.72,0,0,1,1,.43,4.15,4.15,0,0,1-.55,1c-2.66,2.81-5.44,5.49-8,8.41-1.82,2.1-4.41,4.33-4.78,6.81a171.43,171.43,0,0,0-1.68,22.2c-.14,7.6.42,15.19.66,22.26l-2.31,2c.68.87,1.34,1.76,2.05,2.61.4.48,1,.83,1.21,1.37.09.26-.47.89-.82,1.25-1.07,1.08-1.93,2.32-.12,3.28a12.19,12.19,0,0,0,4.89,1.59c10.6.54,21.19,1,31.8,1.27,10.18.24,20.38.19,30.57.29,3.27,0,6.56.28,9.83.16,13.43-.49,26.87-1,40.29-1.69a92.15,92.15,0,0,0,13.48-2C1315.09,476.63,1315.66,441.77,1314.24,427.22Zm-109-33.47,4.45-10.14,3.7-6.11,9.89-1.4,8.09-1h33.87l10,.81,6.2,1,3.1,2,1.75,4.7,1.71,5.33,2.55,7.42,2.91,8.62h-91.35Z"/></g><path class="cls-2" d="M1191.46,417.58c-.28.09-.82.44-1.35,5.06-.48,4.26-.72,6.39,0,7.58s2.78,1.84,6.76,2.88c3.23.86,5.14,1.35,7.77,1.08,1-.1,4.89-.49,5.06-1.8.29-2.15-9.45-5.78-9.45-5.78h0s-2.73-2.71-5.4-5.78C1192.61,418.27,1192.09,417.39,1191.46,417.58Z"/><path class="cls-2" d="M1306.25,417.83c.28.09.82.44,1.35,5.06.48,4.26.72,6.39,0,7.58s-2.78,1.84-6.76,2.88c-3.23.86-5.14,1.35-7.77,1.08-1-.1-4.89-.49-5.06-1.8-.29-2.15,9.45-5.78,9.45-5.78s2.73-2.71,5.4-5.78C1305.11,418.53,1305.62,417.64,1306.25,417.83Z"/><polygon class="cls-2" points="1199.67 457.88 1200.96 456.43 1203.37 455.6 1206.57 454.88 1249.56 455.91 1271.92 455.81 1288.58 454.88 1291.2 454.88 1294.1 455.91 1296.81 457.88 1297.81 458.81 1260.5 461.09 1243.46 461.09 1219.74 460.47 1207.63 459.44 1201.15 458.81 1199.67 457.88"/><path class="cls-2" d="M1290.57,396.36l-2.55-7.42-1.71-5.33-1.75-4.7-3.1-2-6.2-1-10-.81h-33.87l-8.09,1-9.89,1.4-3.7,6.11-4.45,10.14L1202.13,405h91.35Z"/><g id="b2gxEa-25" data-name="b2gxEa"><path class="cls-1" d="M173.24,551.86c-.28-2.87-.73-6.26-2.32-8.35-3.26-4.27-7.35-7.82-11.08-11.68a3.78,3.78,0,0,1-.55-1,5.05,5.05,0,0,1,1-.4c3.39-.66,6.78-1.23,10.15-2a2.39,2.39,0,0,0,1.47-1.64c.15-4.46-5.72-8.44-9.49-6.51a1.67,1.67,0,0,0-.82.94c-.45,1.85-.75,3.75-1.22,5.61a6.4,6.4,0,0,1-1,1.65c-.54-.42-1.37-.71-1.59-1.27-2.79-7-5.27-14.13-8.3-21-1.81-4.12-4.52-8.26-9.08-8.82a235,235,0,0,0-28.11-2.2c-11.1-.05-22.22.91-33.32,1.6-3.85.25-8,.57-10.45,4.33a85.86,85.86,0,0,0-7,12.28c-2.06,4.6-3.37,9.56-5.09,14.34a2,2,0,0,1-1.45,1,1.44,1.44,0,0,1-1.21-.82c-.49-2.08-.8-4.21-1.24-6.3a1.43,1.43,0,0,0-.65-.92c-2.94-1.4-8.49,1.56-9.47,4.93-.59,2,0,3.12,1.88,3.44,3.21.57,6.43,1,9.64,1.56a4.72,4.72,0,0,1,1,.43,4.15,4.15,0,0,1-.55,1c-2.66,2.81-5.44,5.49-8,8.41-1.82,2.1-4.41,4.33-4.78,6.81A171.43,171.43,0,0,0,40,569.46c-.14,7.6.42,15.19.66,22.26l-2.31,2c.68.87,1.34,1.76,2,2.61.4.48,1,.83,1.21,1.37.09.26-.47.89-.82,1.25-1.07,1.08-1.93,2.32-.12,3.28a12.19,12.19,0,0,0,4.89,1.59c10.6.54,21.19,1,31.8,1.27,10.18.24,20.38.19,30.57.29,3.27,0,6.56.28,9.83.16,13.43-.49,26.87-1,40.29-1.69a92.15,92.15,0,0,0,13.48-2C174.1,601.27,174.66,566.41,173.24,551.86Zm-109-33.47,4.45-10.14,3.7-6.11,9.89-1.4,8.09-1h33.87l10,.81,6.2,1,3.1,2,1.75,4.7,1.71,5.33,2.55,7.42,2.91,8.62H61.13Z"/></g><path class="cls-2" d="M50.46,542.22c-.28.09-.82.44-1.35,5.06-.48,4.26-.72,6.39,0,7.58s2.78,1.84,6.76,2.88c3.23.86,5.14,1.35,7.77,1.08,1-.1,4.89-.49,5.06-1.8.29-2.15-9.45-5.78-9.45-5.78h0s-2.73-2.71-5.4-5.78C51.61,542.91,51.09,542,50.46,542.22Z"/><path class="cls-2" d="M165.25,542.47c.28.09.82.44,1.35,5.06.48,4.26.72,6.39,0,7.58s-2.78,1.84-6.76,2.88c-3.23.86-5.14,1.35-7.77,1.08-1-.1-4.89-.49-5.06-1.8-.29-2.15,9.45-5.78,9.45-5.78s2.73-2.71,5.4-5.78C164.11,543.17,164.62,542.28,165.25,542.47Z"/><polygon class="cls-2" points="58.67 582.52 59.96 581.07 62.37 580.24 65.57 579.52 108.56 580.55 130.92 580.45 147.58 579.52 150.2 579.52 153.1 580.55 155.81 582.52 156.81 583.45 119.5 585.73 102.46 585.73 78.74 585.11 66.63 584.08 60.15 583.45 58.67 582.52"/><path class="cls-2" d="M149.57,521,147,513.58l-1.71-5.33-1.75-4.7-3.1-2-6.2-1-10-.81H90.37l-8.09,1-9.89,1.4-3.7,6.11-4.45,10.14-3.11,11.22h91.35Z"/><g id="b2gxEa-26" data-name="b2gxEa"><path class="cls-1" d="M336.24,551.86c-.28-2.87-.73-6.26-2.32-8.35-3.26-4.27-7.35-7.82-11.08-11.68a3.78,3.78,0,0,1-.55-1,5.05,5.05,0,0,1,1-.4c3.39-.66,6.78-1.23,10.15-2a2.39,2.39,0,0,0,1.47-1.64c.15-4.46-5.72-8.44-9.49-6.51a1.67,1.67,0,0,0-.82.94c-.45,1.85-.75,3.75-1.22,5.61a6.4,6.4,0,0,1-1,1.65c-.54-.42-1.37-.71-1.59-1.27-2.79-7-5.27-14.13-8.3-21-1.81-4.12-4.52-8.26-9.08-8.82a235,235,0,0,0-28.11-2.2c-11.1-.05-22.22.91-33.32,1.6-3.85.25-8,.57-10.45,4.33a85.86,85.86,0,0,0-7,12.28c-2.06,4.6-3.37,9.56-5.09,14.34a2,2,0,0,1-1.45,1,1.44,1.44,0,0,1-1.21-.82c-.49-2.08-.8-4.21-1.24-6.3a1.43,1.43,0,0,0-.65-.92c-2.94-1.4-8.49,1.56-9.47,4.93-.59,2,0,3.12,1.88,3.44,3.21.57,6.43,1,9.64,1.56a4.72,4.72,0,0,1,1,.43,4.15,4.15,0,0,1-.55,1c-2.66,2.81-5.44,5.49-8,8.41-1.82,2.1-4.41,4.33-4.78,6.81a171.43,171.43,0,0,0-1.68,22.2c-.14,7.6.42,15.19.66,22.26l-2.31,2c.68.87,1.34,1.76,2.05,2.61.4.48,1,.83,1.21,1.37.09.26-.47.89-.82,1.25-1.07,1.08-1.93,2.32-.12,3.28a12.19,12.19,0,0,0,4.89,1.59c10.6.54,21.19,1,31.8,1.27,10.18.24,20.38.19,30.57.29,3.27,0,6.56.28,9.83.16,13.43-.49,26.87-1,40.29-1.69a92.15,92.15,0,0,0,13.48-2C337.1,601.27,337.66,566.41,336.24,551.86Zm-109-33.47,4.45-10.14,3.7-6.11,9.89-1.4,8.09-1h33.87l10,.81,6.2,1,3.1,2,1.75,4.7,1.71,5.33,2.55,7.42,2.91,8.62H224.13Z"/></g><path class="cls-2" d="M213.46,542.22c-.28.09-.82.44-1.35,5.06-.48,4.26-.72,6.39,0,7.58s2.78,1.84,6.76,2.88c3.23.86,5.14,1.35,7.77,1.08,1-.1,4.89-.49,5.06-1.8.29-2.15-9.45-5.78-9.45-5.78h0s-2.73-2.71-5.4-5.78C214.61,542.91,214.09,542,213.46,542.22Z"/><path class="cls-2" d="M328.25,542.47c.28.09.82.44,1.35,5.06.48,4.26.72,6.39,0,7.58s-2.78,1.84-6.76,2.88c-3.23.86-5.14,1.35-7.77,1.08-1-.1-4.89-.49-5.06-1.8-.29-2.15,9.45-5.78,9.45-5.78s2.73-2.71,5.4-5.78C327.11,543.17,327.62,542.28,328.25,542.47Z"/><polygon class="cls-2" points="221.67 582.52 222.96 581.07 225.37 580.24 228.57 579.52 271.56 580.55 293.92 580.45 310.58 579.52 313.2 579.52 316.1 580.55 318.81 582.52 319.81 583.45 282.5 585.73 265.46 585.73 241.74 585.11 229.63 584.08 223.15 583.45 221.67 582.52"/><path class="cls-2" d="M312.57,521,310,513.58l-1.71-5.33-1.75-4.7-3.1-2-6.2-1-10-.81H253.37l-8.09,1-9.89,1.4-3.7,6.11-4.45,10.14-3.11,11.22h91.35Z"/><g id="b2gxEa-27" data-name="b2gxEa"><path class="cls-1" d="M499.24,551.86c-.28-2.87-.73-6.26-2.32-8.35-3.26-4.27-7.35-7.82-11.08-11.68a3.78,3.78,0,0,1-.55-1,5.05,5.05,0,0,1,1-.4c3.39-.66,6.78-1.23,10.15-2a2.39,2.39,0,0,0,1.47-1.64c.15-4.46-5.72-8.44-9.49-6.51a1.67,1.67,0,0,0-.82.94c-.45,1.85-.75,3.75-1.22,5.61a6.4,6.4,0,0,1-1,1.65c-.54-.42-1.37-.71-1.59-1.27-2.79-7-5.27-14.13-8.3-21-1.81-4.12-4.52-8.26-9.08-8.82a235,235,0,0,0-28.11-2.2c-11.1-.05-22.22.91-33.32,1.6-3.85.25-8,.57-10.45,4.33a85.86,85.86,0,0,0-7,12.28c-2.06,4.6-3.37,9.56-5.09,14.34a2,2,0,0,1-1.45,1,1.44,1.44,0,0,1-1.21-.82c-.49-2.08-.8-4.21-1.24-6.3a1.43,1.43,0,0,0-.65-.92c-2.94-1.4-8.49,1.56-9.47,4.93-.59,2,0,3.12,1.88,3.44,3.21.57,6.43,1,9.64,1.56a4.72,4.72,0,0,1,1,.43,4.15,4.15,0,0,1-.55,1c-2.66,2.81-5.44,5.49-8,8.41-1.82,2.1-4.41,4.33-4.78,6.81a171.43,171.43,0,0,0-1.68,22.2c-.14,7.6.42,15.19.66,22.26l-2.31,2c.68.87,1.34,1.76,2,2.61.4.48,1,.83,1.21,1.37.09.26-.47.89-.82,1.25-1.07,1.08-1.93,2.32-.12,3.28a12.19,12.19,0,0,0,4.89,1.59c10.6.54,21.19,1,31.8,1.27,10.18.24,20.38.19,30.57.29,3.27,0,6.56.28,9.83.16,13.43-.49,26.87-1,40.29-1.69a92.15,92.15,0,0,0,13.48-2C500.1,601.27,500.66,566.41,499.24,551.86Zm-109-33.47,4.45-10.14,3.7-6.11,9.89-1.4,8.09-1h33.87l10,.81,6.2,1,3.1,2,1.75,4.7,1.71,5.33,2.55,7.42,2.91,8.62H387.13Z"/></g><path class="cls-2" d="M376.46,542.22c-.28.09-.82.44-1.35,5.06-.48,4.26-.72,6.39,0,7.58s2.78,1.84,6.76,2.88c3.23.86,5.14,1.35,7.77,1.08,1-.1,4.89-.49,5.06-1.8.29-2.15-9.45-5.78-9.45-5.78h0s-2.73-2.71-5.4-5.78C377.61,542.91,377.09,542,376.46,542.22Z"/><path class="cls-2" d="M491.25,542.47c.28.09.82.44,1.35,5.06.48,4.26.72,6.39,0,7.58s-2.78,1.84-6.76,2.88c-3.23.86-5.14,1.35-7.77,1.08-1-.1-4.89-.49-5.06-1.8-.29-2.15,9.45-5.78,9.45-5.78s2.73-2.71,5.4-5.78C490.11,543.17,490.62,542.28,491.25,542.47Z"/><polygon class="cls-2" points="384.67 582.52 385.96 581.07 388.37 580.24 391.57 579.52 434.56 580.55 456.92 580.45 473.58 579.52 476.2 579.52 479.1 580.55 481.81 582.52 482.81 583.45 445.5 585.73 428.46 585.73 404.74 585.11 392.63 584.08 386.15 583.45 384.67 582.52"/><path class="cls-2" d="M475.57,521,473,513.58l-1.71-5.33-1.75-4.7-3.1-2-6.2-1-10-.81H416.37l-8.09,1-9.89,1.4-3.7,6.11-4.45,10.14-3.11,11.22h91.35Z"/><g id="b2gxEa-28" data-name="b2gxEa"><path class="cls-1" d="M662.24,551.86c-.28-2.87-.73-6.26-2.32-8.35-3.26-4.27-7.35-7.82-11.08-11.68a3.78,3.78,0,0,1-.55-1,5.05,5.05,0,0,1,1-.4c3.39-.66,6.78-1.23,10.15-2a2.39,2.39,0,0,0,1.47-1.64c.15-4.46-5.72-8.44-9.49-6.51a1.67,1.67,0,0,0-.82.94c-.45,1.85-.75,3.75-1.22,5.61a6.4,6.4,0,0,1-1,1.65c-.54-.42-1.37-.71-1.59-1.27-2.79-7-5.27-14.13-8.3-21-1.81-4.12-4.52-8.26-9.08-8.82a235,235,0,0,0-28.11-2.2c-11.1-.05-22.22.91-33.32,1.6-3.85.25-8,.57-10.45,4.33a85.86,85.86,0,0,0-7,12.28c-2.06,4.6-3.37,9.56-5.09,14.34a2,2,0,0,1-1.45,1,1.44,1.44,0,0,1-1.21-.82c-.49-2.08-.8-4.21-1.24-6.3a1.43,1.43,0,0,0-.65-.92c-2.94-1.4-8.49,1.56-9.47,4.93-.59,2,0,3.12,1.88,3.44,3.21.57,6.43,1,9.64,1.56a4.72,4.72,0,0,1,1,.43,4.15,4.15,0,0,1-.55,1c-2.66,2.81-5.44,5.49-8,8.41-1.82,2.1-4.41,4.33-4.78,6.81a171.43,171.43,0,0,0-1.68,22.2c-.14,7.6.42,15.19.66,22.26l-2.31,2c.68.87,1.34,1.76,2,2.61.4.48,1,.83,1.21,1.37.09.26-.47.89-.82,1.25-1.07,1.08-1.93,2.32-.12,3.28a12.19,12.19,0,0,0,4.89,1.59c10.6.54,21.19,1,31.8,1.27,10.18.24,20.38.19,30.57.29,3.27,0,6.56.28,9.83.16,13.43-.49,26.87-1,40.29-1.69a92.15,92.15,0,0,0,13.48-2C663.1,601.27,663.66,566.41,662.24,551.86Zm-109-33.47,4.45-10.14,3.7-6.11,9.89-1.4,8.09-1h33.87l10,.81,6.2,1,3.1,2,1.75,4.7,1.71,5.33,2.55,7.42,2.91,8.62H550.13Z"/></g><path class="cls-2" d="M539.46,542.22c-.28.09-.82.44-1.35,5.06-.48,4.26-.72,6.39,0,7.58s2.78,1.84,6.76,2.88c3.23.86,5.14,1.35,7.77,1.08,1-.1,4.89-.49,5.06-1.8.29-2.15-9.45-5.78-9.45-5.78h0s-2.73-2.71-5.4-5.78C540.61,542.91,540.09,542,539.46,542.22Z"/><path class="cls-2" d="M654.25,542.47c.28.09.82.44,1.35,5.06.48,4.26.72,6.39,0,7.58s-2.78,1.84-6.76,2.88c-3.23.86-5.14,1.35-7.77,1.08-1-.1-4.89-.49-5.06-1.8-.29-2.15,9.45-5.78,9.45-5.78s2.73-2.71,5.4-5.78C653.11,543.17,653.62,542.28,654.25,542.47Z"/><polygon class="cls-2" points="547.67 582.52 548.96 581.07 551.37 580.24 554.57 579.52 597.56 580.55 619.92 580.45 636.58 579.52 639.2 579.52 642.1 580.55 644.81 582.52 645.81 583.45 608.5 585.73 591.46 585.73 567.74 585.11 555.63 584.08 549.15 583.45 547.67 582.52"/><path class="cls-2" d="M638.57,521,636,513.58l-1.71-5.33-1.75-4.7-3.1-2-6.2-1-10-.81H579.37l-8.09,1-9.89,1.4-3.7,6.11-4.45,10.14-3.11,11.22h91.35Z"/><g id="b2gxEa-29" data-name="b2gxEa"><path class="cls-1" d="M825.24,551.86c-.28-2.87-.73-6.26-2.32-8.35-3.26-4.27-7.35-7.82-11.08-11.68a3.78,3.78,0,0,1-.55-1,5.05,5.05,0,0,1,1-.4c3.39-.66,6.78-1.23,10.15-2a2.39,2.39,0,0,0,1.47-1.64c.15-4.46-5.72-8.44-9.49-6.51a1.67,1.67,0,0,0-.82.94c-.45,1.85-.75,3.75-1.22,5.61a6.4,6.4,0,0,1-1,1.65c-.54-.42-1.37-.71-1.59-1.27-2.79-7-5.27-14.13-8.3-21-1.81-4.12-4.52-8.26-9.08-8.82a235,235,0,0,0-28.11-2.2c-11.1-.05-22.22.91-33.32,1.6-3.85.25-8,.57-10.45,4.33a85.86,85.86,0,0,0-7,12.28c-2.06,4.6-3.37,9.56-5.09,14.34a2,2,0,0,1-1.45,1,1.44,1.44,0,0,1-1.21-.82c-.49-2.08-.8-4.21-1.24-6.3a1.43,1.43,0,0,0-.65-.92c-2.94-1.4-8.49,1.56-9.47,4.93-.59,2,0,3.12,1.88,3.44,3.21.57,6.43,1,9.64,1.56a4.72,4.72,0,0,1,1,.43,4.15,4.15,0,0,1-.55,1c-2.66,2.81-5.44,5.49-8,8.41-1.82,2.1-4.41,4.33-4.78,6.81a171.43,171.43,0,0,0-1.68,22.2c-.14,7.6.42,15.19.66,22.26l-2.31,2c.68.87,1.34,1.76,2,2.61.4.48,1,.83,1.21,1.37.09.26-.47.89-.82,1.25-1.07,1.08-1.93,2.32-.12,3.28a12.19,12.19,0,0,0,4.89,1.59c10.6.54,21.19,1,31.8,1.27,10.18.24,20.38.19,30.57.29,3.27,0,6.56.28,9.83.16,13.43-.49,26.87-1,40.29-1.69a92.15,92.15,0,0,0,13.48-2C826.1,601.27,826.66,566.41,825.24,551.86Zm-109-33.47,4.45-10.14,3.7-6.11,9.89-1.4,8.09-1h33.87l10,.81,6.2,1,3.1,2,1.75,4.7,1.71,5.33,2.55,7.42,2.91,8.62H713.13Z"/></g><path class="cls-2" d="M702.46,542.22c-.28.09-.82.44-1.35,5.06-.48,4.26-.72,6.39,0,7.58s2.78,1.84,6.76,2.88c3.23.86,5.14,1.35,7.77,1.08,1-.1,4.89-.49,5.06-1.8.29-2.15-9.45-5.78-9.45-5.78h0s-2.73-2.71-5.4-5.78C703.61,542.91,703.09,542,702.46,542.22Z"/><path class="cls-2" d="M817.25,542.47c.28.09.82.44,1.35,5.06.48,4.26.72,6.39,0,7.58s-2.78,1.84-6.76,2.88c-3.23.86-5.14,1.35-7.77,1.08-1-.1-4.89-.49-5.06-1.8-.29-2.15,9.45-5.78,9.45-5.78s2.73-2.71,5.4-5.78C816.11,543.17,816.62,542.28,817.25,542.47Z"/><polygon class="cls-2" points="710.67 582.52 711.96 581.07 714.37 580.24 717.57 579.52 760.56 580.55 782.92 580.45 799.58 579.52 802.2 579.52 805.1 580.55 807.81 582.52 808.81 583.45 771.5 585.73 754.46 585.73 730.74 585.11 718.63 584.08 712.15 583.45 710.67 582.52"/><path class="cls-2" d="M801.57,521,799,513.58l-1.71-5.33-1.75-4.7-3.1-2-6.2-1-10-.81H742.37l-8.09,1-9.89,1.4-3.7,6.11-4.45,10.14-3.11,11.22h91.35Z"/><g id="b2gxEa-30" data-name="b2gxEa"><path class="cls-1" d="M988.24,551.86c-.28-2.87-.73-6.26-2.32-8.35-3.26-4.27-7.35-7.82-11.08-11.68a3.78,3.78,0,0,1-.55-1,5.05,5.05,0,0,1,1-.4c3.39-.66,6.78-1.23,10.15-2a2.39,2.39,0,0,0,1.47-1.64c.15-4.46-5.72-8.44-9.49-6.51a1.67,1.67,0,0,0-.82.94c-.45,1.85-.75,3.75-1.22,5.61a6.4,6.4,0,0,1-1,1.65c-.54-.42-1.37-.71-1.59-1.27-2.79-7-5.27-14.13-8.3-21-1.81-4.12-4.52-8.26-9.08-8.82a235,235,0,0,0-28.11-2.2c-11.1-.05-22.22.91-33.32,1.6-3.85.25-8,.57-10.45,4.33a85.86,85.86,0,0,0-7,12.28c-2.06,4.6-3.37,9.56-5.09,14.34a2,2,0,0,1-1.45,1,1.44,1.44,0,0,1-1.21-.82c-.49-2.08-.8-4.21-1.24-6.3a1.43,1.43,0,0,0-.65-.92c-2.94-1.4-8.49,1.56-9.47,4.93-.59,2,0,3.12,1.88,3.44,3.21.57,6.43,1,9.64,1.56a4.72,4.72,0,0,1,1,.43,4.15,4.15,0,0,1-.55,1c-2.66,2.81-5.44,5.49-8,8.41-1.82,2.1-4.41,4.33-4.78,6.81a171.43,171.43,0,0,0-1.68,22.2c-.14,7.6.42,15.19.66,22.26l-2.31,2c.68.87,1.34,1.76,2,2.61.4.48,1,.83,1.21,1.37.09.26-.47.89-.82,1.25-1.07,1.08-1.93,2.32-.12,3.28a12.19,12.19,0,0,0,4.89,1.59c10.6.54,21.19,1,31.8,1.27,10.18.24,20.38.19,30.57.29,3.27,0,6.56.28,9.83.16,13.43-.49,26.87-1,40.29-1.69a92.15,92.15,0,0,0,13.48-2C989.1,601.27,989.66,566.41,988.24,551.86Zm-109-33.47,4.45-10.14,3.7-6.11,9.89-1.4,8.09-1h33.87l10,.81,6.2,1,3.1,2,1.75,4.7,1.71,5.33,2.55,7.42,2.91,8.62H876.13Z"/></g><path class="cls-2" d="M865.46,542.22c-.28.09-.82.44-1.35,5.06-.48,4.26-.72,6.39,0,7.58s2.78,1.84,6.76,2.88c3.23.86,5.14,1.35,7.77,1.08,1-.1,4.89-.49,5.06-1.8.29-2.15-9.45-5.78-9.45-5.78h0s-2.73-2.71-5.4-5.78C866.61,542.91,866.09,542,865.46,542.22Z"/><path class="cls-2" d="M980.25,542.47c.28.09.82.44,1.35,5.06.48,4.26.72,6.39,0,7.58s-2.78,1.84-6.76,2.88c-3.23.86-5.14,1.35-7.77,1.08-1-.1-4.89-.49-5.06-1.8-.29-2.15,9.45-5.78,9.45-5.78s2.73-2.71,5.4-5.78C979.11,543.17,979.62,542.28,980.25,542.47Z"/><polygon class="cls-2" points="873.67 582.52 874.96 581.07 877.37 580.24 880.57 579.52 923.56 580.55 945.92 580.45 962.58 579.52 965.2 579.52 968.1 580.55 970.81 582.52 971.81 583.45 934.5 585.73 917.46 585.73 893.74 585.11 881.63 584.08 875.15 583.45 873.67 582.52"/><path class="cls-2" d="M964.57,521,962,513.58l-1.71-5.33-1.75-4.7-3.1-2-6.2-1-10-.81H905.37l-8.09,1-9.89,1.4-3.7,6.11-4.45,10.14-3.11,11.22h91.35Z"/><g id="b2gxEa-31" data-name="b2gxEa"><path class="cls-1" d="M1151.24,551.86c-.28-2.87-.73-6.26-2.32-8.35-3.26-4.27-7.35-7.82-11.08-11.68a3.78,3.78,0,0,1-.55-1,5.05,5.05,0,0,1,1-.4c3.39-.66,6.78-1.23,10.15-2a2.39,2.39,0,0,0,1.47-1.64c.15-4.46-5.72-8.44-9.49-6.51a1.67,1.67,0,0,0-.82.94c-.45,1.85-.75,3.75-1.22,5.61a6.4,6.4,0,0,1-1,1.65c-.54-.42-1.37-.71-1.59-1.27-2.79-7-5.27-14.13-8.3-21-1.81-4.12-4.52-8.26-9.08-8.82a235,235,0,0,0-28.11-2.2c-11.1-.05-22.22.91-33.32,1.6-3.85.25-8,.57-10.45,4.33a85.86,85.86,0,0,0-7,12.28c-2.06,4.6-3.37,9.56-5.09,14.34a2,2,0,0,1-1.45,1,1.44,1.44,0,0,1-1.21-.82c-.49-2.08-.8-4.21-1.24-6.3a1.43,1.43,0,0,0-.65-.92c-2.94-1.4-8.49,1.56-9.47,4.93-.59,2,0,3.12,1.88,3.44,3.21.57,6.43,1,9.64,1.56a4.72,4.72,0,0,1,1,.43,4.15,4.15,0,0,1-.55,1c-2.66,2.81-5.44,5.49-8,8.41-1.82,2.1-4.41,4.33-4.78,6.81a171.43,171.43,0,0,0-1.68,22.2c-.14,7.6.42,15.19.66,22.26l-2.31,2c.68.87,1.34,1.76,2,2.61.4.48,1,.83,1.21,1.37.09.26-.47.89-.82,1.25-1.07,1.08-1.93,2.32-.12,3.28a12.19,12.19,0,0,0,4.89,1.59c10.6.54,21.19,1,31.8,1.27,10.18.24,20.38.19,30.57.29,3.27,0,6.56.28,9.83.16,13.43-.49,26.87-1,40.29-1.69a92.15,92.15,0,0,0,13.48-2C1152.09,601.27,1152.66,566.41,1151.24,551.86Zm-109-33.47,4.45-10.14,3.7-6.11,9.89-1.4,8.09-1h33.87l10,.81,6.2,1,3.1,2,1.75,4.7,1.71,5.33,2.55,7.42,2.91,8.62h-91.35Z"/></g><path class="cls-2" d="M1028.46,542.22c-.28.09-.82.44-1.35,5.06-.48,4.26-.72,6.39,0,7.58s2.78,1.84,6.76,2.88c3.23.86,5.14,1.35,7.77,1.08,1-.1,4.89-.49,5.06-1.8.29-2.15-9.45-5.78-9.45-5.78h0s-2.73-2.71-5.4-5.78C1029.61,542.91,1029.09,542,1028.46,542.22Z"/><path class="cls-2" d="M1143.25,542.47c.28.09.82.44,1.35,5.06.48,4.26.72,6.39,0,7.58s-2.78,1.84-6.76,2.88c-3.23.86-5.14,1.35-7.77,1.08-1-.1-4.89-.49-5.06-1.8-.29-2.15,9.45-5.78,9.45-5.78s2.73-2.71,5.4-5.78C1142.11,543.17,1142.62,542.28,1143.25,542.47Z"/><polygon class="cls-2" points="1036.67 582.52 1037.96 581.07 1040.37 580.24 1043.57 579.52 1086.56 580.55 1108.92 580.45 1125.58 579.52 1128.2 579.52 1131.1 580.55 1133.81 582.52 1134.81 583.45 1097.5 585.73 1080.46 585.73 1056.74 585.11 1044.63 584.08 1038.15 583.45 1036.67 582.52"/><path class="cls-2" d="M1127.57,521l-2.55-7.42-1.71-5.33-1.75-4.7-3.1-2-6.2-1-10-.81h-33.87l-8.09,1-9.89,1.4-3.7,6.11-4.45,10.14-3.11,11.22h91.35Z"/><g id="b2gxEa-32" data-name="b2gxEa"><path class="cls-1" d="M1314.24,551.86c-.28-2.87-.73-6.26-2.32-8.35-3.26-4.27-7.35-7.82-11.08-11.68a3.78,3.78,0,0,1-.55-1,5.05,5.05,0,0,1,1-.4c3.39-.66,6.78-1.23,10.15-2a2.39,2.39,0,0,0,1.47-1.64c.15-4.46-5.72-8.44-9.49-6.51a1.67,1.67,0,0,0-.82.94c-.45,1.85-.75,3.75-1.22,5.61a6.4,6.4,0,0,1-1,1.65c-.54-.42-1.37-.71-1.59-1.27-2.79-7-5.27-14.13-8.3-21-1.81-4.12-4.52-8.26-9.08-8.82a235,235,0,0,0-28.11-2.2c-11.1-.05-22.22.91-33.32,1.6-3.85.25-8,.57-10.45,4.33a85.86,85.86,0,0,0-7,12.28c-2.06,4.6-3.37,9.56-5.09,14.34a2,2,0,0,1-1.45,1,1.44,1.44,0,0,1-1.21-.82c-.49-2.08-.8-4.21-1.24-6.3a1.43,1.43,0,0,0-.65-.92c-2.94-1.4-8.49,1.56-9.47,4.93-.59,2,0,3.12,1.88,3.44,3.21.57,6.43,1,9.64,1.56a4.72,4.72,0,0,1,1,.43,4.15,4.15,0,0,1-.55,1c-2.66,2.81-5.44,5.49-8,8.41-1.82,2.1-4.41,4.33-4.78,6.81a171.43,171.43,0,0,0-1.68,22.2c-.14,7.6.42,15.19.66,22.26l-2.31,2c.68.87,1.34,1.76,2.05,2.61.4.48,1,.83,1.21,1.37.09.26-.47.89-.82,1.25-1.07,1.08-1.93,2.32-.12,3.28a12.19,12.19,0,0,0,4.89,1.59c10.6.54,21.19,1,31.8,1.27,10.18.24,20.38.19,30.57.29,3.27,0,6.56.28,9.83.16,13.43-.49,26.87-1,40.29-1.69a92.15,92.15,0,0,0,13.48-2C1315.09,601.27,1315.66,566.41,1314.24,551.86Zm-109-33.47,4.45-10.14,3.7-6.11,9.89-1.4,8.09-1h33.87l10,.81,6.2,1,3.1,2,1.75,4.7,1.71,5.33,2.55,7.42,2.91,8.62h-91.35Z"/></g><path class="cls-2" d="M1191.46,542.22c-.28.09-.82.44-1.35,5.06-.48,4.26-.72,6.39,0,7.58s2.78,1.84,6.76,2.88c3.23.86,5.14,1.35,7.77,1.08,1-.1,4.89-.49,5.06-1.8.29-2.15-9.45-5.78-9.45-5.78h0s-2.73-2.71-5.4-5.78C1192.61,542.91,1192.09,542,1191.46,542.22Z"/><path class="cls-2" d="M1306.25,542.47c.28.09.82.44,1.35,5.06.48,4.26.72,6.39,0,7.58s-2.78,1.84-6.76,2.88c-3.23.86-5.14,1.35-7.77,1.08-1-.1-4.89-.49-5.06-1.8-.29-2.15,9.45-5.78,9.45-5.78s2.73-2.71,5.4-5.78C1305.11,543.17,1305.62,542.28,1306.25,542.47Z"/><polygon class="cls-2" points="1199.67 582.52 1200.96 581.07 1203.37 580.24 1206.57 579.52 1249.56 580.55 1271.92 580.45 1288.58 579.52 1291.2 579.52 1294.1 580.55 1296.81 582.52 1297.81 583.45 1260.5 585.73 1243.46 585.73 1219.74 585.11 1207.63 584.08 1201.15 583.45 1199.67 582.52"/><path class="cls-2" d="M1290.57,521l-2.55-7.42-1.71-5.33-1.75-4.7-3.1-2-6.2-1-10-.81h-33.87l-8.09,1-9.89,1.4-3.7,6.11-4.45,10.14-3.11,11.22h91.35Z"/><g id="b2gxEa-33" data-name="b2gxEa"><path class="cls-1" d="M173.24,676.5c-.28-2.87-.73-6.26-2.32-8.35-3.26-4.27-7.35-7.82-11.08-11.68a3.78,3.78,0,0,1-.55-1,5.05,5.05,0,0,1,1-.4c3.39-.66,6.78-1.23,10.15-2a2.39,2.39,0,0,0,1.47-1.64c.15-4.46-5.72-8.44-9.49-6.51a1.67,1.67,0,0,0-.82.94c-.45,1.85-.75,3.75-1.22,5.61a6.4,6.4,0,0,1-1,1.65c-.54-.42-1.37-.71-1.59-1.27-2.79-7-5.27-14.13-8.3-21-1.81-4.12-4.52-8.26-9.08-8.82a235,235,0,0,0-28.11-2.2c-11.1-.05-22.22.91-33.32,1.6-3.85.25-8,.57-10.45,4.33a85.86,85.86,0,0,0-7,12.28c-2.06,4.6-3.37,9.56-5.09,14.34a2,2,0,0,1-1.45,1,1.44,1.44,0,0,1-1.21-.82c-.49-2.08-.8-4.21-1.24-6.3a1.43,1.43,0,0,0-.65-.92c-2.94-1.4-8.49,1.56-9.47,4.93-.59,2,0,3.12,1.88,3.44,3.21.57,6.43,1,9.64,1.56a4.72,4.72,0,0,1,1,.43,4.15,4.15,0,0,1-.55,1c-2.66,2.81-5.44,5.49-8,8.41-1.82,2.1-4.41,4.33-4.78,6.81A171.43,171.43,0,0,0,40,694.1c-.14,7.6.42,15.19.66,22.26l-2.31,2c.68.87,1.34,1.76,2,2.61.4.48,1,.83,1.21,1.37.09.26-.47.89-.82,1.25-1.07,1.08-1.93,2.32-.12,3.28a12.19,12.19,0,0,0,4.89,1.59c10.6.54,21.19,1,31.8,1.27,10.18.24,20.38.19,30.57.29,3.27,0,6.56.28,9.83.16,13.43-.49,26.87-1,40.29-1.69a92.15,92.15,0,0,0,13.48-2C174.1,725.91,174.66,691.05,173.24,676.5ZM64.24,643l4.45-10.14,3.7-6.11,9.89-1.4,8.09-1h33.87l10,.81,6.2,1,3.1,2,1.75,4.7,1.71,5.33,2.55,7.42,2.91,8.62H61.13Z"/></g><path class="cls-2" d="M50.46,666.86c-.28.09-.82.44-1.35,5.06-.48,4.26-.72,6.39,0,7.58s2.78,1.84,6.76,2.88c3.23.86,5.14,1.35,7.77,1.08,1-.1,4.89-.49,5.06-1.8.29-2.15-9.45-5.78-9.45-5.78h0s-2.73-2.71-5.4-5.78C51.61,667.55,51.09,666.67,50.46,666.86Z"/><path class="cls-2" d="M165.25,667.11c.28.09.82.44,1.35,5.06.48,4.26.72,6.39,0,7.58s-2.78,1.84-6.76,2.88c-3.23.86-5.14,1.35-7.77,1.08-1-.1-4.89-.49-5.06-1.8-.29-2.15,9.45-5.78,9.45-5.78s2.73-2.71,5.4-5.78C164.11,667.81,164.62,666.92,165.25,667.11Z"/><polygon class="cls-2" points="58.67 707.16 59.96 705.71 62.37 704.88 65.57 704.16 108.56 705.19 130.92 705.09 147.58 704.16 150.2 704.16 153.1 705.19 155.81 707.16 156.81 708.09 119.5 710.37 102.46 710.37 78.74 709.75 66.63 708.72 60.15 708.09 58.67 707.16"/><path class="cls-2" d="M149.57,645.64,147,638.22l-1.71-5.33-1.75-4.7-3.1-2-6.2-1-10-.81H90.37l-8.09,1-9.89,1.4-3.7,6.11L64.24,643l-3.11,11.22h91.35Z"/><g id="b2gxEa-34" data-name="b2gxEa"><path class="cls-1" d="M336.24,676.5c-.28-2.87-.73-6.26-2.32-8.35-3.26-4.27-7.35-7.82-11.08-11.68a3.78,3.78,0,0,1-.55-1,5.05,5.05,0,0,1,1-.4c3.39-.66,6.78-1.23,10.15-2a2.39,2.39,0,0,0,1.47-1.64c.15-4.46-5.72-8.44-9.49-6.51a1.67,1.67,0,0,0-.82.94c-.45,1.85-.75,3.75-1.22,5.61a6.4,6.4,0,0,1-1,1.65c-.54-.42-1.37-.71-1.59-1.27-2.79-7-5.27-14.13-8.3-21-1.81-4.12-4.52-8.26-9.08-8.82a235,235,0,0,0-28.11-2.2c-11.1-.05-22.22.91-33.32,1.6-3.85.25-8,.57-10.45,4.33a85.86,85.86,0,0,0-7,12.28c-2.06,4.6-3.37,9.56-5.09,14.34a2,2,0,0,1-1.45,1,1.44,1.44,0,0,1-1.21-.82c-.49-2.08-.8-4.21-1.24-6.3a1.43,1.43,0,0,0-.65-.92c-2.94-1.4-8.49,1.56-9.47,4.93-.59,2,0,3.12,1.88,3.44,3.21.57,6.43,1,9.64,1.56a4.72,4.72,0,0,1,1,.43,4.15,4.15,0,0,1-.55,1c-2.66,2.81-5.44,5.49-8,8.41-1.82,2.1-4.41,4.33-4.78,6.81A171.43,171.43,0,0,0,203,694.1c-.14,7.6.42,15.19.66,22.26l-2.31,2c.68.87,1.34,1.76,2.05,2.61.4.48,1,.83,1.21,1.37.09.26-.47.89-.82,1.25-1.07,1.08-1.93,2.32-.12,3.28a12.19,12.19,0,0,0,4.89,1.59c10.6.54,21.19,1,31.8,1.27,10.18.24,20.38.19,30.57.29,3.27,0,6.56.28,9.83.16,13.43-.49,26.87-1,40.29-1.69a92.15,92.15,0,0,0,13.48-2C337.1,725.91,337.66,691.05,336.24,676.5ZM227.24,643l4.45-10.14,3.7-6.11,9.89-1.4,8.09-1h33.87l10,.81,6.2,1,3.1,2,1.75,4.7,1.71,5.33,2.55,7.42,2.91,8.62H224.13Z"/></g><path class="cls-2" d="M213.46,666.86c-.28.09-.82.44-1.35,5.06-.48,4.26-.72,6.39,0,7.58s2.78,1.84,6.76,2.88c3.23.86,5.14,1.35,7.77,1.08,1-.1,4.89-.49,5.06-1.8.29-2.15-9.45-5.78-9.45-5.78h0s-2.73-2.71-5.4-5.78C214.61,667.55,214.09,666.67,213.46,666.86Z"/><path class="cls-2" d="M328.25,667.11c.28.09.82.44,1.35,5.06.48,4.26.72,6.39,0,7.58s-2.78,1.84-6.76,2.88c-3.23.86-5.14,1.35-7.77,1.08-1-.1-4.89-.49-5.06-1.8-.29-2.15,9.45-5.78,9.45-5.78s2.73-2.71,5.4-5.78C327.11,667.81,327.62,666.92,328.25,667.11Z"/><polygon class="cls-2" points="221.67 707.16 222.96 705.71 225.37 704.88 228.57 704.16 271.56 705.19 293.92 705.09 310.58 704.16 313.2 704.16 316.1 705.19 318.81 707.16 319.81 708.09 282.5 710.37 265.46 710.37 241.74 709.75 229.63 708.72 223.15 708.09 221.67 707.16"/><path class="cls-2" d="M312.57,645.64,310,638.22l-1.71-5.33-1.75-4.7-3.1-2-6.2-1-10-.81H253.37l-8.09,1-9.89,1.4-3.7,6.11L227.24,643l-3.11,11.22h91.35Z"/><g id="b2gxEa-35" data-name="b2gxEa"><path class="cls-1" d="M499.24,676.5c-.28-2.87-.73-6.26-2.32-8.35-3.26-4.27-7.35-7.82-11.08-11.68a3.78,3.78,0,0,1-.55-1,5.05,5.05,0,0,1,1-.4c3.39-.66,6.78-1.23,10.15-2a2.39,2.39,0,0,0,1.47-1.64c.15-4.46-5.72-8.44-9.49-6.51a1.67,1.67,0,0,0-.82.94c-.45,1.85-.75,3.75-1.22,5.61a6.4,6.4,0,0,1-1,1.65c-.54-.42-1.37-.71-1.59-1.27-2.79-7-5.27-14.13-8.3-21-1.81-4.12-4.52-8.26-9.08-8.82a235,235,0,0,0-28.11-2.2c-11.1-.05-22.22.91-33.32,1.6-3.85.25-8,.57-10.45,4.33a85.86,85.86,0,0,0-7,12.28c-2.06,4.6-3.37,9.56-5.09,14.34a2,2,0,0,1-1.45,1,1.44,1.44,0,0,1-1.21-.82c-.49-2.08-.8-4.21-1.24-6.3a1.43,1.43,0,0,0-.65-.92c-2.94-1.4-8.49,1.56-9.47,4.93-.59,2,0,3.12,1.88,3.44,3.21.57,6.43,1,9.64,1.56a4.72,4.72,0,0,1,1,.43,4.15,4.15,0,0,1-.55,1c-2.66,2.81-5.44,5.49-8,8.41-1.82,2.1-4.41,4.33-4.78,6.81A171.43,171.43,0,0,0,366,694.1c-.14,7.6.42,15.19.66,22.26l-2.31,2c.68.87,1.34,1.76,2,2.61.4.48,1,.83,1.21,1.37.09.26-.47.89-.82,1.25-1.07,1.08-1.93,2.32-.12,3.28a12.19,12.19,0,0,0,4.89,1.59c10.6.54,21.19,1,31.8,1.27,10.18.24,20.38.19,30.57.29,3.27,0,6.56.28,9.83.16,13.43-.49,26.87-1,40.29-1.69a92.15,92.15,0,0,0,13.48-2C500.1,725.91,500.66,691.05,499.24,676.5ZM390.24,643l4.45-10.14,3.7-6.11,9.89-1.4,8.09-1h33.87l10,.81,6.2,1,3.1,2,1.75,4.7,1.71,5.33,2.55,7.42,2.91,8.62H387.13Z"/></g><path class="cls-2" d="M376.46,666.86c-.28.09-.82.44-1.35,5.06-.48,4.26-.72,6.39,0,7.58s2.78,1.84,6.76,2.88c3.23.86,5.14,1.35,7.77,1.08,1-.1,4.89-.49,5.06-1.8.29-2.15-9.45-5.78-9.45-5.78h0s-2.73-2.71-5.4-5.78C377.61,667.55,377.09,666.67,376.46,666.86Z"/><path class="cls-2" d="M491.25,667.11c.28.09.82.44,1.35,5.06.48,4.26.72,6.39,0,7.58s-2.78,1.84-6.76,2.88c-3.23.86-5.14,1.35-7.77,1.08-1-.1-4.89-.49-5.06-1.8-.29-2.15,9.45-5.78,9.45-5.78s2.73-2.71,5.4-5.78C490.11,667.81,490.62,666.92,491.25,667.11Z"/><polygon class="cls-2" points="384.67 707.16 385.96 705.71 388.37 704.88 391.57 704.16 434.56 705.19 456.92 705.09 473.58 704.16 476.2 704.16 479.1 705.19 481.81 707.16 482.81 708.09 445.5 710.37 428.46 710.37 404.74 709.75 392.63 708.72 386.15 708.09 384.67 707.16"/><path class="cls-2" d="M475.57,645.64,473,638.22l-1.71-5.33-1.75-4.7-3.1-2-6.2-1-10-.81H416.37l-8.09,1-9.89,1.4-3.7,6.11L390.24,643l-3.11,11.22h91.35Z"/><g id="b2gxEa-36" data-name="b2gxEa"><path class="cls-1" d="M662.24,676.5c-.28-2.87-.73-6.26-2.32-8.35-3.26-4.27-7.35-7.82-11.08-11.68a3.78,3.78,0,0,1-.55-1,5.05,5.05,0,0,1,1-.4c3.39-.66,6.78-1.23,10.15-2a2.39,2.39,0,0,0,1.47-1.64c.15-4.46-5.72-8.44-9.49-6.51a1.67,1.67,0,0,0-.82.94c-.45,1.85-.75,3.75-1.22,5.61a6.4,6.4,0,0,1-1,1.65c-.54-.42-1.37-.71-1.59-1.27-2.79-7-5.27-14.13-8.3-21-1.81-4.12-4.52-8.26-9.08-8.82a235,235,0,0,0-28.11-2.2c-11.1-.05-22.22.91-33.32,1.6-3.85.25-8,.57-10.45,4.33a85.86,85.86,0,0,0-7,12.28c-2.06,4.6-3.37,9.56-5.09,14.34a2,2,0,0,1-1.45,1,1.44,1.44,0,0,1-1.21-.82c-.49-2.08-.8-4.21-1.24-6.3a1.43,1.43,0,0,0-.65-.92c-2.94-1.4-8.49,1.56-9.47,4.93-.59,2,0,3.12,1.88,3.44,3.21.57,6.43,1,9.64,1.56a4.72,4.72,0,0,1,1,.43,4.15,4.15,0,0,1-.55,1c-2.66,2.81-5.44,5.49-8,8.41-1.82,2.1-4.41,4.33-4.78,6.81A171.43,171.43,0,0,0,529,694.1c-.14,7.6.42,15.19.66,22.26l-2.31,2c.68.87,1.34,1.76,2,2.61.4.48,1,.83,1.21,1.37.09.26-.47.89-.82,1.25-1.07,1.08-1.93,2.32-.12,3.28a12.19,12.19,0,0,0,4.89,1.59c10.6.54,21.19,1,31.8,1.27,10.18.24,20.38.19,30.57.29,3.27,0,6.56.28,9.83.16,13.43-.49,26.87-1,40.29-1.69a92.15,92.15,0,0,0,13.48-2C663.1,725.91,663.66,691.05,662.24,676.5ZM553.24,643l4.45-10.14,3.7-6.11,9.89-1.4,8.09-1h33.87l10,.81,6.2,1,3.1,2,1.75,4.7,1.71,5.33,2.55,7.42,2.91,8.62H550.13Z"/></g><path class="cls-2" d="M539.46,666.86c-.28.09-.82.44-1.35,5.06-.48,4.26-.72,6.39,0,7.58s2.78,1.84,6.76,2.88c3.23.86,5.14,1.35,7.77,1.08,1-.1,4.89-.49,5.06-1.8.29-2.15-9.45-5.78-9.45-5.78h0s-2.73-2.71-5.4-5.78C540.61,667.55,540.09,666.67,539.46,666.86Z"/><path class="cls-2" d="M654.25,667.11c.28.09.82.44,1.35,5.06.48,4.26.72,6.39,0,7.58s-2.78,1.84-6.76,2.88c-3.23.86-5.14,1.35-7.77,1.08-1-.1-4.89-.49-5.06-1.8-.29-2.15,9.45-5.78,9.45-5.78s2.73-2.71,5.4-5.78C653.11,667.81,653.62,666.92,654.25,667.11Z"/><polygon class="cls-2" points="547.67 707.16 548.96 705.71 551.37 704.88 554.57 704.16 597.56 705.19 619.92 705.09 636.58 704.16 639.2 704.16 642.1 705.19 644.81 707.16 645.81 708.09 608.5 710.37 591.46 710.37 567.74 709.75 555.63 708.72 549.15 708.09 547.67 707.16"/><path class="cls-2" d="M638.57,645.64,636,638.22l-1.71-5.33-1.75-4.7-3.1-2-6.2-1-10-.81H579.37l-8.09,1-9.89,1.4-3.7,6.11L553.24,643l-3.11,11.22h91.35Z"/><g id="b2gxEa-37" data-name="b2gxEa"><path class="cls-1" d="M825.24,676.5c-.28-2.87-.73-6.26-2.32-8.35-3.26-4.27-7.35-7.82-11.08-11.68a3.78,3.78,0,0,1-.55-1,5.05,5.05,0,0,1,1-.4c3.39-.66,6.78-1.23,10.15-2a2.39,2.39,0,0,0,1.47-1.64c.15-4.46-5.72-8.44-9.49-6.51a1.67,1.67,0,0,0-.82.94c-.45,1.85-.75,3.75-1.22,5.61a6.4,6.4,0,0,1-1,1.65c-.54-.42-1.37-.71-1.59-1.27-2.79-7-5.27-14.13-8.3-21-1.81-4.12-4.52-8.26-9.08-8.82a235,235,0,0,0-28.11-2.2c-11.1-.05-22.22.91-33.32,1.6-3.85.25-8,.57-10.45,4.33a85.86,85.86,0,0,0-7,12.28c-2.06,4.6-3.37,9.56-5.09,14.34a2,2,0,0,1-1.45,1,1.44,1.44,0,0,1-1.21-.82c-.49-2.08-.8-4.21-1.24-6.3a1.43,1.43,0,0,0-.65-.92c-2.94-1.4-8.49,1.56-9.47,4.93-.59,2,0,3.12,1.88,3.44,3.21.57,6.43,1,9.64,1.56a4.72,4.72,0,0,1,1,.43,4.15,4.15,0,0,1-.55,1c-2.66,2.81-5.44,5.49-8,8.41-1.82,2.1-4.41,4.33-4.78,6.81A171.43,171.43,0,0,0,692,694.1c-.14,7.6.42,15.19.66,22.26l-2.31,2c.68.87,1.34,1.76,2,2.61.4.48,1,.83,1.21,1.37.09.26-.47.89-.82,1.25-1.07,1.08-1.93,2.32-.12,3.28a12.19,12.19,0,0,0,4.89,1.59c10.6.54,21.19,1,31.8,1.27,10.18.24,20.38.19,30.57.29,3.27,0,6.56.28,9.83.16,13.43-.49,26.87-1,40.29-1.69a92.15,92.15,0,0,0,13.48-2C826.1,725.91,826.66,691.05,825.24,676.5ZM716.24,643l4.45-10.14,3.7-6.11,9.89-1.4,8.09-1h33.87l10,.81,6.2,1,3.1,2,1.75,4.7,1.71,5.33,2.55,7.42,2.91,8.62H713.13Z"/></g><path class="cls-2" d="M702.46,666.86c-.28.09-.82.44-1.35,5.06-.48,4.26-.72,6.39,0,7.58s2.78,1.84,6.76,2.88c3.23.86,5.14,1.35,7.77,1.08,1-.1,4.89-.49,5.06-1.8.29-2.15-9.45-5.78-9.45-5.78h0s-2.73-2.71-5.4-5.78C703.61,667.55,703.09,666.67,702.46,666.86Z"/><path class="cls-2" d="M817.25,667.11c.28.09.82.44,1.35,5.06.48,4.26.72,6.39,0,7.58s-2.78,1.84-6.76,2.88c-3.23.86-5.14,1.35-7.77,1.08-1-.1-4.89-.49-5.06-1.8-.29-2.15,9.45-5.78,9.45-5.78s2.73-2.71,5.4-5.78C816.11,667.81,816.62,666.92,817.25,667.11Z"/><polygon class="cls-2" points="710.67 707.16 711.96 705.71 714.37 704.88 717.57 704.16 760.56 705.19 782.92 705.09 799.58 704.16 802.2 704.16 805.1 705.19 807.81 707.16 808.81 708.09 771.5 710.37 754.46 710.37 730.74 709.75 718.63 708.72 712.15 708.09 710.67 707.16"/><path class="cls-2" d="M801.57,645.64,799,638.22l-1.71-5.33-1.75-4.7-3.1-2-6.2-1-10-.81H742.37l-8.09,1-9.89,1.4-3.7,6.11L716.24,643l-3.11,11.22h91.35Z"/><g id="b2gxEa-38" data-name="b2gxEa"><path class="cls-1" d="M988.24,676.5c-.28-2.87-.73-6.26-2.32-8.35-3.26-4.27-7.35-7.82-11.08-11.68a3.78,3.78,0,0,1-.55-1,5.05,5.05,0,0,1,1-.4c3.39-.66,6.78-1.23,10.15-2a2.39,2.39,0,0,0,1.47-1.64c.15-4.46-5.72-8.44-9.49-6.51a1.67,1.67,0,0,0-.82.94c-.45,1.85-.75,3.75-1.22,5.61a6.4,6.4,0,0,1-1,1.65c-.54-.42-1.37-.71-1.59-1.27-2.79-7-5.27-14.13-8.3-21-1.81-4.12-4.52-8.26-9.08-8.82a235,235,0,0,0-28.11-2.2c-11.1-.05-22.22.91-33.32,1.6-3.85.25-8,.57-10.45,4.33a85.86,85.86,0,0,0-7,12.28c-2.06,4.6-3.37,9.56-5.09,14.34a2,2,0,0,1-1.45,1,1.44,1.44,0,0,1-1.21-.82c-.49-2.08-.8-4.21-1.24-6.3a1.43,1.43,0,0,0-.65-.92c-2.94-1.4-8.49,1.56-9.47,4.93-.59,2,0,3.12,1.88,3.44,3.21.57,6.43,1,9.64,1.56a4.72,4.72,0,0,1,1,.43,4.15,4.15,0,0,1-.55,1c-2.66,2.81-5.44,5.49-8,8.41-1.82,2.1-4.41,4.33-4.78,6.81A171.43,171.43,0,0,0,855,694.1c-.14,7.6.42,15.19.66,22.26l-2.31,2c.68.87,1.34,1.76,2,2.61.4.48,1,.83,1.21,1.37.09.26-.47.89-.82,1.25-1.07,1.08-1.93,2.32-.12,3.28a12.19,12.19,0,0,0,4.89,1.59c10.6.54,21.19,1,31.8,1.27,10.18.24,20.38.19,30.57.29,3.27,0,6.56.28,9.83.16,13.43-.49,26.87-1,40.29-1.69a92.15,92.15,0,0,0,13.48-2C989.1,725.91,989.66,691.05,988.24,676.5ZM879.24,643l4.45-10.14,3.7-6.11,9.89-1.4,8.09-1h33.87l10,.81,6.2,1,3.1,2,1.75,4.7,1.71,5.33,2.55,7.42,2.91,8.62H876.13Z"/></g><path class="cls-2" d="M865.46,666.86c-.28.09-.82.44-1.35,5.06-.48,4.26-.72,6.39,0,7.58s2.78,1.84,6.76,2.88c3.23.86,5.14,1.35,7.77,1.08,1-.1,4.89-.49,5.06-1.8.29-2.15-9.45-5.78-9.45-5.78h0s-2.73-2.71-5.4-5.78C866.61,667.55,866.09,666.67,865.46,666.86Z"/><path class="cls-2" d="M980.25,667.11c.28.09.82.44,1.35,5.06.48,4.26.72,6.39,0,7.58s-2.78,1.84-6.76,2.88c-3.23.86-5.14,1.35-7.77,1.08-1-.1-4.89-.49-5.06-1.8-.29-2.15,9.45-5.78,9.45-5.78s2.73-2.71,5.4-5.78C979.11,667.81,979.62,666.92,980.25,667.11Z"/><polygon class="cls-2" points="873.67 707.16 874.96 705.71 877.37 704.88 880.57 704.16 923.56 705.19 945.92 705.09 962.58 704.16 965.2 704.16 968.1 705.19 970.81 707.16 971.81 708.09 934.5 710.37 917.46 710.37 893.74 709.75 881.63 708.72 875.15 708.09 873.67 707.16"/><path class="cls-2" d="M964.57,645.64,962,638.22l-1.71-5.33-1.75-4.7-3.1-2-6.2-1-10-.81H905.37l-8.09,1-9.89,1.4-3.7,6.11L879.24,643l-3.11,11.22h91.35Z"/><g id="b2gxEa-39" data-name="b2gxEa"><path class="cls-1" d="M1151.24,676.5c-.28-2.87-.73-6.26-2.32-8.35-3.26-4.27-7.35-7.82-11.08-11.68a3.78,3.78,0,0,1-.55-1,5.05,5.05,0,0,1,1-.4c3.39-.66,6.78-1.23,10.15-2a2.39,2.39,0,0,0,1.47-1.64c.15-4.46-5.72-8.44-9.49-6.51a1.67,1.67,0,0,0-.82.94c-.45,1.85-.75,3.75-1.22,5.61a6.4,6.4,0,0,1-1,1.65c-.54-.42-1.37-.71-1.59-1.27-2.79-7-5.27-14.13-8.3-21-1.81-4.12-4.52-8.26-9.08-8.82a235,235,0,0,0-28.11-2.2c-11.1-.05-22.22.91-33.32,1.6-3.85.25-8,.57-10.45,4.33a85.86,85.86,0,0,0-7,12.28c-2.06,4.6-3.37,9.56-5.09,14.34a2,2,0,0,1-1.45,1,1.44,1.44,0,0,1-1.21-.82c-.49-2.08-.8-4.21-1.24-6.3a1.43,1.43,0,0,0-.65-.92c-2.94-1.4-8.49,1.56-9.47,4.93-.59,2,0,3.12,1.88,3.44,3.21.57,6.43,1,9.64,1.56a4.72,4.72,0,0,1,1,.43,4.15,4.15,0,0,1-.55,1c-2.66,2.81-5.44,5.49-8,8.41-1.82,2.1-4.41,4.33-4.78,6.81a171.43,171.43,0,0,0-1.68,22.2c-.14,7.6.42,15.19.66,22.26l-2.31,2c.68.87,1.34,1.76,2,2.61.4.48,1,.83,1.21,1.37.09.26-.47.89-.82,1.25-1.07,1.08-1.93,2.32-.12,3.28a12.19,12.19,0,0,0,4.89,1.59c10.6.54,21.19,1,31.8,1.27,10.18.24,20.38.19,30.57.29,3.27,0,6.56.28,9.83.16,13.43-.49,26.87-1,40.29-1.69a92.15,92.15,0,0,0,13.48-2C1152.09,725.91,1152.66,691.05,1151.24,676.5Zm-109-33.47,4.45-10.14,3.7-6.11,9.89-1.4,8.09-1h33.87l10,.81,6.2,1,3.1,2,1.75,4.7,1.71,5.33,2.55,7.42,2.91,8.62h-91.35Z"/></g><path class="cls-2" d="M1028.46,666.86c-.28.09-.82.44-1.35,5.06-.48,4.26-.72,6.39,0,7.58s2.78,1.84,6.76,2.88c3.23.86,5.14,1.35,7.77,1.08,1-.1,4.89-.49,5.06-1.8.29-2.15-9.45-5.78-9.45-5.78h0s-2.73-2.71-5.4-5.78C1029.61,667.55,1029.09,666.67,1028.46,666.86Z"/><path class="cls-2" d="M1143.25,667.11c.28.09.82.44,1.35,5.06.48,4.26.72,6.39,0,7.58s-2.78,1.84-6.76,2.88c-3.23.86-5.14,1.35-7.77,1.08-1-.1-4.89-.49-5.06-1.8-.29-2.15,9.45-5.78,9.45-5.78s2.73-2.71,5.4-5.78C1142.11,667.81,1142.62,666.92,1143.25,667.11Z"/><polygon class="cls-2" points="1036.67 707.16 1037.96 705.71 1040.37 704.88 1043.57 704.16 1086.56 705.19 1108.92 705.09 1125.58 704.16 1128.2 704.16 1131.1 705.19 1133.81 707.16 1134.81 708.09 1097.5 710.37 1080.46 710.37 1056.74 709.75 1044.63 708.72 1038.15 708.09 1036.67 707.16"/><path class="cls-2" d="M1127.57,645.64l-2.55-7.42-1.71-5.33-1.75-4.7-3.1-2-6.2-1-10-.81h-33.87l-8.09,1-9.89,1.4-3.7,6.11L1042.24,643l-3.11,11.22h91.35Z"/><g id="b2gxEa-40" data-name="b2gxEa"><path class="cls-1" d="M1314.24,676.5c-.28-2.87-.73-6.26-2.32-8.35-3.26-4.27-7.35-7.82-11.08-11.68a3.78,3.78,0,0,1-.55-1,5.05,5.05,0,0,1,1-.4c3.39-.66,6.78-1.23,10.15-2a2.39,2.39,0,0,0,1.47-1.64c.15-4.46-5.72-8.44-9.49-6.51a1.67,1.67,0,0,0-.82.94c-.45,1.85-.75,3.75-1.22,5.61a6.4,6.4,0,0,1-1,1.65c-.54-.42-1.37-.71-1.59-1.27-2.79-7-5.27-14.13-8.3-21-1.81-4.12-4.52-8.26-9.08-8.82a235,235,0,0,0-28.11-2.2c-11.1-.05-22.22.91-33.32,1.6-3.85.25-8,.57-10.45,4.33a85.86,85.86,0,0,0-7,12.28c-2.06,4.6-3.37,9.56-5.09,14.34a2,2,0,0,1-1.45,1,1.44,1.44,0,0,1-1.21-.82c-.49-2.08-.8-4.21-1.24-6.3a1.43,1.43,0,0,0-.65-.92c-2.94-1.4-8.49,1.56-9.47,4.93-.59,2,0,3.12,1.88,3.44,3.21.57,6.43,1,9.64,1.56a4.72,4.72,0,0,1,1,.43,4.15,4.15,0,0,1-.55,1c-2.66,2.81-5.44,5.49-8,8.41-1.82,2.1-4.41,4.33-4.78,6.81a171.43,171.43,0,0,0-1.68,22.2c-.14,7.6.42,15.19.66,22.26l-2.31,2c.68.87,1.34,1.76,2.05,2.61.4.48,1,.83,1.21,1.37.09.26-.47.89-.82,1.25-1.07,1.08-1.93,2.32-.12,3.28a12.19,12.19,0,0,0,4.89,1.59c10.6.54,21.19,1,31.8,1.27,10.18.24,20.38.19,30.57.29,3.27,0,6.56.28,9.83.16,13.43-.49,26.87-1,40.29-1.69a92.15,92.15,0,0,0,13.48-2C1315.09,725.91,1315.66,691.05,1314.24,676.5Zm-109-33.47,4.45-10.14,3.7-6.11,9.89-1.4,8.09-1h33.87l10,.81,6.2,1,3.1,2,1.75,4.7,1.71,5.33,2.55,7.42,2.91,8.62h-91.35Z"/></g><path class="cls-2" d="M1191.46,666.86c-.28.09-.82.44-1.35,5.06-.48,4.26-.72,6.39,0,7.58s2.78,1.84,6.76,2.88c3.23.86,5.14,1.35,7.77,1.08,1-.1,4.89-.49,5.06-1.8.29-2.15-9.45-5.78-9.45-5.78h0s-2.73-2.71-5.4-5.78C1192.61,667.55,1192.09,666.67,1191.46,666.86Z"/><path class="cls-2" d="M1306.25,667.11c.28.09.82.44,1.35,5.06.48,4.26.72,6.39,0,7.58s-2.78,1.84-6.76,2.88c-3.23.86-5.14,1.35-7.77,1.08-1-.1-4.89-.49-5.06-1.8-.29-2.15,9.45-5.78,9.45-5.78s2.73-2.71,5.4-5.78C1305.11,667.81,1305.62,666.92,1306.25,667.11Z"/><polygon class="cls-2" points="1199.67 707.16 1200.96 705.71 1203.37 704.88 1206.57 704.16 1249.56 705.19 1271.92 705.09 1288.58 704.16 1291.2 704.16 1294.1 705.19 1296.81 707.16 1297.81 708.09 1260.5 710.37 1243.46 710.37 1219.74 709.75 1207.63 708.72 1201.15 708.09 1199.67 707.16"/><path class="cls-2" d="M1290.57,645.64l-2.55-7.42-1.71-5.33-1.75-4.7-3.1-2-6.2-1-10-.81h-33.87l-8.09,1-9.89,1.4-3.7,6.11L1205.24,643l-3.11,11.22h91.35Z"/><path d="M1123,55.66h11v2.49h-11Zm0,5.59h11v2.49h-11Z"/><path d="M1141.32,64.78h3.33V56h-2.86V53.77a10.33,10.33,0,0,0,3.78-1.39h2.6v12.4H1151v2.85h-9.71V64.78Z"/><path d="M1159,52h3.86l2.54,7c.31.92.59,1.93.9,2.89h.1c.31-1,.58-2,.89-2.89l2.46-7h3.86V67.62h-3.22V61.88c0-1.53.29-3.8.45-5.31h-.1l-1.28,3.7-2.21,6h-2l-2.22-6-1.25-3.7h-.1c.17,1.51.45,3.79.45,5.31v5.74H1159Z"/><path d="M1176.69,52.13a2.05,2.05,0,1,1,2,1.84A1.88,1.88,0,0,1,1176.69,52.13Zm.27,3.59h3.53V67.63H1177Z"/><path d="M1183.59,63.92V50.81h3.53V64.07c0,.76.35,1,.64,1a1.45,1.45,0,0,0,.43,0l.42,2.6a4.51,4.51,0,0,1-1.77.29C1184.41,67.91,1183.59,66.33,1183.59,63.92Z"/><path d="M1190.45,63.92V50.81H1194V64.07c0,.76.35,1,.64,1a1.45,1.45,0,0,0,.43,0l.42,2.6a4.51,4.51,0,0,1-1.77.29C1191.28,67.91,1190.45,66.33,1190.45,63.92Z"/><path d="M1197,52.13a2.05,2.05,0,1,1,2,1.84A1.88,1.88,0,0,1,1197,52.13Zm.27,3.59h3.53V67.63h-3.53Z"/><path d="M1203.25,61.68c0-4,2.79-6.25,5.8-6.25s5.8,2.29,5.8,6.25-2.79,6.24-5.8,6.24S1203.25,65.63,1203.25,61.68Zm8,0c0-2.06-.72-3.4-2.18-3.4s-2.18,1.34-2.18,3.4.72,3.39,2.18,3.39S1211.23,63.74,1211.23,61.68Z"/><path d="M1217.26,55.72h2.88l.25,1.51h.09a5.46,5.46,0,0,1,3.83-1.8c2.59,0,3.69,1.83,3.69,4.8v7.39h-3.53V60.68c0-1.71-.46-2.25-1.48-2.25a3,3,0,0,0-2.2,1.16v8h-3.53V55.72Z"/><path d="M1239.14,55h-4.31V52H1247v3h-4.31V67.63h-3.54V55Z"/><path d="M1248.44,61.68c0-3.86,2.76-6.25,5.62-6.25,3.39,0,5.07,2.47,5.07,5.72a7.74,7.74,0,0,1-.15,1.56h-7.12a2.87,2.87,0,0,0,3.09,2.52,4.9,4.9,0,0,0,2.57-.78l1.17,2.13a7.77,7.77,0,0,1-4.22,1.34C1251.07,67.91,1248.44,65.62,1248.44,61.68Zm7.67-1.31c0-1.31-.57-2.25-2-2.25a2.36,2.36,0,0,0-2.32,2.25Z"/><path d="M1260.51,66.25l1.59-2.2a5.15,5.15,0,0,0,3.07,1.25c1,0,1.5-.4,1.5-1,0-.78-1.18-1.14-2.41-1.62-1.46-.56-3.15-1.53-3.15-3.5,0-2.22,1.8-3.73,4.55-3.73a6.79,6.79,0,0,1,4.2,1.51l-1.58,2.12a4.4,4.4,0,0,0-2.51-1c-.91,0-1.36.36-1.36,1,0,.76,1.12,1,2.35,1.5,1.51.56,3.21,1.41,3.21,3.58s-1.7,3.84-4.89,3.84A7.72,7.72,0,0,1,1260.51,66.25Z"/><path d="M1272.19,63.92V50.81h3.53V64.07c0,.76.35,1,.64,1a1.45,1.45,0,0,0,.43,0l.42,2.6a4.51,4.51,0,0,1-1.77.29C1273,67.91,1272.19,66.33,1272.19,63.92Z"/><path d="M1278.51,64.32c0-2.51,2-3.87,6.71-4.36a1.66,1.66,0,0,0-1.88-1.72,6.49,6.49,0,0,0-3.15,1.08L1278.94,57a9.75,9.75,0,0,1,5.09-1.57c3,0,4.73,1.74,4.73,5.39v6.81h-2.88l-.25-1.22h-.09a5.24,5.24,0,0,1-3.46,1.51A3.45,3.45,0,0,1,1278.51,64.32Zm6.7-.15V62.09c-2.51.34-3.33,1.06-3.33,2s.53,1.14,1.37,1.14A2.72,2.72,0,0,0,1285.21,64.17Z"/><path d="M1290.65,66.25l1.59-2.2a5.15,5.15,0,0,0,3.07,1.25c1,0,1.5-.4,1.5-1,0-.78-1.18-1.14-2.41-1.62-1.46-.56-3.15-1.53-3.15-3.5,0-2.22,1.8-3.73,4.55-3.73a6.79,6.79,0,0,1,4.2,1.51l-1.58,2.12a4.4,4.4,0,0,0-2.51-1c-.91,0-1.36.36-1.36,1,0,.76,1.12,1,2.35,1.5,1.51.56,3.21,1.41,3.21,3.58s-1.7,3.84-4.89,3.84A7.74,7.74,0,0,1,1290.65,66.25Z"/><g id="b2gxEa-41" data-name="b2gxEa"><path class="cls-1" d="M1113.9,61.65c-.17-1.73-.44-3.77-1.4-5a81.92,81.92,0,0,0-6.67-7,2.11,2.11,0,0,1-.33-.61,3.85,3.85,0,0,1,.61-.24c2-.39,4.08-.74,6.11-1.21a1.47,1.47,0,0,0,.89-1c.09-2.68-3.44-5.08-5.71-3.92a1,1,0,0,0-.5.57c-.27,1.11-.45,2.26-.74,3.37a3.64,3.64,0,0,1-.6,1c-.33-.25-.82-.42-1-.77-1.68-4.21-3.17-8.51-5-12.64-1.09-2.48-2.72-5-5.46-5.31a143.54,143.54,0,0,0-16.92-1.33c-6.68,0-13.37.55-20,1-2.32.15-4.79.34-6.29,2.61a52.77,52.77,0,0,0-4.21,7.39c-1.24,2.77-2,5.75-3.06,8.63a1.17,1.17,0,0,1-.87.58.89.89,0,0,1-.73-.49c-.3-1.25-.48-2.53-.74-3.79a.84.84,0,0,0-.39-.55c-1.77-.84-5.11.94-5.7,3-.35,1.2,0,1.88,1.13,2.07,1.93.34,3.87.62,5.8.94a3.27,3.27,0,0,1,.62.26,3,3,0,0,1-.33.61c-1.6,1.69-3.27,3.31-4.8,5.06-1.1,1.27-2.66,2.61-2.88,4.1a101,101,0,0,0-1,13.36c-.09,4.57.26,9.14.4,13.4l-1.39,1.19c.41.52.81,1.06,1.23,1.57.24.29.61.5.73.83.06.16-.28.54-.5.75-.64.65-1.16,1.4-.07,2a7.38,7.38,0,0,0,2.94,1c6.38.33,12.76.61,19.14.77,6.13.14,12.27.11,18.4.17,2,0,4,.17,5.92.1,8.09-.3,16.17-.58,24.25-1a55.69,55.69,0,0,0,8.11-1.21C1114.42,91.4,1114.76,70.41,1113.9,61.65Zm-65.6-20.14,2.68-6.1,2.22-3.68,6-.84,4.87-.61h20.39l6,.49,3.73.61,1.86,1.21,1.06,2.83,1,3.21,1.54,4.47,1.75,5.19h-55Z"/></g><path class="cls-2" d="M1040,55.85c-.17,0-.5.27-.81,3-.29,2.56-.43,3.84,0,4.56s1.67,1.11,4.07,1.74a12,12,0,0,0,4.68.65c.61-.06,2.94-.3,3-1.08.18-1.3-5.69-3.48-5.69-3.48h0s-1.64-1.63-3.25-3.48C1040.7,56.27,1040.39,55.74,1040,55.85Z"/><path class="cls-2" d="M1109.1,56c.17,0,.5.27.81,3,.29,2.56.43,3.84,0,4.56s-1.67,1.11-4.07,1.74a12,12,0,0,1-4.68.65c-.61-.06-2.94-.3-3.05-1.08-.18-1.3,5.69-3.48,5.69-3.48s1.64-1.63,3.25-3.48C1108.41,56.42,1108.72,55.89,1109.1,56Z"/><polygon class="cls-2" points="1044.95 80.11 1045.72 79.24 1047.17 78.74 1049.1 78.3 1074.97 78.92 1088.44 78.86 1098.46 78.3 1100.04 78.3 1101.79 78.92 1103.42 80.11 1104.02 80.67 1081.56 82.04 1071.3 82.04 1057.02 81.67 1049.74 81.05 1045.84 80.67 1044.95 80.11"/><path class="cls-2" d="M1099.66,43.08l-1.54-4.47-1-3.21L1096,32.57l-1.86-1.21-3.73-.61-6-.49H1064l-4.87.61-6,.84L1051,35.39l-2.68,6.1-1.87,6.76h55Z"/></svg>