<?xml version="1.0" encoding="utf-8"?>
<!-- Generator: Adobe Illustrator 25.2.3, SVG Export Plug-In . SVG Version: 6.00 Build 0)  -->
<svg version="1.1" id="Layer_1" xmlns="http://www.w3.org/2000/svg" xmlns:xlink="http://www.w3.org/1999/xlink" x="0px" y="0px"
	 viewBox="0 0 1366 768" style="enable-background:new 0 0 1366 768;" xml:space="preserve">
<style type="text/css">
	.st0{fill:#1F8EA0;}
	.st1{fill:#35FFFC;}
	.st2{fill:#FFFFFF;}
</style>
<g id="rdtKsy">
	<path class="st0" d="M866.2,693.2c-12.9-2.8-27.1-0.4-38.3-10.5c-2-1.8-7-2.3-9.7-1.2c-14.8,5.8-30.8,5.9-46,9.6
		c-8,2-10,12.9-20.4,11.5c-4.6-4.8-10-10-12.7-17.5c-3.2-0.3-6.8-1.8-9-0.6c-20.4,10.8-41.4-4.9-62,2.4c0,7.3-3,11.5-11.6,8
		c-2.2-0.9-4.5-1.3-6.5,0c-7.3,4.4-13.7,2-19.9-2.9c-7.8,4.1-15.4,8.9-24.5,2.4c-8.3,8.1-19.2,4.9-26.8,2c-11-4.1-21.8-6.8-32.8-5.2
		c-16.4,2.2-32.1,0.5-47.8-3.6c-6.9-1.8-13.8-2.2-16.1,7.1c-8.5-1.6-17.4,0.2-23.6-8.3c-9.8,10.4-19.7,7-29.5,1.1
		c-3.6-2.1-7.7-3-11.8-2.7c-2.2,0.1-5.4,0.6-6.5-0.6c-7.8-8.3-17-7.3-27.3-7.5c-7.9-0.2-14.3-0.1-20.8,4.4
		c-11.4,7.8-24.7,4.5-37.2,5c-6.9,0.3-13.5-0.5-17.7,5.2c-4.6,0.3-6-4.7-10.4-3.6c-13.3,7.6-17.8,5.7-27-12.2
		c-12.3-5.8-22.9-18.7-38.3-8.5c-5.4-10-12.1-8.1-18.9-4.1c-13,7.6-14.9,7.2-23.2-5.1c-11,5.7-25.1,4-35.4-5.2
		c8.1,0.2,14.6-1.5,17.4-9.7c-9.4-10-15.7,8.5-24.5,2.7c-2.6-1.7,0.1-3.8,0.6-5.9c-9.8,0.1-18.7-0.2-28.1-2.5
		c3.7,11.6,16.9,11.2,23.9,20.7c-13.8,3.9-27-6.6-39.7,1.2c-8.2-7.4-18.4-6.6-28.3-7.8c-9.6-1.2-20.9,2.7-27.6-8.7
		c-1.3-3.9,2.8-8.6-1.2-12.7c-3.7-3.8-5.7-8.8-1.5-13c4.5-4.5,10.9-4.7,16.8-3c2.8,0.8,5.1,3,8.3,5l10.8-2.6c1.4-4.7-5-3.8-3.9-8.2
		c6.7-13.1,13.6-15,31.1-8c2.3,3.2,0.5,6.5-0.1,9.7l-18,5.4c9.2,3.4,15.8,5.1,17.9-5.5c15.6,2.4,30.9-2.9,46.5-1.5
		c4.1,0.4,8.1,0.6,12.6,0.9l10.4-12.3c-15.1-2.8-28.2-8.7-42.3-2.9l-0.1-0.1c-2.9-7,1.2-10.3,6.3-13.1c13.6,6,13.6,6,19.3,0.9
		c-4.1-10.1-15.4-5.6-24.5-11.9c16.5-8.1,33-11.4,48.4-16.8c16.1-5.6,29-21.1,48.7-15.6c18.5-30,45.4-50.1,73.1-69.5
		c11.8-2.1,21.3-7.4,24.6-20.7c0.1-0.4,0.3-0.7,0.6-0.9c15.4-9.4,25.4-25,40.3-36.4c-3.6-5.4-0.6-11.1,2.6-17.4
		c9.2-2.5,13.6-8.6,15.1-19c2.4-17.3,6.7-20.4,25.2-23.3c4.9-0.8,6.2-4.9,8.2-6.8c4.5-1.7,6.8,1.2,9.7,1.6c4.9,0.7,11-0.3,11.2-4.9
		c0.5-10.3,7.4-11.9,14.6-13.5c4.8-12.5,10.8-24.5,22.9-29.8c10.8-4.8,16-12.7,19.5-23c10.6-2.6,22.7-2.7,26.5-16.9
		c-2.5-17.7-1.9-18.9,14.8-28.9c4.6-1.3,7.6,3.2,12.3,3c8.2-4.4,10-15.5,18.5-18.8c2-4.6-1.6-7-2.6-9.7c2.5-3.7,6-4.6,9.2-3.7
		c11.7,3.3,18.2-4.1,22.2-12.4c3.5-7.1,8.5-10.7,14.7-14.5c6.6-4,14.5-5.4,20-11.8c4.4-5.1,10.5-2.1,16.4-0.5
		c4.8-4.8,8.7-10.6,11.2-16.9c5.9,2.4,11,0.5,15.9-3.5c6.8,4.7,14.1,6.9,22.2,6c2.1-0.2,5.5,0,6.4,1.4c7.2,11.3,20.7,11.4,31.1,15.6
		c9.4,3.8,20.5,5.6,30.8,8.6c4.6,1.2,8.8,4,11.8,7.7c6,7.2,14.1,11.1,22.9,14.9c13.9,6.1,23.7,17.8,30.9,31.1
		c2.5,4.7,4.4,9.4,9.8,11.6c1.7,0.6,3.8,2,4.2,3.5c4.8,16.6,19.6,25.6,28.9,38.8c1.3,1.8,2.1,4,2.2,6.3c0.1,7,3.1,12.2,9.9,15.8
		l8.4-3.2c0.6,5.1,1.1,9.4,1.5,12.5c23.3,23,46.7,44.3,65.6,70c4,5.4,9.5,9.6,15.7,12.1c7.2,3.1,14.2,7.9,17.4,16.5
		c3.8,10.5,17.2,12.5,21.5,22.9c3.2,1.8,6.4-2.7,10.8,0.9c-1.5,15.7,14.5,15,22.4,21.7c9.7,1,15.8-6,25.6-8.5
		c-1.1,14.1,26.8,11.4,15.2,30.6c4.7,8.8,9.9,15.2,20.3,14.3c3.1-0.2,6.1,1.1,8,3.5c8.3,9.4,16.4,18.8,25.4,29.1
		c5.5-1,11.3,0.3,13.5,7.5c8.5-1.4,16.1-3.5,24.9-2.2c0.2,7.7,7.3,13.2,5.4,22.1c10.2-1.1,19.5-1.3,28.4,2.1
		c7.9,3,16.6,4.4,18.7,15.3c0.7,3.8,7.2,4.8,9,9.3c4.5-1.1,2.3-6.7,6.6-7.6c17.9,4,41.6-7.8,52.9,19.7c-0.3,1.1-5,2.4-5.5,8.7
		c13.9,0.9,26.4,13.6,41.4,2.4c2.7,3.3,6.2,5.5,4.4,11.1c-10-3.6-18-1-25.6,6.7c-5.3,5.5-13.3,3.3-19.9,1.8
		c-10.5,7.9,1.4,14.2,0.3,21.2c4.8,3.6,12.4,3.4,13.1,11.8c-5.2,7.3-12.8,4.1-19.2,2.9c-13.8-2.7-23.6-12.8-36.4-19.4
		c-1.9,2.1,1.2,7.7-3.3,11.3c-9.3-2.6-19.2-2.5-28.5,0.2c-4.1,1.1-8,1.6-10.2,5.8c-0.8,1.5-2.6,3.6-4,3.6
		c-14.1,0.2-25.6,12.2-41,7.8c-10.7-3.1-21.5,1.9-32.3,2.8c-1.7,22.9-22.2,27-45.9,12.7c-0.4-2.8-0.9-6-1.3-8.6
		c-7.6-7.8-10.3,2.8-15.7,3.1c-6.3,0.4-11.4-3.4-16.5-4.6c-15.9,9.8-31.8,16.6-50.7,12.7c-2.5,2,1.6,5.7-1.5,7.9
		c-9.5,1.8-19.1,3.3-28.6,5.6c-6,1.4-11-1.3-16.4-2.6s-11-2.3-16.6-3.1c-14.5-2.2-18.5,0.7-19.4,14.5c-7.3,3.6-6.2-3.6-8.1-6.6
		c-12.5-3.5-27.2,3.6-38-7.3c-5.4,0.1-12.4-5.9-17,1.9L866.2,693.2z"/>
	<path class="st1" d="M1349,637.5c-13.3,10.5-33.3,7.5-39.9-6.3c5.4-8.3,14.6-8.4,22.5-7C1338.6,625.2,1347.8,626.3,1349,637.5z"/>
	<path class="st0" d="M722,713.2c11.9-3.7,23,0.7,35.1,2.9C750.8,724.8,739.7,723.9,722,713.2z"/>
	<path class="st0" d="M221.7,671.8c11.6-1.3,20.7-3.3,29.9,1.9C244.4,682.4,235,682,221.7,671.8z"/>
	<path class="st0" d="M168.3,687.1c4.7-6.7,9.7-9.1,16.4-7.7c2.9,4.2,2,7.7-1.5,9.9C178,692.5,173.6,689.9,168.3,687.1z"/>
	<path class="st0" d="M135.5,594.1c-0.3,10.9-6.1,10-13.9,6.7C122.9,590.5,129,591.9,135.5,594.1L135.5,594.1z"/>
	<path class="st0" d="M828.7,702.3c-5,3.5-8.7,1.6-12.2-0.9c-0.7-5,1.6-7.3,5.5-7.3C826.2,694.2,828.8,696.8,828.7,702.3z"/>
	<path class="st0" d="M769.9,700.2c6.3-3.5,11.2-1.7,17,2.5C778.8,709,774.9,701.6,769.9,700.2z"/>
	<path class="st0" d="M970.5,705.6c-5.4,4.8-9.9,2.1-15-0.7C962.2,699.8,962.2,699.8,970.5,705.6z"/>
	<path class="st0" d="M1064.4,691.6c-6.1,3.7-12.2,6.7-16.1-1.7c3.4-3.9,5.5-0.6,8.1,0.3S1061.7,691.2,1064.4,691.6z"/>
	<path class="st0" d="M866.1,693.3c4.2-1.3,7.9-0.8,11,2.2c0.4,4.2-2.1,5.8-5.3,5.6C866.9,701,866.4,697.1,866.1,693.3L866.1,693.3z
		"/>
	<g id="LFRJ5R">
		<path class="st2" d="M287.4,599.6c-0.1,0.8-0.3,1.7-0.4,2.5c-0.4,6.7-0.9,13.4-1.1,20c-0.3,7.8-0.7,15.5,0.7,23.2
			c-1.3,2.6,0.5,5,0.8,7.4c0.2,1.4,0.6,2.9-1.4,3.4c-1.8,0.4-3.7-0.6-4.2-2.4c0-0.1,0-0.1,0-0.2c-0.3-5.4-2.1-10.6-2.3-16.1
			c-0.3-9.9-0.9-19.8-1.4-29.8c-0.3-4.7-0.9-9.3-1-13.9c-0.1-2.2,0.5-4.4,0.6-6.6c0-0.9-0.2-1.7-0.5-2.5c-0.4-0.6-0.9-1.2-1.4-1.7
			c-2.7-2.8-4-6.6-3.7-10.4c0.4-4.6,0.7-9.3,1.2-13.9c0.2-2.2,1.4-4.2,3.3-5.3l7.9-5.2c2-1.6,2.3-4.4,0.8-6.4c0,0-0.1-0.1-0.1-0.1
			c-1.2-1.2-1.8-2.4-0.4-3.9c0.3-0.4,0.1-1.2,0.1-1.8c0.1-3.2,2.1-5.5,4.7-5.4s4.6,2.4,4.7,5.5c0,0.7,0.6,1.5,0.5,2.2
			c-0.1,1-0.1,2.5-0.7,3c-1.8,1.7-1.8,3.8-2.1,5.9c0,0.4,0.1,0.7,0.4,0.9c2,1.3,3.9,3,6.1,3.8c3,1.2,4.5,3.2,4.6,6.3
			c0.1,6,0.1,11.9,0,17.8c-0.2,1.3-0.6,2.5-1.4,3.6c-1.1,1.9-2.2,3.7-3.5,5.5c-0.8,1.1-0.8,2,0.2,2.9s0.8,1.7,0.7,2.8
			c-0.1,3,0.1,6,0.4,9c0.7,7.1,1.7,14.2,2.1,21.3c0.3,5.6-0.1,11.3-0.2,16.9c0,3.3,0.1,6.7,0.1,10c0,0.6,0.2,1.5,0,1.8
			c-0.9,0.9-0.2,1.5,0.2,2.1c1.1,1.8,2.4,3.5,3.5,5.3c0.4,0.6,0.7,1.8,0.4,2.2c-0.6,0.5-1.4,0.7-2.2,0.5c-2.4-0.5-5-0.9-5.4-4.2
			c0-0.4-0.6-0.9-1.1-1.1c-1.5-0.6-1.9-1.6-1.9-3.2c0.1-2.7-0.2-5.5-0.2-8.2s0.1-5.7,0.1-8.5c0-2,0-4-0.1-6
			c-0.1-1.3-0.1-2.6-0.1-3.9c0.2-1.8-0.1-3.7-0.9-5.3c-1.1-2.5-1.4-5.4-2.2-8.1c-1.1-4-2.2-7.9-3.3-11.8L287.4,599.6z"/>
	</g>
</g>
</svg>
