<svg id="Layer_1" data-name="Layer 1" xmlns="http://www.w3.org/2000/svg" viewBox="0 0 1366 768"><defs><style>.cls-1{fill:#1f8ea0;}.cls-2,.cls-3{fill:#fff;}.cls-2{stroke:#fff;stroke-miterlimit:10;stroke-width:0.5px;}</style></defs><path class="cls-1" d="M27.23,122.71l39.08.08c3.46,0,6.27,3.21,6.25,7.16l-.15,95.92c0,3.95-2.82,7.14-6.28,7.13l-39.08-.08c-3.46,0-6.27-3.21-6.25-7.16L21,129.84C21,125.91,23.77,122.71,27.23,122.71Z"/><path class="cls-2" d="M39.52,130.68l13.4,0a.6.6,0,0,1,.6.6h0a.6.6,0,0,1-.6.6l-13.4,0a.6.6,0,0,1-.6-.6h0A.6.6,0,0,1,39.52,130.68Z"/><circle class="cls-3" cx="46.73" cy="221.67" r="4.53"/><path class="cls-1" d="M94.23,122.71l39.08.08c3.46,0,6.27,3.21,6.25,7.16l-.15,95.92c0,3.95-2.82,7.14-6.28,7.13l-39.08-.08c-3.46,0-6.27-3.21-6.25-7.16L88,129.84C88,125.91,90.77,122.71,94.23,122.71Z"/><path class="cls-2" d="M106.52,130.68l13.4,0a.6.6,0,0,1,.6.6h0a.6.6,0,0,1-.6.6l-13.4,0a.6.6,0,0,1-.6-.6h0A.6.6,0,0,1,106.52,130.68Z"/><circle class="cls-3" cx="113.73" cy="221.67" r="4.53"/><path class="cls-1" d="M161.23,122.71l39.08.08c3.46,0,6.27,3.21,6.25,7.16l-.15,95.92c0,3.95-2.82,7.14-6.28,7.13l-39.08-.08c-3.46,0-6.27-3.21-6.25-7.16l.15-95.92C155,125.91,157.77,122.71,161.23,122.71Z"/><path class="cls-2" d="M173.52,130.68l13.4,0a.6.6,0,0,1,.6.6h0a.6.6,0,0,1-.6.6l-13.4,0a.6.6,0,0,1-.6-.6h0A.6.6,0,0,1,173.52,130.68Z"/><circle class="cls-3" cx="180.73" cy="221.67" r="4.53"/><path class="cls-1" d="M228.23,122.71l39.08.08c3.46,0,6.27,3.21,6.25,7.16l-.15,95.92c0,3.95-2.82,7.14-6.28,7.13l-39.08-.08c-3.46,0-6.27-3.21-6.25-7.16l.15-95.92C222,125.91,224.77,122.71,228.23,122.71Z"/><path class="cls-2" d="M240.52,130.68l13.4,0a.6.6,0,0,1,.6.6h0a.6.6,0,0,1-.6.6l-13.4,0a.6.6,0,0,1-.6-.6h0A.6.6,0,0,1,240.52,130.68Z"/><circle class="cls-3" cx="247.73" cy="221.67" r="4.53"/><path class="cls-1" d="M295.23,122.71l39.08.08c3.46,0,6.27,3.21,6.25,7.16l-.15,95.92c0,3.95-2.82,7.14-6.28,7.13l-39.08-.08c-3.46,0-6.27-3.21-6.25-7.16l.15-95.92C289,125.91,291.77,122.71,295.23,122.71Z"/><path class="cls-2" d="M307.52,130.68l13.4,0a.6.6,0,0,1,.6.6h0a.6.6,0,0,1-.6.6l-13.4,0a.6.6,0,0,1-.6-.6h0A.6.6,0,0,1,307.52,130.68Z"/><circle class="cls-3" cx="314.73" cy="221.67" r="4.53"/><path class="cls-1" d="M362.23,122.71l39.08.08c3.46,0,6.27,3.21,6.25,7.16l-.15,95.92c0,3.95-2.82,7.14-6.28,7.13l-39.08-.08c-3.46,0-6.27-3.21-6.25-7.16l.15-95.92C356,125.91,358.77,122.71,362.23,122.71Z"/><path class="cls-2" d="M374.52,130.68l13.4,0a.6.6,0,0,1,.6.6h0a.6.6,0,0,1-.6.6l-13.4,0a.6.6,0,0,1-.6-.6h0A.6.6,0,0,1,374.52,130.68Z"/><circle class="cls-3" cx="381.73" cy="221.67" r="4.53"/><path class="cls-1" d="M429.23,122.71l39.08.08c3.46,0,6.27,3.21,6.25,7.16l-.15,95.92c0,3.95-2.82,7.14-6.28,7.13l-39.08-.08c-3.46,0-6.27-3.21-6.25-7.16l.15-95.92C423,125.91,425.77,122.71,429.23,122.71Z"/><path class="cls-2" d="M441.52,130.68l13.4,0a.6.6,0,0,1,.6.6h0a.6.6,0,0,1-.6.6l-13.4,0a.6.6,0,0,1-.6-.6h0A.6.6,0,0,1,441.52,130.68Z"/><circle class="cls-3" cx="448.73" cy="221.67" r="4.53"/><path class="cls-1" d="M496.23,122.71l39.08.08c3.46,0,6.27,3.21,6.25,7.16l-.15,95.92c0,3.95-2.82,7.14-6.28,7.13l-39.08-.08c-3.46,0-6.27-3.21-6.25-7.16l.15-95.92C490,125.91,492.77,122.71,496.23,122.71Z"/><path class="cls-2" d="M508.52,130.68l13.4,0a.6.6,0,0,1,.6.6h0a.6.6,0,0,1-.6.6l-13.4,0a.6.6,0,0,1-.6-.6h0A.6.6,0,0,1,508.52,130.68Z"/><circle class="cls-3" cx="515.73" cy="221.67" r="4.53" transform="translate(214.31 695.23) rotate(-80.78)"/><path class="cls-1" d="M563.23,122.71l39.08.08c3.46,0,6.27,3.21,6.25,7.16l-.15,95.92c0,3.95-2.82,7.14-6.28,7.13l-39.08-.08c-3.46,0-6.27-3.21-6.25-7.16l.15-95.92C557,125.91,559.77,122.71,563.23,122.71Z"/><path class="cls-2" d="M575.52,130.68l13.4,0a.6.6,0,0,1,.6.6h0a.6.6,0,0,1-.6.6l-13.4,0a.6.6,0,0,1-.6-.6h0A.6.6,0,0,1,575.52,130.68Z"/><circle class="cls-3" cx="582.73" cy="221.67" r="4.53"/><path class="cls-1" d="M630.23,122.71l39.08.08c3.46,0,6.27,3.21,6.25,7.16l-.15,95.92c0,3.95-2.82,7.14-6.28,7.13l-39.08-.08c-3.46,0-6.27-3.21-6.25-7.16l.15-95.92C624,125.91,626.77,122.71,630.23,122.71Z"/><path class="cls-2" d="M642.52,130.68l13.4,0a.6.6,0,0,1,.6.6h0a.6.6,0,0,1-.6.6l-13.4,0a.6.6,0,0,1-.6-.6h0A.6.6,0,0,1,642.52,130.68Z"/><circle class="cls-3" cx="649.73" cy="221.67" r="4.53"/><path class="cls-1" d="M697.23,122.71l39.08.08c3.46,0,6.27,3.21,6.25,7.16l-.15,95.92c0,3.95-2.82,7.14-6.28,7.13l-39.08-.08c-3.46,0-6.27-3.21-6.25-7.16l.15-95.92C691,125.91,693.77,122.71,697.23,122.71Z"/><path class="cls-2" d="M709.52,130.68l13.4,0a.6.6,0,0,1,.6.6h0a.6.6,0,0,1-.6.6l-13.4,0a.6.6,0,0,1-.6-.6h0A.6.6,0,0,1,709.52,130.68Z"/><circle class="cls-3" cx="716.73" cy="221.67" r="4.53"/><path class="cls-1" d="M764.23,122.71l39.08.08c3.46,0,6.27,3.21,6.25,7.16l-.15,95.92c0,3.95-2.82,7.14-6.28,7.13l-39.08-.08c-3.46,0-6.27-3.21-6.25-7.16l.15-95.92C758,125.91,760.77,122.71,764.23,122.71Z"/><path class="cls-2" d="M776.52,130.68l13.4,0a.6.6,0,0,1,.6.6h0a.6.6,0,0,1-.6.6l-13.4,0a.6.6,0,0,1-.6-.6h0A.6.6,0,0,1,776.52,130.68Z"/><circle class="cls-3" cx="783.73" cy="221.67" r="4.53"/><path class="cls-1" d="M831.23,122.71l39.08.08c3.46,0,6.27,3.21,6.25,7.16l-.15,95.92c0,3.95-2.82,7.14-6.28,7.13l-39.08-.08c-3.46,0-6.27-3.21-6.25-7.16l.15-95.92C825,125.91,827.77,122.71,831.23,122.71Z"/><path class="cls-2" d="M843.52,130.68l13.4,0a.6.6,0,0,1,.6.6h0a.6.6,0,0,1-.6.6l-13.4,0a.6.6,0,0,1-.6-.6h0A.6.6,0,0,1,843.52,130.68Z"/><circle class="cls-3" cx="850.73" cy="221.67" r="4.53"/><path class="cls-1" d="M898.23,122.71l39.08.08c3.46,0,6.27,3.21,6.25,7.16l-.15,95.92c0,3.95-2.82,7.14-6.28,7.13l-39.08-.08c-3.46,0-6.27-3.21-6.25-7.16l.15-95.92C892,125.91,894.77,122.71,898.23,122.71Z"/><path class="cls-2" d="M910.52,130.68l13.4,0a.6.6,0,0,1,.6.6h0a.6.6,0,0,1-.6.6l-13.4,0a.6.6,0,0,1-.6-.6h0A.6.6,0,0,1,910.52,130.68Z"/><circle class="cls-3" cx="917.73" cy="221.67" r="4.53"/><path class="cls-1" d="M965.23,122.71l39.08.08c3.46,0,6.27,3.21,6.25,7.16l-.15,95.92c0,3.95-2.82,7.14-6.28,7.13l-39.08-.08c-3.46,0-6.27-3.21-6.25-7.16l.15-95.92C959,125.91,961.77,122.71,965.23,122.71Z"/><path class="cls-2" d="M977.52,130.68l13.4,0a.6.6,0,0,1,.6.6h0a.6.6,0,0,1-.6.6l-13.4,0a.6.6,0,0,1-.6-.6h0A.6.6,0,0,1,977.52,130.68Z"/><circle class="cls-3" cx="984.73" cy="221.67" r="4.53"/><path class="cls-1" d="M1032.23,122.71l39.08.08c3.46,0,6.27,3.21,6.25,7.16l-.15,95.92c0,3.95-2.82,7.14-6.28,7.13l-39.08-.08c-3.46,0-6.27-3.21-6.25-7.16l.15-95.92C1026,125.91,1028.77,122.71,1032.23,122.71Z"/><path class="cls-2" d="M1044.52,130.68l13.4,0a.6.6,0,0,1,.6.6h0a.6.6,0,0,1-.6.6l-13.4,0a.6.6,0,0,1-.6-.6h0A.6.6,0,0,1,1044.52,130.68Z"/><circle class="cls-3" cx="1051.73" cy="221.67" r="4.53"/><path class="cls-1" d="M1099.23,122.71l39.08.08c3.46,0,6.27,3.21,6.25,7.16l-.15,95.92c0,3.95-2.82,7.14-6.28,7.13l-39.08-.08c-3.46,0-6.27-3.21-6.25-7.16l.15-95.92C1093,125.91,1095.77,122.71,1099.23,122.71Z"/><path class="cls-2" d="M1111.52,130.68l13.4,0a.6.6,0,0,1,.6.6h0a.6.6,0,0,1-.6.6l-13.4,0a.6.6,0,0,1-.6-.6h0A.6.6,0,0,1,1111.52,130.68Z"/><circle class="cls-3" cx="1118.73" cy="221.67" r="4.53"/><path class="cls-1" d="M1166.23,122.71l39.08.08c3.46,0,6.27,3.21,6.25,7.16l-.15,95.92c0,3.95-2.82,7.14-6.28,7.13l-39.08-.08c-3.46,0-6.27-3.21-6.25-7.16l.15-95.92C1160,125.91,1162.77,122.71,1166.23,122.71Z"/><path class="cls-2" d="M1178.52,130.68l13.4,0a.6.6,0,0,1,.6.6h0a.6.6,0,0,1-.6.6l-13.4,0a.6.6,0,0,1-.6-.6h0A.6.6,0,0,1,1178.52,130.68Z"/><circle class="cls-3" cx="1185.73" cy="221.67" r="4.53"/><path class="cls-1" d="M1233.23,122.71l39.08.08c3.46,0,6.27,3.21,6.25,7.16l-.15,95.92c0,3.95-2.82,7.14-6.28,7.13l-39.08-.08c-3.46,0-6.27-3.21-6.25-7.16l.15-95.92C1227,125.91,1229.77,122.71,1233.23,122.71Z"/><path class="cls-2" d="M1245.52,130.68l13.4,0a.6.6,0,0,1,.6.6h0a.6.6,0,0,1-.6.6l-13.4,0a.6.6,0,0,1-.6-.6h0A.6.6,0,0,1,1245.52,130.68Z"/><circle class="cls-3" cx="1252.73" cy="221.67" r="4.53"/><path class="cls-1" d="M1300.23,122.71l39.08.08c3.46,0,6.27,3.21,6.25,7.16l-.15,95.92c0,3.95-2.82,7.14-6.28,7.13l-39.08-.08c-3.46,0-6.27-3.21-6.25-7.16l.15-95.92C1294,125.91,1296.77,122.71,1300.23,122.71Z"/><path class="cls-2" d="M1312.52,130.68l13.4,0a.6.6,0,0,1,.6.6h0a.6.6,0,0,1-.6.6l-13.4,0a.6.6,0,0,1-.6-.6h0A.6.6,0,0,1,1312.52,130.68Z"/><circle class="cls-3" cx="1319.73" cy="221.67" r="4.53"/><path class="cls-1" d="M27.23,242.22l39.08.08c3.46,0,6.27,3.21,6.25,7.16l-.15,95.92c0,3.95-2.82,7.14-6.28,7.13l-39.08-.08c-3.46,0-6.27-3.21-6.25-7.16L21,249.35C21,245.42,23.77,242.22,27.23,242.22Z"/><path class="cls-2" d="M39.52,250.19l13.4,0a.6.6,0,0,1,.6.6h0a.6.6,0,0,1-.6.6l-13.4,0a.6.6,0,0,1-.6-.6h0A.6.6,0,0,1,39.52,250.19Z"/><circle class="cls-3" cx="46.73" cy="341.18" r="4.53"/><path class="cls-1" d="M94.23,242.22l39.08.08c3.46,0,6.27,3.21,6.25,7.16l-.15,95.92c0,3.95-2.82,7.14-6.28,7.13l-39.08-.08c-3.46,0-6.27-3.21-6.25-7.16L88,249.35C88,245.42,90.77,242.22,94.23,242.22Z"/><path class="cls-2" d="M106.52,250.19l13.4,0a.6.6,0,0,1,.6.6h0a.6.6,0,0,1-.6.6l-13.4,0a.6.6,0,0,1-.6-.6h0A.6.6,0,0,1,106.52,250.19Z"/><circle class="cls-3" cx="113.73" cy="341.18" r="4.53"/><path class="cls-1" d="M161.23,242.22l39.08.08c3.46,0,6.27,3.21,6.25,7.16l-.15,95.92c0,3.95-2.82,7.14-6.28,7.13l-39.08-.08c-3.46,0-6.27-3.21-6.25-7.16l.15-95.92C155,245.42,157.77,242.22,161.23,242.22Z"/><path class="cls-2" d="M173.52,250.19l13.4,0a.6.6,0,0,1,.6.6h0a.6.6,0,0,1-.6.6l-13.4,0a.6.6,0,0,1-.6-.6h0A.6.6,0,0,1,173.52,250.19Z"/><circle class="cls-3" cx="180.73" cy="341.18" r="4.53"/><path class="cls-1" d="M228.23,242.22l39.08.08c3.46,0,6.27,3.21,6.25,7.16l-.15,95.92c0,3.95-2.82,7.14-6.28,7.13l-39.08-.08c-3.46,0-6.27-3.21-6.25-7.16l.15-95.92C222,245.42,224.77,242.22,228.23,242.22Z"/><path class="cls-2" d="M240.52,250.19l13.4,0a.6.6,0,0,1,.6.6h0a.6.6,0,0,1-.6.6l-13.4,0a.6.6,0,0,1-.6-.6h0A.6.6,0,0,1,240.52,250.19Z"/><circle class="cls-3" cx="247.73" cy="341.18" r="4.53"/><path class="cls-1" d="M295.23,242.22l39.08.08c3.46,0,6.27,3.21,6.25,7.16l-.15,95.92c0,3.95-2.82,7.14-6.28,7.13l-39.08-.08c-3.46,0-6.27-3.21-6.25-7.16l.15-95.92C289,245.42,291.77,242.22,295.23,242.22Z"/><path class="cls-2" d="M307.52,250.19l13.4,0a.6.6,0,0,1,.6.6h0a.6.6,0,0,1-.6.6l-13.4,0a.6.6,0,0,1-.6-.6h0A.6.6,0,0,1,307.52,250.19Z"/><circle class="cls-3" cx="314.73" cy="341.18" r="4.53"/><path class="cls-1" d="M362.23,242.22l39.08.08c3.46,0,6.27,3.21,6.25,7.16l-.15,95.92c0,3.95-2.82,7.14-6.28,7.13l-39.08-.08c-3.46,0-6.27-3.21-6.25-7.16l.15-95.92C356,245.42,358.77,242.22,362.23,242.22Z"/><path class="cls-2" d="M374.52,250.19l13.4,0a.6.6,0,0,1,.6.6h0a.6.6,0,0,1-.6.6l-13.4,0a.6.6,0,0,1-.6-.6h0A.6.6,0,0,1,374.52,250.19Z"/><circle class="cls-3" cx="381.73" cy="341.18" r="4.53"/><path class="cls-1" d="M429.23,242.22l39.08.08c3.46,0,6.27,3.21,6.25,7.16l-.15,95.92c0,3.95-2.82,7.14-6.28,7.13l-39.08-.08c-3.46,0-6.27-3.21-6.25-7.16l.15-95.92C423,245.42,425.77,242.22,429.23,242.22Z"/><path class="cls-2" d="M441.52,250.19l13.4,0a.6.6,0,0,1,.6.6h0a.6.6,0,0,1-.6.6l-13.4,0a.6.6,0,0,1-.6-.6h0A.6.6,0,0,1,441.52,250.19Z"/><circle class="cls-3" cx="448.73" cy="341.18" r="4.53"/><path class="cls-1" d="M496.23,242.22l39.08.08c3.46,0,6.27,3.21,6.25,7.16l-.15,95.92c0,3.95-2.82,7.14-6.28,7.13l-39.08-.08c-3.46,0-6.27-3.21-6.25-7.16l.15-95.92C490,245.42,492.77,242.22,496.23,242.22Z"/><path class="cls-2" d="M508.52,250.19l13.4,0a.6.6,0,0,1,.6.6h0a.6.6,0,0,1-.6.6l-13.4,0a.6.6,0,0,1-.6-.6h0A.6.6,0,0,1,508.52,250.19Z"/><circle class="cls-3" cx="515.73" cy="341.18" r="4.53" transform="translate(96.34 795.6) rotate(-80.78)"/><path class="cls-1" d="M563.23,242.22l39.08.08c3.46,0,6.27,3.21,6.25,7.16l-.15,95.92c0,3.95-2.82,7.14-6.28,7.13l-39.08-.08c-3.46,0-6.27-3.21-6.25-7.16l.15-95.92C557,245.42,559.77,242.22,563.23,242.22Z"/><path class="cls-2" d="M575.52,250.19l13.4,0a.6.6,0,0,1,.6.6h0a.6.6,0,0,1-.6.6l-13.4,0a.6.6,0,0,1-.6-.6h0A.6.6,0,0,1,575.52,250.19Z"/><circle class="cls-3" cx="582.73" cy="341.18" r="4.53"/><path class="cls-1" d="M630.23,242.22l39.08.08c3.46,0,6.27,3.21,6.25,7.16l-.15,95.92c0,3.95-2.82,7.14-6.28,7.13l-39.08-.08c-3.46,0-6.27-3.21-6.25-7.16l.15-95.92C624,245.42,626.77,242.22,630.23,242.22Z"/><path class="cls-2" d="M642.52,250.19l13.4,0a.6.6,0,0,1,.6.6h0a.6.6,0,0,1-.6.6l-13.4,0a.6.6,0,0,1-.6-.6h0A.6.6,0,0,1,642.52,250.19Z"/><circle class="cls-3" cx="649.73" cy="341.18" r="4.53"/><path class="cls-1" d="M697.23,242.22l39.08.08c3.46,0,6.27,3.21,6.25,7.16l-.15,95.92c0,3.95-2.82,7.14-6.28,7.13l-39.08-.08c-3.46,0-6.27-3.21-6.25-7.16l.15-95.92C691,245.42,693.77,242.22,697.23,242.22Z"/><path class="cls-2" d="M709.52,250.19l13.4,0a.6.6,0,0,1,.6.6h0a.6.6,0,0,1-.6.6l-13.4,0a.6.6,0,0,1-.6-.6h0A.6.6,0,0,1,709.52,250.19Z"/><circle class="cls-3" cx="716.73" cy="341.18" r="4.53"/><path class="cls-1" d="M764.23,242.22l39.08.08c3.46,0,6.27,3.21,6.25,7.16l-.15,95.92c0,3.95-2.82,7.14-6.28,7.13l-39.08-.08c-3.46,0-6.27-3.21-6.25-7.16l.15-95.92C758,245.42,760.77,242.22,764.23,242.22Z"/><path class="cls-2" d="M776.52,250.19l13.4,0a.6.6,0,0,1,.6.6h0a.6.6,0,0,1-.6.6l-13.4,0a.6.6,0,0,1-.6-.6h0A.6.6,0,0,1,776.52,250.19Z"/><circle class="cls-3" cx="783.73" cy="341.18" r="4.53"/><path class="cls-1" d="M831.23,242.22l39.08.08c3.46,0,6.27,3.21,6.25,7.16l-.15,95.92c0,3.95-2.82,7.14-6.28,7.13l-39.08-.08c-3.46,0-6.27-3.21-6.25-7.16l.15-95.92C825,245.42,827.77,242.22,831.23,242.22Z"/><path class="cls-2" d="M843.52,250.19l13.4,0a.6.6,0,0,1,.6.6h0a.6.6,0,0,1-.6.6l-13.4,0a.6.6,0,0,1-.6-.6h0A.6.6,0,0,1,843.52,250.19Z"/><circle class="cls-3" cx="850.73" cy="341.18" r="4.53"/><path class="cls-1" d="M898.23,242.22l39.08.08c3.46,0,6.27,3.21,6.25,7.16l-.15,95.92c0,3.95-2.82,7.14-6.28,7.13l-39.08-.08c-3.46,0-6.27-3.21-6.25-7.16l.15-95.92C892,245.42,894.77,242.22,898.23,242.22Z"/><path class="cls-2" d="M910.52,250.19l13.4,0a.6.6,0,0,1,.6.6h0a.6.6,0,0,1-.6.6l-13.4,0a.6.6,0,0,1-.6-.6h0A.6.6,0,0,1,910.52,250.19Z"/><circle class="cls-3" cx="917.73" cy="341.18" r="4.53"/><path class="cls-1" d="M965.23,242.22l39.08.08c3.46,0,6.27,3.21,6.25,7.16l-.15,95.92c0,3.95-2.82,7.14-6.28,7.13l-39.08-.08c-3.46,0-6.27-3.21-6.25-7.16l.15-95.92C959,245.42,961.77,242.22,965.23,242.22Z"/><path class="cls-2" d="M977.52,250.19l13.4,0a.6.6,0,0,1,.6.6h0a.6.6,0,0,1-.6.6l-13.4,0a.6.6,0,0,1-.6-.6h0A.6.6,0,0,1,977.52,250.19Z"/><circle class="cls-3" cx="984.73" cy="341.18" r="4.53"/><path class="cls-1" d="M1032.23,242.22l39.08.08c3.46,0,6.27,3.21,6.25,7.16l-.15,95.92c0,3.95-2.82,7.14-6.28,7.13l-39.08-.08c-3.46,0-6.27-3.21-6.25-7.16l.15-95.92C1026,245.42,1028.77,242.22,1032.23,242.22Z"/><path class="cls-2" d="M1044.52,250.19l13.4,0a.6.6,0,0,1,.6.6h0a.6.6,0,0,1-.6.6l-13.4,0a.6.6,0,0,1-.6-.6h0A.6.6,0,0,1,1044.52,250.19Z"/><circle class="cls-3" cx="1051.73" cy="341.18" r="4.53"/><path class="cls-1" d="M1099.23,242.22l39.08.08c3.46,0,6.27,3.21,6.25,7.16l-.15,95.92c0,3.95-2.82,7.14-6.28,7.13l-39.08-.08c-3.46,0-6.27-3.21-6.25-7.16l.15-95.92C1093,245.42,1095.77,242.22,1099.23,242.22Z"/><path class="cls-2" d="M1111.52,250.19l13.4,0a.6.6,0,0,1,.6.6h0a.6.6,0,0,1-.6.6l-13.4,0a.6.6,0,0,1-.6-.6h0A.6.6,0,0,1,1111.52,250.19Z"/><circle class="cls-3" cx="1118.73" cy="341.18" r="4.53"/><path class="cls-1" d="M1166.23,242.22l39.08.08c3.46,0,6.27,3.21,6.25,7.16l-.15,95.92c0,3.95-2.82,7.14-6.28,7.13l-39.08-.08c-3.46,0-6.27-3.21-6.25-7.16l.15-95.92C1160,245.42,1162.77,242.22,1166.23,242.22Z"/><path class="cls-2" d="M1178.52,250.19l13.4,0a.6.6,0,0,1,.6.6h0a.6.6,0,0,1-.6.6l-13.4,0a.6.6,0,0,1-.6-.6h0A.6.6,0,0,1,1178.52,250.19Z"/><circle class="cls-3" cx="1185.73" cy="341.18" r="4.53"/><path class="cls-1" d="M1233.23,242.22l39.08.08c3.46,0,6.27,3.21,6.25,7.16l-.15,95.92c0,3.95-2.82,7.14-6.28,7.13l-39.08-.08c-3.46,0-6.27-3.21-6.25-7.16l.15-95.92C1227,245.42,1229.77,242.22,1233.23,242.22Z"/><path class="cls-2" d="M1245.52,250.19l13.4,0a.6.6,0,0,1,.6.6h0a.6.6,0,0,1-.6.6l-13.4,0a.6.6,0,0,1-.6-.6h0A.6.6,0,0,1,1245.52,250.19Z"/><circle class="cls-3" cx="1252.73" cy="341.18" r="4.53"/><path class="cls-1" d="M1300.23,242.22l39.08.08c3.46,0,6.27,3.21,6.25,7.16l-.15,95.92c0,3.95-2.82,7.14-6.28,7.13l-39.08-.08c-3.46,0-6.27-3.21-6.25-7.16l.15-95.92C1294,245.42,1296.77,242.22,1300.23,242.22Z"/><path class="cls-2" d="M1312.52,250.19l13.4,0a.6.6,0,0,1,.6.6h0a.6.6,0,0,1-.6.6l-13.4,0a.6.6,0,0,1-.6-.6h0A.6.6,0,0,1,1312.52,250.19Z"/><circle class="cls-3" cx="1319.73" cy="341.18" r="4.53"/><path class="cls-1" d="M27.23,361.74l39.08.08c3.46,0,6.27,3.21,6.25,7.16l-.15,95.92c0,4-2.82,7.14-6.28,7.13L27.05,472c-3.46,0-6.27-3.21-6.25-7.16L21,368.87C21,364.94,23.77,361.74,27.23,361.74Z"/><path class="cls-2" d="M39.52,369.71l13.4,0a.6.6,0,0,1,.6.6h0a.6.6,0,0,1-.6.6l-13.4,0a.6.6,0,0,1-.6-.6h0A.6.6,0,0,1,39.52,369.71Z"/><circle class="cls-3" cx="46.73" cy="460.7" r="4.53"/><path class="cls-1" d="M94.23,361.74l39.08.08c3.46,0,6.27,3.21,6.25,7.16l-.15,95.92c0,4-2.82,7.14-6.28,7.13L94.05,472c-3.46,0-6.27-3.21-6.25-7.16L88,368.87C88,364.94,90.77,361.74,94.23,361.74Z"/><path class="cls-2" d="M106.52,369.71l13.4,0a.6.6,0,0,1,.6.6h0a.6.6,0,0,1-.6.6l-13.4,0a.6.6,0,0,1-.6-.6h0A.6.6,0,0,1,106.52,369.71Z"/><circle class="cls-3" cx="113.73" cy="460.7" r="4.53"/><path class="cls-1" d="M161.23,361.74l39.08.08c3.46,0,6.27,3.21,6.25,7.16l-.15,95.92c0,4-2.82,7.14-6.28,7.13L161.05,472c-3.46,0-6.27-3.21-6.25-7.16l.15-95.92C155,364.94,157.77,361.74,161.23,361.74Z"/><path class="cls-2" d="M173.52,369.71l13.4,0a.6.6,0,0,1,.6.6h0a.6.6,0,0,1-.6.6l-13.4,0a.6.6,0,0,1-.6-.6h0A.6.6,0,0,1,173.52,369.71Z"/><circle class="cls-3" cx="180.73" cy="460.7" r="4.53"/><path class="cls-1" d="M228.23,361.74l39.08.08c3.46,0,6.27,3.21,6.25,7.16l-.15,95.92c0,4-2.82,7.14-6.28,7.13L228.05,472c-3.46,0-6.27-3.21-6.25-7.16l.15-95.92C222,364.94,224.77,361.74,228.23,361.74Z"/><path class="cls-2" d="M240.52,369.71l13.4,0a.6.6,0,0,1,.6.6h0a.6.6,0,0,1-.6.6l-13.4,0a.6.6,0,0,1-.6-.6h0A.6.6,0,0,1,240.52,369.71Z"/><circle class="cls-3" cx="247.73" cy="460.7" r="4.53"/><path class="cls-1" d="M295.23,361.74l39.08.08c3.46,0,6.27,3.21,6.25,7.16l-.15,95.92c0,4-2.82,7.14-6.28,7.13L295.05,472c-3.46,0-6.27-3.21-6.25-7.16l.15-95.92C289,364.94,291.77,361.74,295.23,361.74Z"/><path class="cls-2" d="M307.52,369.71l13.4,0a.6.6,0,0,1,.6.6h0a.6.6,0,0,1-.6.6l-13.4,0a.6.6,0,0,1-.6-.6h0A.6.6,0,0,1,307.52,369.71Z"/><circle class="cls-3" cx="314.73" cy="460.7" r="4.53"/><path class="cls-1" d="M362.23,361.74l39.08.08c3.46,0,6.27,3.21,6.25,7.16l-.15,95.92c0,4-2.82,7.14-6.28,7.13L362.05,472c-3.46,0-6.27-3.21-6.25-7.16l.15-95.92C356,364.94,358.77,361.74,362.23,361.74Z"/><path class="cls-2" d="M374.52,369.71l13.4,0a.6.6,0,0,1,.6.6h0a.6.6,0,0,1-.6.6l-13.4,0a.6.6,0,0,1-.6-.6h0A.6.6,0,0,1,374.52,369.71Z"/><circle class="cls-3" cx="381.73" cy="460.7" r="4.53"/><path class="cls-1" d="M429.23,361.74l39.08.08c3.46,0,6.27,3.21,6.25,7.16l-.15,95.92c0,4-2.82,7.14-6.28,7.13L429.05,472c-3.46,0-6.27-3.21-6.25-7.16l.15-95.92C423,364.94,425.77,361.74,429.23,361.74Z"/><path class="cls-2" d="M441.52,369.71l13.4,0a.6.6,0,0,1,.6.6h0a.6.6,0,0,1-.6.6l-13.4,0a.6.6,0,0,1-.6-.6h0A.6.6,0,0,1,441.52,369.71Z"/><circle class="cls-3" cx="448.73" cy="460.7" r="4.53"/><path class="cls-1" d="M496.23,361.74l39.08.08c3.46,0,6.27,3.21,6.25,7.16l-.15,95.92c0,4-2.82,7.14-6.28,7.13L496.05,472c-3.46,0-6.27-3.21-6.25-7.16l.15-95.92C490,364.94,492.77,361.74,496.23,361.74Z"/><path class="cls-2" d="M508.52,369.71l13.4,0a.6.6,0,0,1,.6.6h0a.6.6,0,0,1-.6.6l-13.4,0a.6.6,0,0,1-.6-.6h0A.6.6,0,0,1,508.52,369.71Z"/><circle class="cls-3" cx="515.73" cy="460.7" r="4.53" transform="translate(-21.63 895.97) rotate(-80.78)"/><path class="cls-1" d="M563.23,361.74l39.08.08c3.46,0,6.27,3.21,6.25,7.16l-.15,95.92c0,4-2.82,7.14-6.28,7.13L563.05,472c-3.46,0-6.27-3.21-6.25-7.16l.15-95.92C557,364.94,559.77,361.74,563.23,361.74Z"/><path class="cls-2" d="M575.52,369.71l13.4,0a.6.6,0,0,1,.6.6h0a.6.6,0,0,1-.6.6l-13.4,0a.6.6,0,0,1-.6-.6h0A.6.6,0,0,1,575.52,369.71Z"/><circle class="cls-3" cx="582.73" cy="460.7" r="4.53"/><path class="cls-1" d="M630.23,361.74l39.08.08c3.46,0,6.27,3.21,6.25,7.16l-.15,95.92c0,4-2.82,7.14-6.28,7.13L630.05,472c-3.46,0-6.27-3.21-6.25-7.16l.15-95.92C624,364.94,626.77,361.74,630.23,361.74Z"/><path class="cls-2" d="M642.52,369.71l13.4,0a.6.6,0,0,1,.6.6h0a.6.6,0,0,1-.6.6l-13.4,0a.6.6,0,0,1-.6-.6h0A.6.6,0,0,1,642.52,369.71Z"/><circle class="cls-3" cx="649.73" cy="460.7" r="4.53"/><path class="cls-1" d="M697.23,361.74l39.08.08c3.46,0,6.27,3.21,6.25,7.16l-.15,95.92c0,4-2.82,7.14-6.28,7.13L697.05,472c-3.46,0-6.27-3.21-6.25-7.16l.15-95.92C691,364.94,693.77,361.74,697.23,361.74Z"/><path class="cls-2" d="M709.52,369.71l13.4,0a.6.6,0,0,1,.6.6h0a.6.6,0,0,1-.6.6l-13.4,0a.6.6,0,0,1-.6-.6h0A.6.6,0,0,1,709.52,369.71Z"/><circle class="cls-3" cx="716.73" cy="460.7" r="4.53"/><path class="cls-1" d="M764.23,361.74l39.08.08c3.46,0,6.27,3.21,6.25,7.16l-.15,95.92c0,4-2.82,7.14-6.28,7.13L764.05,472c-3.46,0-6.27-3.21-6.25-7.16l.15-95.92C758,364.94,760.77,361.74,764.23,361.74Z"/><path class="cls-2" d="M776.52,369.71l13.4,0a.6.6,0,0,1,.6.6h0a.6.6,0,0,1-.6.6l-13.4,0a.6.6,0,0,1-.6-.6h0A.6.6,0,0,1,776.52,369.71Z"/><circle class="cls-3" cx="783.73" cy="460.7" r="4.53"/><path class="cls-1" d="M831.23,361.74l39.08.08c3.46,0,6.27,3.21,6.25,7.16l-.15,95.92c0,4-2.82,7.14-6.28,7.13L831.05,472c-3.46,0-6.27-3.21-6.25-7.16l.15-95.92C825,364.94,827.77,361.74,831.23,361.74Z"/><path class="cls-2" d="M843.52,369.71l13.4,0a.6.6,0,0,1,.6.6h0a.6.6,0,0,1-.6.6l-13.4,0a.6.6,0,0,1-.6-.6h0A.6.6,0,0,1,843.52,369.71Z"/><circle class="cls-3" cx="850.73" cy="460.7" r="4.53"/><path class="cls-1" d="M898.23,361.74l39.08.08c3.46,0,6.27,3.21,6.25,7.16l-.15,95.92c0,4-2.82,7.14-6.28,7.13L898.05,472c-3.46,0-6.27-3.21-6.25-7.16l.15-95.92C892,364.94,894.77,361.74,898.23,361.74Z"/><path class="cls-2" d="M910.52,369.71l13.4,0a.6.6,0,0,1,.6.6h0a.6.6,0,0,1-.6.6l-13.4,0a.6.6,0,0,1-.6-.6h0A.6.6,0,0,1,910.52,369.71Z"/><circle class="cls-3" cx="917.73" cy="460.7" r="4.53"/><path class="cls-1" d="M965.23,361.74l39.08.08c3.46,0,6.27,3.21,6.25,7.16l-.15,95.92c0,4-2.82,7.14-6.28,7.13L965.05,472c-3.46,0-6.27-3.21-6.25-7.16l.15-95.92C959,364.94,961.77,361.74,965.23,361.74Z"/><path class="cls-2" d="M977.52,369.71l13.4,0a.6.6,0,0,1,.6.6h0a.6.6,0,0,1-.6.6l-13.4,0a.6.6,0,0,1-.6-.6h0A.6.6,0,0,1,977.52,369.71Z"/><circle class="cls-3" cx="984.73" cy="460.7" r="4.53"/><path class="cls-1" d="M1032.23,361.74l39.08.08c3.46,0,6.27,3.21,6.25,7.16l-.15,95.92c0,4-2.82,7.14-6.28,7.13l-39.08-.08c-3.46,0-6.27-3.21-6.25-7.16l.15-95.92C1026,364.94,1028.77,361.74,1032.23,361.74Z"/><path class="cls-2" d="M1044.52,369.71l13.4,0a.6.6,0,0,1,.6.6h0a.6.6,0,0,1-.6.6l-13.4,0a.6.6,0,0,1-.6-.6h0A.6.6,0,0,1,1044.52,369.71Z"/><circle class="cls-3" cx="1051.73" cy="460.7" r="4.53"/><path class="cls-1" d="M1099.23,361.74l39.08.08c3.46,0,6.27,3.21,6.25,7.16l-.15,95.92c0,4-2.82,7.14-6.28,7.13l-39.08-.08c-3.46,0-6.27-3.21-6.25-7.16l.15-95.92C1093,364.94,1095.77,361.74,1099.23,361.74Z"/><path class="cls-2" d="M1111.52,369.71l13.4,0a.6.6,0,0,1,.6.6h0a.6.6,0,0,1-.6.6l-13.4,0a.6.6,0,0,1-.6-.6h0A.6.6,0,0,1,1111.52,369.71Z"/><circle class="cls-3" cx="1118.73" cy="460.7" r="4.53"/><path class="cls-1" d="M1166.23,361.74l39.08.08c3.46,0,6.27,3.21,6.25,7.16l-.15,95.92c0,4-2.82,7.14-6.28,7.13l-39.08-.08c-3.46,0-6.27-3.21-6.25-7.16l.15-95.92C1160,364.94,1162.77,361.74,1166.23,361.74Z"/><path class="cls-2" d="M1178.52,369.71l13.4,0a.6.6,0,0,1,.6.6h0a.6.6,0,0,1-.6.6l-13.4,0a.6.6,0,0,1-.6-.6h0A.6.6,0,0,1,1178.52,369.71Z"/><circle class="cls-3" cx="1185.73" cy="460.7" r="4.53"/><path class="cls-1" d="M1233.23,361.74l39.08.08c3.46,0,6.27,3.21,6.25,7.16l-.15,95.92c0,4-2.82,7.14-6.28,7.13l-39.08-.08c-3.46,0-6.27-3.21-6.25-7.16l.15-95.92C1227,364.94,1229.77,361.74,1233.23,361.74Z"/><path class="cls-2" d="M1245.52,369.71l13.4,0a.6.6,0,0,1,.6.6h0a.6.6,0,0,1-.6.6l-13.4,0a.6.6,0,0,1-.6-.6h0A.6.6,0,0,1,1245.52,369.71Z"/><circle class="cls-3" cx="1252.73" cy="460.7" r="4.53"/><path class="cls-1" d="M1300.23,361.74l39.08.08c3.46,0,6.27,3.21,6.25,7.16l-.15,95.92c0,4-2.82,7.14-6.28,7.13l-39.08-.08c-3.46,0-6.27-3.21-6.25-7.16l.15-95.92C1294,364.94,1296.77,361.74,1300.23,361.74Z"/><path class="cls-2" d="M1312.52,369.71l13.4,0a.6.6,0,0,1,.6.6h0a.6.6,0,0,1-.6.6l-13.4,0a.6.6,0,0,1-.6-.6h0A.6.6,0,0,1,1312.52,369.71Z"/><circle class="cls-3" cx="1319.73" cy="460.7" r="4.53"/><path class="cls-1" d="M27.23,481.25l39.08.08c3.46,0,6.27,3.21,6.25,7.16l-.15,95.92c0,4-2.82,7.14-6.28,7.13l-39.08-.08c-3.46,0-6.27-3.21-6.25-7.16L21,488.38C21,484.45,23.77,481.25,27.23,481.25Z"/><path class="cls-2" d="M39.52,489.22l13.4,0a.6.6,0,0,1,.6.6h0a.6.6,0,0,1-.6.6l-13.4,0a.6.6,0,0,1-.6-.6h0A.6.6,0,0,1,39.52,489.22Z"/><circle class="cls-3" cx="46.73" cy="580.21" r="4.53"/><path class="cls-1" d="M94.23,481.25l39.08.08c3.46,0,6.27,3.21,6.25,7.16l-.15,95.92c0,4-2.82,7.14-6.28,7.13l-39.08-.08c-3.46,0-6.27-3.21-6.25-7.16L88,488.38C88,484.45,90.77,481.25,94.23,481.25Z"/><path class="cls-2" d="M106.52,489.22l13.4,0a.6.6,0,0,1,.6.6h0a.6.6,0,0,1-.6.6l-13.4,0a.6.6,0,0,1-.6-.6h0A.6.6,0,0,1,106.52,489.22Z"/><circle class="cls-3" cx="113.73" cy="580.21" r="4.53"/><path class="cls-1" d="M161.23,481.25l39.08.08c3.46,0,6.27,3.21,6.25,7.16l-.15,95.92c0,4-2.82,7.14-6.28,7.13l-39.08-.08c-3.46,0-6.27-3.21-6.25-7.16l.15-95.92C155,484.45,157.77,481.25,161.23,481.25Z"/><path class="cls-2" d="M173.52,489.22l13.4,0a.6.6,0,0,1,.6.6h0a.6.6,0,0,1-.6.6l-13.4,0a.6.6,0,0,1-.6-.6h0A.6.6,0,0,1,173.52,489.22Z"/><circle class="cls-3" cx="180.73" cy="580.21" r="4.53"/><path class="cls-1" d="M228.23,481.25l39.08.08c3.46,0,6.27,3.21,6.25,7.16l-.15,95.92c0,4-2.82,7.14-6.28,7.13l-39.08-.08c-3.46,0-6.27-3.21-6.25-7.16l.15-95.92C222,484.45,224.77,481.25,228.23,481.25Z"/><path class="cls-2" d="M240.52,489.22l13.4,0a.6.6,0,0,1,.6.6h0a.6.6,0,0,1-.6.6l-13.4,0a.6.6,0,0,1-.6-.6h0A.6.6,0,0,1,240.52,489.22Z"/><circle class="cls-3" cx="247.73" cy="580.21" r="4.53"/><path class="cls-1" d="M295.23,481.25l39.08.08c3.46,0,6.27,3.21,6.25,7.16l-.15,95.92c0,4-2.82,7.14-6.28,7.13l-39.08-.08c-3.46,0-6.27-3.21-6.25-7.16l.15-95.92C289,484.45,291.77,481.25,295.23,481.25Z"/><path class="cls-2" d="M307.52,489.22l13.4,0a.6.6,0,0,1,.6.6h0a.6.6,0,0,1-.6.6l-13.4,0a.6.6,0,0,1-.6-.6h0A.6.6,0,0,1,307.52,489.22Z"/><circle class="cls-3" cx="314.73" cy="580.21" r="4.53"/><path class="cls-1" d="M362.23,481.25l39.08.08c3.46,0,6.27,3.21,6.25,7.16l-.15,95.92c0,4-2.82,7.14-6.28,7.13l-39.08-.08c-3.46,0-6.27-3.21-6.25-7.16l.15-95.92C356,484.45,358.77,481.25,362.23,481.25Z"/><path class="cls-2" d="M374.52,489.22l13.4,0a.6.6,0,0,1,.6.6h0a.6.6,0,0,1-.6.6l-13.4,0a.6.6,0,0,1-.6-.6h0A.6.6,0,0,1,374.52,489.22Z"/><circle class="cls-3" cx="381.73" cy="580.21" r="4.53"/><path class="cls-1" d="M429.23,481.25l39.08.08c3.46,0,6.27,3.21,6.25,7.16l-.15,95.92c0,4-2.82,7.14-6.28,7.13l-39.08-.08c-3.46,0-6.27-3.21-6.25-7.16l.15-95.92C423,484.45,425.77,481.25,429.23,481.25Z"/><path class="cls-2" d="M441.52,489.22l13.4,0a.6.6,0,0,1,.6.6h0a.6.6,0,0,1-.6.6l-13.4,0a.6.6,0,0,1-.6-.6h0A.6.6,0,0,1,441.52,489.22Z"/><circle class="cls-3" cx="448.73" cy="580.21" r="4.53"/><path class="cls-1" d="M496.23,481.25l39.08.08c3.46,0,6.27,3.21,6.25,7.16l-.15,95.92c0,4-2.82,7.14-6.28,7.13l-39.08-.08c-3.46,0-6.27-3.21-6.25-7.16l.15-95.92C490,484.45,492.77,481.25,496.23,481.25Z"/><path class="cls-2" d="M508.52,489.22l13.4,0a.6.6,0,0,1,.6.6h0a.6.6,0,0,1-.6.6l-13.4,0a.6.6,0,0,1-.6-.6h0A.6.6,0,0,1,508.52,489.22Z"/><circle class="cls-3" cx="515.73" cy="580.21" r="4.53" transform="translate(-139.6 996.34) rotate(-80.78)"/><path class="cls-1" d="M563.23,481.25l39.08.08c3.46,0,6.27,3.21,6.25,7.16l-.15,95.92c0,4-2.82,7.14-6.28,7.13l-39.08-.08c-3.46,0-6.27-3.21-6.25-7.16l.15-95.92C557,484.45,559.77,481.25,563.23,481.25Z"/><path class="cls-2" d="M575.52,489.22l13.4,0a.6.6,0,0,1,.6.6h0a.6.6,0,0,1-.6.6l-13.4,0a.6.6,0,0,1-.6-.6h0A.6.6,0,0,1,575.52,489.22Z"/><circle class="cls-3" cx="582.73" cy="580.21" r="4.53"/><path class="cls-1" d="M630.23,481.25l39.08.08c3.46,0,6.27,3.21,6.25,7.16l-.15,95.92c0,4-2.82,7.14-6.28,7.13l-39.08-.08c-3.46,0-6.27-3.21-6.25-7.16l.15-95.92C624,484.45,626.77,481.25,630.23,481.25Z"/><path class="cls-2" d="M642.52,489.22l13.4,0a.6.6,0,0,1,.6.6h0a.6.6,0,0,1-.6.6l-13.4,0a.6.6,0,0,1-.6-.6h0A.6.6,0,0,1,642.52,489.22Z"/><circle class="cls-3" cx="649.73" cy="580.21" r="4.53"/><path class="cls-1" d="M697.23,481.25l39.08.08c3.46,0,6.27,3.21,6.25,7.16l-.15,95.92c0,4-2.82,7.14-6.28,7.13l-39.08-.08c-3.46,0-6.27-3.21-6.25-7.16l.15-95.92C691,484.45,693.77,481.25,697.23,481.25Z"/><path class="cls-2" d="M709.52,489.22l13.4,0a.6.6,0,0,1,.6.6h0a.6.6,0,0,1-.6.6l-13.4,0a.6.6,0,0,1-.6-.6h0A.6.6,0,0,1,709.52,489.22Z"/><circle class="cls-3" cx="716.73" cy="580.21" r="4.53"/><path class="cls-1" d="M764.23,481.25l39.08.08c3.46,0,6.27,3.21,6.25,7.16l-.15,95.92c0,4-2.82,7.14-6.28,7.13l-39.08-.08c-3.46,0-6.27-3.21-6.25-7.16l.15-95.92C758,484.45,760.77,481.25,764.23,481.25Z"/><path class="cls-2" d="M776.52,489.22l13.4,0a.6.6,0,0,1,.6.6h0a.6.6,0,0,1-.6.6l-13.4,0a.6.6,0,0,1-.6-.6h0A.6.6,0,0,1,776.52,489.22Z"/><circle class="cls-3" cx="783.73" cy="580.21" r="4.53"/><path class="cls-1" d="M831.23,481.25l39.08.08c3.46,0,6.27,3.21,6.25,7.16l-.15,95.92c0,4-2.82,7.14-6.28,7.13l-39.08-.08c-3.46,0-6.27-3.21-6.25-7.16l.15-95.92C825,484.45,827.77,481.25,831.23,481.25Z"/><path class="cls-2" d="M843.52,489.22l13.4,0a.6.6,0,0,1,.6.6h0a.6.6,0,0,1-.6.6l-13.4,0a.6.6,0,0,1-.6-.6h0A.6.6,0,0,1,843.52,489.22Z"/><circle class="cls-3" cx="850.73" cy="580.21" r="4.53"/><path class="cls-1" d="M898.23,481.25l39.08.08c3.46,0,6.27,3.21,6.25,7.16l-.15,95.92c0,4-2.82,7.14-6.28,7.13l-39.08-.08c-3.46,0-6.27-3.21-6.25-7.16l.15-95.92C892,484.45,894.77,481.25,898.23,481.25Z"/><path class="cls-2" d="M910.52,489.22l13.4,0a.6.6,0,0,1,.6.6h0a.6.6,0,0,1-.6.6l-13.4,0a.6.6,0,0,1-.6-.6h0A.6.6,0,0,1,910.52,489.22Z"/><circle class="cls-3" cx="917.73" cy="580.21" r="4.53"/><path class="cls-1" d="M965.23,481.25l39.08.08c3.46,0,6.27,3.21,6.25,7.16l-.15,95.92c0,4-2.82,7.14-6.28,7.13l-39.08-.08c-3.46,0-6.27-3.21-6.25-7.16l.15-95.92C959,484.45,961.77,481.25,965.23,481.25Z"/><path class="cls-2" d="M977.52,489.22l13.4,0a.6.6,0,0,1,.6.6h0a.6.6,0,0,1-.6.6l-13.4,0a.6.6,0,0,1-.6-.6h0A.6.6,0,0,1,977.52,489.22Z"/><circle class="cls-3" cx="984.73" cy="580.21" r="4.53"/><path class="cls-1" d="M1032.23,481.25l39.08.08c3.46,0,6.27,3.21,6.25,7.16l-.15,95.92c0,4-2.82,7.14-6.28,7.13l-39.08-.08c-3.46,0-6.27-3.21-6.25-7.16l.15-95.92C1026,484.45,1028.77,481.25,1032.23,481.25Z"/><path class="cls-2" d="M1044.52,489.22l13.4,0a.6.6,0,0,1,.6.6h0a.6.6,0,0,1-.6.6l-13.4,0a.6.6,0,0,1-.6-.6h0A.6.6,0,0,1,1044.52,489.22Z"/><circle class="cls-3" cx="1051.73" cy="580.21" r="4.53"/><path class="cls-1" d="M1099.23,481.25l39.08.08c3.46,0,6.27,3.21,6.25,7.16l-.15,95.92c0,4-2.82,7.14-6.28,7.13l-39.08-.08c-3.46,0-6.27-3.21-6.25-7.16l.15-95.92C1093,484.45,1095.77,481.25,1099.23,481.25Z"/><path class="cls-2" d="M1111.52,489.22l13.4,0a.6.6,0,0,1,.6.6h0a.6.6,0,0,1-.6.6l-13.4,0a.6.6,0,0,1-.6-.6h0A.6.6,0,0,1,1111.52,489.22Z"/><circle class="cls-3" cx="1118.73" cy="580.21" r="4.53"/><path class="cls-1" d="M1166.23,481.25l39.08.08c3.46,0,6.27,3.21,6.25,7.16l-.15,95.92c0,4-2.82,7.14-6.28,7.13l-39.08-.08c-3.46,0-6.27-3.21-6.25-7.16l.15-95.92C1160,484.45,1162.77,481.25,1166.23,481.25Z"/><path class="cls-2" d="M1178.52,489.22l13.4,0a.6.6,0,0,1,.6.6h0a.6.6,0,0,1-.6.6l-13.4,0a.6.6,0,0,1-.6-.6h0A.6.6,0,0,1,1178.52,489.22Z"/><circle class="cls-3" cx="1185.73" cy="580.21" r="4.53"/><path class="cls-1" d="M1233.23,481.25l39.08.08c3.46,0,6.27,3.21,6.25,7.16l-.15,95.92c0,4-2.82,7.14-6.28,7.13l-39.08-.08c-3.46,0-6.27-3.21-6.25-7.16l.15-95.92C1227,484.45,1229.77,481.25,1233.23,481.25Z"/><path class="cls-2" d="M1245.52,489.22l13.4,0a.6.6,0,0,1,.6.6h0a.6.6,0,0,1-.6.6l-13.4,0a.6.6,0,0,1-.6-.6h0A.6.6,0,0,1,1245.52,489.22Z"/><circle class="cls-3" cx="1252.73" cy="580.21" r="4.53"/><path class="cls-1" d="M1300.23,481.25l39.08.08c3.46,0,6.27,3.21,6.25,7.16l-.15,95.92c0,4-2.82,7.14-6.28,7.13l-39.08-.08c-3.46,0-6.27-3.21-6.25-7.16l.15-95.92C1294,484.45,1296.77,481.25,1300.23,481.25Z"/><path class="cls-2" d="M1312.52,489.22l13.4,0a.6.6,0,0,1,.6.6h0a.6.6,0,0,1-.6.6l-13.4,0a.6.6,0,0,1-.6-.6h0A.6.6,0,0,1,1312.52,489.22Z"/><circle class="cls-3" cx="1319.73" cy="580.21" r="4.53"/><path class="cls-1" d="M27.23,600.77l39.08.08c3.46,0,6.27,3.21,6.25,7.16l-.15,95.92c0,4-2.82,7.14-6.28,7.13L27.05,711c-3.46,0-6.27-3.21-6.25-7.16L21,607.9C21,604,23.77,600.77,27.23,600.77Z"/><path class="cls-2" d="M39.52,608.74l13.4,0a.6.6,0,0,1,.6.6h0a.6.6,0,0,1-.6.6l-13.4,0a.6.6,0,0,1-.6-.6h0A.6.6,0,0,1,39.52,608.74Z"/><circle class="cls-3" cx="46.73" cy="699.73" r="4.53"/><path class="cls-1" d="M94.23,600.77l39.08.08c3.46,0,6.27,3.21,6.25,7.16l-.15,95.92c0,4-2.82,7.14-6.28,7.13L94.05,711c-3.46,0-6.27-3.21-6.25-7.16L88,607.9C88,604,90.77,600.77,94.23,600.77Z"/><path class="cls-2" d="M106.52,608.74l13.4,0a.6.6,0,0,1,.6.6h0a.6.6,0,0,1-.6.6l-13.4,0a.6.6,0,0,1-.6-.6h0A.6.6,0,0,1,106.52,608.74Z"/><circle class="cls-3" cx="113.73" cy="699.73" r="4.53"/><path class="cls-1" d="M161.23,600.77l39.08.08c3.46,0,6.27,3.21,6.25,7.16l-.15,95.92c0,4-2.82,7.14-6.28,7.13L161.05,711c-3.46,0-6.27-3.21-6.25-7.16L155,607.9C155,604,157.77,600.77,161.23,600.77Z"/><path class="cls-2" d="M173.52,608.74l13.4,0a.6.6,0,0,1,.6.6h0a.6.6,0,0,1-.6.6l-13.4,0a.6.6,0,0,1-.6-.6h0A.6.6,0,0,1,173.52,608.74Z"/><circle class="cls-3" cx="180.73" cy="699.73" r="4.53"/><path class="cls-1" d="M228.23,600.77l39.08.08c3.46,0,6.27,3.21,6.25,7.16l-.15,95.92c0,4-2.82,7.14-6.28,7.13L228.05,711c-3.46,0-6.27-3.21-6.25-7.16L222,607.9C222,604,224.77,600.77,228.23,600.77Z"/><path class="cls-2" d="M240.52,608.74l13.4,0a.6.6,0,0,1,.6.6h0a.6.6,0,0,1-.6.6l-13.4,0a.6.6,0,0,1-.6-.6h0A.6.6,0,0,1,240.52,608.74Z"/><circle class="cls-3" cx="247.73" cy="699.73" r="4.53"/><path class="cls-1" d="M295.23,600.77l39.08.08c3.46,0,6.27,3.21,6.25,7.16l-.15,95.92c0,4-2.82,7.14-6.28,7.13L295.05,711c-3.46,0-6.27-3.21-6.25-7.16L289,607.9C289,604,291.77,600.77,295.23,600.77Z"/><path class="cls-2" d="M307.52,608.74l13.4,0a.6.6,0,0,1,.6.6h0a.6.6,0,0,1-.6.6l-13.4,0a.6.6,0,0,1-.6-.6h0A.6.6,0,0,1,307.52,608.74Z"/><circle class="cls-3" cx="314.73" cy="699.73" r="4.53"/><path class="cls-1" d="M362.23,600.77l39.08.08c3.46,0,6.27,3.21,6.25,7.16l-.15,95.92c0,4-2.82,7.14-6.28,7.13L362.05,711c-3.46,0-6.27-3.21-6.25-7.16L356,607.9C356,604,358.77,600.77,362.23,600.77Z"/><path class="cls-2" d="M374.52,608.74l13.4,0a.6.6,0,0,1,.6.6h0a.6.6,0,0,1-.6.6l-13.4,0a.6.6,0,0,1-.6-.6h0A.6.6,0,0,1,374.52,608.74Z"/><circle class="cls-3" cx="381.73" cy="699.73" r="4.53"/><path class="cls-1" d="M429.23,600.77l39.08.08c3.46,0,6.27,3.21,6.25,7.16l-.15,95.92c0,4-2.82,7.14-6.28,7.13L429.05,711c-3.46,0-6.27-3.21-6.25-7.16L423,607.9C423,604,425.77,600.77,429.23,600.77Z"/><path class="cls-2" d="M441.52,608.74l13.4,0a.6.6,0,0,1,.6.6h0a.6.6,0,0,1-.6.6l-13.4,0a.6.6,0,0,1-.6-.6h0A.6.6,0,0,1,441.52,608.74Z"/><circle class="cls-3" cx="448.73" cy="699.73" r="4.53"/><path class="cls-1" d="M496.23,600.77l39.08.08c3.46,0,6.27,3.21,6.25,7.16l-.15,95.92c0,4-2.82,7.14-6.28,7.13L496.05,711c-3.46,0-6.27-3.21-6.25-7.16L490,607.9C490,604,492.77,600.77,496.23,600.77Z"/><path class="cls-2" d="M508.52,608.74l13.4,0a.6.6,0,0,1,.6.6h0a.6.6,0,0,1-.6.6l-13.4,0a.6.6,0,0,1-.6-.6h0A.6.6,0,0,1,508.52,608.74Z"/><circle class="cls-3" cx="515.73" cy="699.73" r="4.53" transform="translate(-257.57 1096.71) rotate(-80.78)"/><path class="cls-1" d="M563.23,600.77l39.08.08c3.46,0,6.27,3.21,6.25,7.16l-.15,95.92c0,4-2.82,7.14-6.28,7.13L563.05,711c-3.46,0-6.27-3.21-6.25-7.16L557,607.9C557,604,559.77,600.77,563.23,600.77Z"/><path class="cls-2" d="M575.52,608.74l13.4,0a.6.6,0,0,1,.6.6h0a.6.6,0,0,1-.6.6l-13.4,0a.6.6,0,0,1-.6-.6h0A.6.6,0,0,1,575.52,608.74Z"/><circle class="cls-3" cx="582.73" cy="699.73" r="4.53"/><path class="cls-1" d="M630.23,600.77l39.08.08c3.46,0,6.27,3.21,6.25,7.16l-.15,95.92c0,4-2.82,7.14-6.28,7.13L630.05,711c-3.46,0-6.27-3.21-6.25-7.16L624,607.9C624,604,626.77,600.77,630.23,600.77Z"/><path class="cls-2" d="M642.52,608.74l13.4,0a.6.6,0,0,1,.6.6h0a.6.6,0,0,1-.6.6l-13.4,0a.6.6,0,0,1-.6-.6h0A.6.6,0,0,1,642.52,608.74Z"/><circle class="cls-3" cx="649.73" cy="699.73" r="4.53"/><path class="cls-1" d="M697.23,600.77l39.08.08c3.46,0,6.27,3.21,6.25,7.16l-.15,95.92c0,4-2.82,7.14-6.28,7.13L697.05,711c-3.46,0-6.27-3.21-6.25-7.16L691,607.9C691,604,693.77,600.77,697.23,600.77Z"/><path class="cls-2" d="M709.52,608.74l13.4,0a.6.6,0,0,1,.6.6h0a.6.6,0,0,1-.6.6l-13.4,0a.6.6,0,0,1-.6-.6h0A.6.6,0,0,1,709.52,608.74Z"/><circle class="cls-3" cx="716.73" cy="699.73" r="4.53"/><path class="cls-1" d="M764.23,600.77l39.08.08c3.46,0,6.27,3.21,6.25,7.16l-.15,95.92c0,4-2.82,7.14-6.28,7.13L764.05,711c-3.46,0-6.27-3.21-6.25-7.16L758,607.9C758,604,760.77,600.77,764.23,600.77Z"/><path class="cls-2" d="M776.52,608.74l13.4,0a.6.6,0,0,1,.6.6h0a.6.6,0,0,1-.6.6l-13.4,0a.6.6,0,0,1-.6-.6h0A.6.6,0,0,1,776.52,608.74Z"/><circle class="cls-3" cx="783.73" cy="699.73" r="4.53"/><path class="cls-1" d="M831.23,600.77l39.08.08c3.46,0,6.27,3.21,6.25,7.16l-.15,95.92c0,4-2.82,7.14-6.28,7.13L831.05,711c-3.46,0-6.27-3.21-6.25-7.16L825,607.9C825,604,827.77,600.77,831.23,600.77Z"/><path class="cls-2" d="M843.52,608.74l13.4,0a.6.6,0,0,1,.6.6h0a.6.6,0,0,1-.6.6l-13.4,0a.6.6,0,0,1-.6-.6h0A.6.6,0,0,1,843.52,608.74Z"/><circle class="cls-3" cx="850.73" cy="699.73" r="4.53"/><path class="cls-1" d="M898.23,600.77l39.08.08c3.46,0,6.27,3.21,6.25,7.16l-.15,95.92c0,4-2.82,7.14-6.28,7.13L898.05,711c-3.46,0-6.27-3.21-6.25-7.16L892,607.9C892,604,894.77,600.77,898.23,600.77Z"/><path class="cls-2" d="M910.52,608.74l13.4,0a.6.6,0,0,1,.6.6h0a.6.6,0,0,1-.6.6l-13.4,0a.6.6,0,0,1-.6-.6h0A.6.6,0,0,1,910.52,608.74Z"/><circle class="cls-3" cx="917.73" cy="699.73" r="4.53"/><path class="cls-1" d="M965.23,600.77l39.08.08c3.46,0,6.27,3.21,6.25,7.16l-.15,95.92c0,4-2.82,7.14-6.28,7.13L965.05,711c-3.46,0-6.27-3.21-6.25-7.16L959,607.9C959,604,961.77,600.77,965.23,600.77Z"/><path class="cls-2" d="M977.52,608.74l13.4,0a.6.6,0,0,1,.6.6h0a.6.6,0,0,1-.6.6l-13.4,0a.6.6,0,0,1-.6-.6h0A.6.6,0,0,1,977.52,608.74Z"/><circle class="cls-3" cx="984.73" cy="699.73" r="4.53"/><path class="cls-1" d="M1032.23,600.77l39.08.08c3.46,0,6.27,3.21,6.25,7.16l-.15,95.92c0,4-2.82,7.14-6.28,7.13l-39.08-.08c-3.46,0-6.27-3.21-6.25-7.16l.15-95.92C1026,604,1028.77,600.77,1032.23,600.77Z"/><path class="cls-2" d="M1044.52,608.74l13.4,0a.6.6,0,0,1,.6.6h0a.6.6,0,0,1-.6.6l-13.4,0a.6.6,0,0,1-.6-.6h0A.6.6,0,0,1,1044.52,608.74Z"/><circle class="cls-3" cx="1051.73" cy="699.73" r="4.53"/><path class="cls-1" d="M1099.23,600.77l39.08.08c3.46,0,6.27,3.21,6.25,7.16l-.15,95.92c0,4-2.82,7.14-6.28,7.13l-39.08-.08c-3.46,0-6.27-3.21-6.25-7.16l.15-95.92C1093,604,1095.77,600.77,1099.23,600.77Z"/><path class="cls-2" d="M1111.52,608.74l13.4,0a.6.6,0,0,1,.6.6h0a.6.6,0,0,1-.6.6l-13.4,0a.6.6,0,0,1-.6-.6h0A.6.6,0,0,1,1111.52,608.74Z"/><circle class="cls-3" cx="1118.73" cy="699.73" r="4.53"/><path class="cls-1" d="M1166.23,600.77l39.08.08c3.46,0,6.27,3.21,6.25,7.16l-.15,95.92c0,4-2.82,7.14-6.28,7.13l-39.08-.08c-3.46,0-6.27-3.21-6.25-7.16l.15-95.92C1160,604,1162.77,600.77,1166.23,600.77Z"/><path class="cls-2" d="M1178.52,608.74l13.4,0a.6.6,0,0,1,.6.6h0a.6.6,0,0,1-.6.6l-13.4,0a.6.6,0,0,1-.6-.6h0A.6.6,0,0,1,1178.52,608.74Z"/><circle class="cls-3" cx="1185.73" cy="699.73" r="4.53"/><path class="cls-1" d="M1233.23,600.77l39.08.08c3.46,0,6.27,3.21,6.25,7.16l-.15,95.92c0,4-2.82,7.14-6.28,7.13l-39.08-.08c-3.46,0-6.27-3.21-6.25-7.16l.15-95.92C1227,604,1229.77,600.77,1233.23,600.77Z"/><path class="cls-2" d="M1245.52,608.74l13.4,0a.6.6,0,0,1,.6.6h0a.6.6,0,0,1-.6.6l-13.4,0a.6.6,0,0,1-.6-.6h0A.6.6,0,0,1,1245.52,608.74Z"/><circle class="cls-3" cx="1252.73" cy="699.73" r="4.53"/><path class="cls-1" d="M1300.23,600.77l39.08.08c3.46,0,6.27,3.21,6.25,7.16l-.15,95.92c0,4-2.82,7.14-6.28,7.13l-39.08-.08c-3.46,0-6.27-3.21-6.25-7.16l.15-95.92C1294,604,1296.77,600.77,1300.23,600.77Z"/><path class="cls-2" d="M1312.52,608.74l13.4,0a.6.6,0,0,1,.6.6h0a.6.6,0,0,1-.6.6l-13.4,0a.6.6,0,0,1-.6-.6h0A.6.6,0,0,1,1312.52,608.74Z"/><circle class="cls-3" cx="1319.73" cy="699.73" r="4.53"/><path class="cls-1" d="M1112.27,27l26.58.06c2.35,0,4.26,2.19,4.25,4.87l-.1,65.23c0,2.68-1.92,4.86-4.27,4.85l-26.58-.06c-2.35,0-4.26-2.19-4.25-4.87l.1-65.23C1108,29.17,1109.92,27,1112.27,27Z"/><path class="cls-2" d="M1120.63,32.41h9.12a.41.41,0,0,1,.41.41h0a.41.41,0,0,1-.41.41h-9.12a.41.41,0,0,1-.41-.41h0A.41.41,0,0,1,1120.63,32.41Z"/><circle class="cls-3" cx="1125.53" cy="94.29" r="3.08"/><path d="M24.38,70h5V56.72H25.1V53.44a15.63,15.63,0,0,0,5.67-2.08h3.9V70H39v4.27H24.38Z"/><path d="M42.21,62.69c0-7.78,3.27-11.76,8.18-11.76s8.18,4,8.18,11.76-3.27,12-8.18,12S42.21,70.47,42.21,62.69Zm11.35,0c0-6.24-1.39-7.67-3.17-7.67s-3.17,1.43-3.17,7.67,1.39,7.87,3.17,7.87S53.56,68.93,53.56,62.69Z"/><path d="M61.22,62.69c0-7.78,3.27-11.76,8.18-11.76s8.18,4,8.18,11.76-3.27,12-8.18,12S61.22,70.47,61.22,62.69Zm11.34,0c0-6.24-1.39-7.67-3.17-7.67s-3.17,1.43-3.17,7.67,1.39,7.87,3.17,7.87S72.56,68.93,72.56,62.69Z"/><path d="M93.14,72.31H93l-.44,1.91H88.43V49h5.29v6.16l-.13,2.74a7.21,7.21,0,0,1,4.73-2c4.32,0,7,3.57,7,9,0,6.16-3.65,9.67-7.51,9.67A6.41,6.41,0,0,1,93.14,72.31Zm6.75-7.24c0-3.21-1-4.81-3.1-4.81a4.1,4.1,0,0,0-3.07,1.6v7.33a4.24,4.24,0,0,0,2.85,1.13C98.41,70.32,99.89,68.77,99.89,65.07Z"/><path d="M108.64,51a3.08,3.08,0,1,1,3.06,2.77A2.82,2.82,0,0,1,108.64,51Zm.41,5.38h5.29V74.22h-5.29Z"/><path d="M119,68.67V49h5.29V68.88c0,1.14.52,1.5,1,1.5a2.39,2.39,0,0,0,.65-.07l.63,3.9a6.82,6.82,0,0,1-2.66.44C120.23,74.65,119,72.28,119,68.67Z"/><path d="M129.29,68.67V49h5.29V68.88c0,1.14.52,1.5,1,1.5a2.39,2.39,0,0,0,.65-.07l.63,3.9a6.82,6.82,0,0,1-2.66.44C130.53,74.65,129.29,72.28,129.29,68.67Z"/><path d="M139.17,51a3.08,3.08,0,1,1,3.06,2.77A2.82,2.82,0,0,1,139.17,51Zm.41,5.38h5.29V74.22h-5.29Z"/><path d="M148.48,65.3c0-5.94,4.18-9.37,8.7-9.37s8.7,3.43,8.7,9.37-4.18,9.35-8.7,9.35S148.48,71.22,148.48,65.3Zm12,0c0-3.09-1.09-5.1-3.28-5.1s-3.28,2-3.28,5.1,1.09,5.08,3.28,5.08S160.46,68.39,160.46,65.3Z"/><path d="M169.5,56.36h4.32l.38,2.26h.13a8.18,8.18,0,0,1,5.74-2.69c3.88,0,5.54,2.74,5.54,7.2V74.22h-5.29V63.81c0-2.57-.69-3.37-2.22-3.37-1.33,0-2.14.62-3.31,1.74V74.23H169.5V56.36Z"/><path d="M196.88,51a3.08,3.08,0,1,1,3.06,2.77A2.82,2.82,0,0,1,196.88,51Zm.41,5.38h5.29V74.22h-5.29Z"/><path d="M207.67,50.76h8.06c5.16,0,9.33,1.85,9.33,7.55,0,5.51-4.21,8-9.18,8H213v8h-5.3V50.76Zm7.89,11.29c2.92,0,4.3-1.3,4.3-3.74S218.29,55,215.42,55H213v7.08Z"/><path d="M228.68,49H234v6.16l-.24,3.23a8.06,8.06,0,0,1,5.51-2.47c3.88,0,5.54,2.74,5.54,7.2V74.21h-5.29V63.81c0-2.57-.69-3.37-2.22-3.37-1.33,0-2.14.62-3.31,1.74V74.23h-5.29V49Z"/><path d="M248.2,65.3c0-5.94,4.18-9.37,8.7-9.37s8.7,3.43,8.7,9.37-4.18,9.35-8.7,9.35S248.2,71.22,248.2,65.3Zm12,0c0-3.09-1.09-5.1-3.28-5.1s-3.28,2-3.28,5.1,1.09,5.08,3.28,5.08S260.17,68.39,260.17,65.3Z"/><path d="M269.22,56.36h4.32l.38,2.26h.13a8.18,8.18,0,0,1,5.74-2.69c3.88,0,5.54,2.74,5.54,7.2V74.22H280V63.81c0-2.57-.69-3.37-2.22-3.37-1.33,0-2.14.62-3.31,1.74V74.23h-5.29Z"/><path d="M288.77,65.3c0-5.79,4.13-9.37,8.42-9.37,5.09,0,7.61,3.7,7.61,8.57a12.12,12.12,0,0,1-.22,2.34H293.9a4.31,4.31,0,0,0,4.63,3.78,7.41,7.41,0,0,0,3.86-1.17l1.75,3.19a11.6,11.6,0,0,1-6.34,2C292.71,74.65,288.77,71.21,288.77,65.3Zm11.51-2c0-2-.85-3.38-3-3.38-1.67,0-3.12,1.12-3.48,3.38Z"/><path d="M306.88,72.16l2.38-3.3a7.77,7.77,0,0,0,4.61,1.88c1.57,0,2.26-.6,2.26-1.54,0-1.18-1.77-1.71-3.61-2.43-2.19-.85-4.73-2.3-4.73-5.25,0-3.32,2.7-5.59,6.82-5.59a10.17,10.17,0,0,1,6.29,2.26l-2.37,3.18a6.64,6.64,0,0,0-3.76-1.52c-1.37,0-2,.54-2,1.43,0,1.14,1.67,1.57,3.52,2.25,2.26.84,4.81,2.11,4.81,5.37s-2.55,5.76-7.34,5.76A11.65,11.65,0,0,1,306.88,72.16Z"/><path d="M1156,64h11v2.49h-11Zm0,5.59h11v2.49h-11Z"/><path d="M1174.32,73.1h3.33V64.28h-2.85V62.09a10.4,10.4,0,0,0,3.78-1.39h2.6V73.1H1184V76h-9.71Z"/><path d="M1194.82,74.67h-.09l-.29,1.27h-2.76V59.13h3.53v4.11l-.09,1.83a4.83,4.83,0,0,1,3.15-1.32c2.88,0,4.67,2.38,4.67,6,0,4.11-2.43,6.45-5,6.45A4.28,4.28,0,0,1,1194.82,74.67Zm4.5-4.83c0-2.14-.66-3.21-2.07-3.21a2.71,2.71,0,0,0-2,1.07v4.89a2.8,2.8,0,0,0,1.9.75C1198.33,73.35,1199.32,72.31,1199.32,69.84Z"/><path d="M1205.15,60.45a2.05,2.05,0,1,1,2,1.84A1.88,1.88,0,0,1,1205.15,60.45Zm.28,3.59H1209V76h-3.53Z"/><path d="M1212.05,72.25V59.13h3.53V72.39c0,.76.35,1,.64,1a1.45,1.45,0,0,0,.43,0l.42,2.6a4.51,4.51,0,0,1-1.77.29C1212.88,76.23,1212.05,74.65,1212.05,72.25Z"/><path d="M1218.91,72.25V59.13h3.53V72.39c0,.76.35,1,.64,1a1.45,1.45,0,0,0,.43,0l.42,2.6a4.51,4.51,0,0,1-1.77.29C1219.74,76.23,1218.91,74.65,1218.91,72.25Z"/><path d="M1225.5,60.45a2.05,2.05,0,1,1,2,1.84A1.88,1.88,0,0,1,1225.5,60.45Zm.28,3.59h3.53V76h-3.53Z"/><path d="M1231.71,70c0-4,2.79-6.25,5.8-6.25s5.8,2.29,5.8,6.25-2.79,6.24-5.8,6.24S1231.71,74,1231.71,70Zm8,0c0-2.06-.73-3.4-2.18-3.4s-2.18,1.34-2.18,3.4.73,3.39,2.18,3.39S1239.69,72.06,1239.69,70Z"/><path d="M1245.72,64h2.88l.25,1.51h.09a5.46,5.46,0,0,1,3.83-1.8c2.59,0,3.69,1.83,3.69,4.8v7.39h-3.53V69c0-1.71-.46-2.25-1.48-2.25a3,3,0,0,0-2.21,1.16v8h-3.53V64Z"/><path d="M1264.25,64h2.88l.25,1.17h.09a5.3,5.3,0,0,1,3.39-1.46c2.88,0,4.65,2.38,4.65,6,0,4.09-2.43,6.43-5,6.43a4.17,4.17,0,0,1-2.84-1.24l.12,1.88v3.49h-3.53Zm7.64,5.8c0-2.14-.66-3.21-2.07-3.21a2.73,2.73,0,0,0-2,1.07v4.89a2.82,2.82,0,0,0,1.9.75C1270.91,73.35,1271.89,72.31,1271.89,69.84Z"/><path d="M1278,59.13h3.53v4.11l-.16,2.16a5.38,5.38,0,0,1,3.68-1.65c2.59,0,3.69,1.83,3.69,4.8v7.39h-3.53V69c0-1.71-.46-2.25-1.48-2.25a3,3,0,0,0-2.2,1.16v8H1278Z"/><path d="M1291,70c0-4,2.79-6.25,5.8-6.25s5.8,2.29,5.8,6.25-2.79,6.24-5.8,6.24S1291,74,1291,70Zm8,0c0-2.06-.73-3.4-2.18-3.4s-2.18,1.34-2.18,3.4.73,3.39,2.18,3.39S1299,72.06,1299,70Z"/><path d="M1305,64h2.88l.25,1.51h.09a5.46,5.46,0,0,1,3.83-1.8c2.59,0,3.69,1.83,3.69,4.8v7.39h-3.53V69c0-1.71-.46-2.25-1.48-2.25a3,3,0,0,0-2.21,1.16v8H1305V64Z"/><path d="M1318.06,70c0-3.86,2.76-6.25,5.62-6.25,3.39,0,5.07,2.47,5.07,5.72a7.74,7.74,0,0,1-.15,1.56h-7.12a2.87,2.87,0,0,0,3.09,2.52,5,5,0,0,0,2.58-.78l1.17,2.13a7.77,7.77,0,0,1-4.22,1.34C1320.69,76.23,1318.06,73.94,1318.06,70Zm7.68-1.31c0-1.31-.57-2.25-2-2.25a2.36,2.36,0,0,0-2.32,2.25Z"/><path d="M1330.13,74.57l1.59-2.2a5.15,5.15,0,0,0,3.07,1.25c1,0,1.5-.4,1.5-1,0-.78-1.18-1.14-2.41-1.62-1.46-.56-3.15-1.53-3.15-3.5,0-2.22,1.8-3.73,4.55-3.73a6.82,6.82,0,0,1,4.2,1.51l-1.58,2.12a4.4,4.4,0,0,0-2.51-1c-.91,0-1.36.36-1.36,1,0,.76,1.12,1,2.35,1.5,1.51.56,3.21,1.41,3.21,3.58s-1.7,3.84-4.89,3.84A7.74,7.74,0,0,1,1330.13,74.57Z"/></svg>